<?xml version="1.0" standalone="no"?>
<!DOCTYPE svg PUBLIC "-//W3C//DTD SVG 20010904//EN"
 "http://www.w3.org/TR/2001/REC-SVG-20010904/DTD/svg10.dtd">
<svg version="1.0" xmlns="http://www.w3.org/2000/svg"
 width="324.000000pt" height="324.000000pt" viewBox="0 0 324.000000 324.000000"
 preserveAspectRatio="xMidYMid meet">
<metadata>
Created by potrace 1.16, written by Peter Selinger 2001-2019
</metadata>
<g transform="translate(0.000000,324.000000) scale(0.100000,-0.100000)"
fill="#f1f1f1" stroke="none">
<path d="M1600 3237 c-3 -3 -36 -8 -75 -11 -124 -12 -228 -28 -325 -51 -41
-10 -244 -85 -249 -92 -3 -4 -10 -8 -16 -8 -22 0 -154 -79 -148 -89 3 -6 3 -8
-2 -4 -11 10 -47 -11 -40 -22 3 -6 0 -7 -8 -5 -7 3 -25 -5 -40 -19 -15 -14
-27 -23 -27 -20 0 11 -86 -63 -174 -151 -96 -94 -183 -195 -170 -195 4 0 0 -6
-11 -13 -11 -9 -15 -19 -10 -27 5 -8 4 -11 -3 -6 -11 7 -108 -141 -118 -181
-4 -13 -10 -23 -16 -23 -5 0 -6 -5 -3 -11 4 -5 -1 -19 -10 -29 -11 -12 -15
-27 -10 -42 4 -16 3 -19 -3 -9 -7 10 -18 -12 -41 -80 -17 -52 -33 -102 -36
-112 -2 -10 -7 -28 -11 -39 -3 -11 -7 -30 -9 -41 -2 -12 -8 -53 -13 -92 -25
-170 -28 -231 -18 -320 4 -33 9 -90 11 -127 2 -37 7 -72 11 -79 4 -7 8 -26 10
-43 2 -17 5 -38 7 -46 3 -8 8 -30 12 -48 4 -18 12 -35 16 -38 5 -3 7 -9 4 -14
-3 -5 1 -23 10 -40 8 -16 16 -33 16 -37 0 -22 12 -53 20 -53 5 0 9 -9 9 -19 0
-18 50 -122 104 -218 21 -39 88 -131 125 -175 8 -9 19 -14 25 -11 6 3 8 3 4
-2 -10 -11 51 -87 64 -79 6 4 8 3 5 -3 -6 -10 51 -72 66 -72 5 0 12 -3 15 -7
4 -4 0 -4 -8 1 -8 4 5 -11 30 -34 67 -60 189 -143 200 -136 6 4 9 1 8 -7 -2
-7 5 -12 14 -12 10 1 16 -1 13 -5 -2 -4 9 -15 26 -25 16 -9 29 -14 29 -10 0 4
8 0 18 -9 10 -9 40 -26 67 -37 28 -12 69 -30 93 -41 24 -11 47 -17 52 -14 5 3
20 -1 32 -9 36 -23 203 -61 309 -70 35 -3 87 -8 114 -12 55 -8 64 -8 145 0 30
3 85 7 122 10 38 3 72 7 78 11 5 3 24 7 42 9 60 6 265 66 293 86 6 3 31 14 58
24 28 11 44 22 41 28 -4 6 -2 8 4 4 14 -8 127 52 217 117 81 58 107 82 97 92
-4 4 -2 6 3 5 25 -5 37 1 31 16 -3 8 -2 12 4 9 12 -8 161 135 157 152 -1 6 1
11 4 10 14 -4 50 37 44 50 -2 8 -1 12 4 9 13 -8 34 21 25 35 -4 7 -3 9 4 5 13
-8 35 28 24 39 -4 3 0 5 8 3 9 -2 14 4 14 14 -1 10 3 15 9 11 6 -4 8 0 4 10
-4 10 -2 16 4 14 14 -3 80 114 74 131 -3 7 -1 11 4 7 5 -3 17 16 27 42 10 27
21 53 25 58 13 18 70 199 65 210 -2 6 2 19 9 29 8 10 12 23 9 30 -2 6 2 32 10
58 7 25 11 57 9 71 -3 13 3 68 12 121 9 53 14 100 11 105 -3 5 -9 46 -12 92
-3 46 -15 129 -26 184 -10 55 -20 109 -22 120 -9 46 -43 134 -51 127 -5 -4 -5
-2 -1 5 8 14 -34 114 -46 107 -4 -3 -5 2 -2 10 7 17 -64 158 -76 151 -4 -3 -7
3 -6 13 0 9 -5 16 -12 14 -8 -1 -11 2 -7 7 6 10 -61 114 -108 167 -14 16 -35
40 -47 54 -12 14 -18 19 -14 11 5 -10 3 -12 -5 -7 -7 5 -10 11 -7 14 10 9 -46
62 -57 55 -6 -3 -7 -1 -4 4 4 6 -19 33 -51 59 -31 27 -68 59 -82 71 -14 13
-30 23 -36 23 -6 0 -17 7 -24 15 -7 8 -17 12 -23 8 -5 -3 -7 -1 -4 4 12 19
-234 153 -280 153 -13 0 -21 4 -18 10 3 6 -2 10 -12 10 -11 0 -24 5 -31 12 -7
7 -12 9 -12 5 0 -4 -13 -1 -30 8 -16 8 -33 14 -37 13 -4 0 -21 4 -37 11 -16 6
-45 14 -65 17 -20 3 -56 10 -81 16 -49 11 -65 13 -185 23 -44 3 -89 8 -100 11
-11 3 -23 3 -25 1z m310 -81 c261 -55 447 -138 655 -291 134 -99 324 -312 401
-448 160 -284 224 -548 210 -872 -16 -393 -166 -738 -443 -1019 -252 -254
-566 -410 -918 -457 -127 -16 -384 -6 -507 20 -250 54 -485 165 -673 316 -108
88 -312 315 -283 315 7 0 269 0 582 0 l570 0 -67 50 c-36 27 -72 50 -78 50 -7
0 -9 3 -6 6 4 4 -5 20 -18 36 -40 47 -45 88 -45 378 0 270 0 274 18 240 30
-58 46 -80 59 -80 6 0 13 -4 15 -8 9 -21 75 -55 145 -74 64 -17 108 -21 248
-22 l170 -1 115 -56 c167 -82 551 -230 591 -228 8 0 51 44 97 97 45 53 99 115
120 137 80 87 76 73 41 151 -67 149 -272 559 -280 562 -5 2 -9 52 -9 110 -1
271 -55 419 -175 478 -49 23 -64 26 -128 22 -126 -8 -241 -78 -286 -174 l-21
-45 -53 6 c-79 10 -77 7 -77 82 0 119 -36 217 -85 229 -38 10 -135 -66 -271
-213 -176 -190 -227 -239 -273 -262 -22 -12 -41 -25 -41 -29 -1 -4 -25 -33
-54 -65 l-54 -58 -10 28 c-10 27 -10 26 -11 -15 -1 -36 -11 -58 -58 -125 -135
-195 -224 -416 -323 -805 -18 -72 -145 -188 -331 -304 -59 -37 -60 -37 -77
-18 -50 60 -136 252 -176 397 -45 164 -51 218 -50 433 1 227 15 318 75 494 34
99 133 306 152 318 7 4 8 8 4 8 -4 0 -3 6 3 13 6 6 35 45 65 86 106 145 291
316 436 402 193 114 369 178 588 214 105 18 423 12 521 -9z m-98 -584 c7 -21
13 -41 14 -47 10 -129 18 -186 28 -194 6 -5 41 -13 76 -17 36 -3 73 -10 82
-15 22 -12 31 -11 23 1 -3 6 -1 10 4 10 6 0 11 8 11 18 0 9 11 34 25 54 14 20
25 42 25 49 0 7 3 10 6 6 3 -3 15 2 25 12 26 24 102 61 126 61 10 0 24 5 30
11 8 8 30 9 70 3 32 -4 67 -8 78 -7 11 1 14 -1 8 -3 -8 -4 -2 -15 18 -31 31
-27 81 -113 86 -148 1 -11 5 -33 9 -50 4 -16 9 -95 11 -175 4 -140 6 -147 36
-200 17 -30 33 -57 36 -60 3 -3 7 -11 9 -18 5 -28 60 -120 68 -114 4 4 4 2 1
-5 -4 -6 17 -60 46 -120 30 -59 62 -127 72 -150 10 -23 22 -40 26 -38 4 3 5
-5 1 -17 -3 -12 -1 -19 4 -15 5 3 10 -7 9 -22 0 -27 -23 -56 -167 -217 -21
-22 -34 -45 -30 -50 4 -5 3 -6 -2 -2 -5 4 -14 0 -21 -9 -11 -15 -15 -15 -54 0
-22 9 -41 15 -41 12 0 -3 -17 3 -37 13 -21 11 -51 22 -68 26 -16 4 -55 18 -85
31 -30 12 -104 43 -164 69 -60 25 -114 43 -120 39 -6 -3 -8 -2 -3 2 11 13
-114 76 -138 69 -16 -4 -17 -3 -5 5 12 8 6 11 -25 10 -22 0 -48 -4 -57 -7 -25
-10 -253 5 -308 19 -146 39 -235 138 -214 237 4 20 8 42 10 49 8 39 57 124 89
156 36 35 98 62 160 70 29 4 30 5 25 48 -2 24 -4 68 -4 96 1 47 -1 51 -14 40
-13 -9 -14 -9 -8 1 9 15 9 14 -33 2 -19 -5 -71 -10 -116 -11 l-82 -2 -31 -81
c-33 -84 -68 -213 -70 -255 -1 -14 -6 -36 -11 -50 -7 -17 -10 -152 -8 -376 4
-383 5 -396 64 -464 22 -26 29 -41 20 -44 -6 -2 -77 -4 -157 -3 l-145 1 4 45
c1 25 7 50 12 56 5 6 10 32 11 57 1 25 5 44 8 42 3 -2 12 33 19 78 7 45 15 91
17 102 2 11 6 45 9 75 4 30 9 62 12 70 10 25 12 42 17 110 2 36 2 56 0 45 -3
-11 -8 -27 -11 -35 -9 -24 -16 -53 -17 -80 0 -14 -4 -27 -7 -30 -9 -9 -39
-142 -33 -151 3 -5 0 -9 -7 -9 -7 0 -9 -10 -7 -25 3 -14 2 -25 -1 -25 -10 0
-32 -80 -25 -92 4 -7 2 -8 -4 -4 -12 7 -16 -12 -14 -69 1 -26 0 -27 -7 -10
l-10 20 -1 -20 c0 -11 -7 -37 -14 -58 -13 -35 -13 -37 3 -25 9 7 7 1 -5 -12
-12 -14 -24 -33 -27 -43 -6 -16 -18 -18 -94 -16 -49 1 -93 4 -100 6 -9 4 -5
19 13 54 13 28 22 55 18 61 -4 6 -3 8 4 4 6 -3 14 4 18 16 4 13 23 56 42 98
19 41 35 87 35 102 0 15 4 25 7 23 8 -5 38 68 46 111 3 16 9 31 13 34 4 3 8
12 8 20 1 8 8 33 18 55 9 22 12 36 7 30 -16 -16 -62 -136 -62 -162 0 -14 -4
-21 -10 -18 -10 6 -14 -15 -11 -44 2 -7 -2 -10 -7 -7 -11 6 -69 -132 -64 -152
2 -8 -1 -11 -6 -8 -13 8 -36 -49 -26 -65 4 -7 3 -10 -3 -6 -13 8 -36 -41 -27
-55 4 -6 2 -8 -3 -5 -6 4 -20 -15 -31 -44 l-21 -50 -139 2 c-76 0 -144 4 -151
9 -9 5 -1 15 26 31 62 37 128 90 125 100 -1 5 2 8 7 7 22 -7 139 111 145 145
1 6 7 21 13 32 6 11 15 38 19 60 4 22 15 64 25 93 10 30 18 57 17 60 -1 4 4
19 10 35 14 33 24 74 26 104 0 11 4 19 9 16 4 -2 7 5 7 16 0 11 5 23 11 26 6
4 8 13 5 21 -3 8 -2 14 2 14 12 0 32 61 25 74 -3 6 -2 7 3 3 6 -6 53 76 58
103 1 3 14 26 29 53 15 26 25 53 21 60 -4 6 -4 9 1 5 7 -7 45 32 45 47 0 10
74 107 134 174 32 35 90 88 129 118 78 58 261 256 249 268 -4 5 -2 5 5 1 11
-6 28 10 28 27 0 4 3 6 6 5 11 -5 39 24 32 35 -3 5 -2 7 4 4 10 -7 49 33 45
46 -1 5 2 6 8 2 6 -4 26 7 45 24 42 36 60 32 77 -17z m-242 -612 c0 -47 -2
-50 -25 -50 -61 0 -160 -74 -206 -154 -32 -57 -39 -41 -15 35 8 24 24 76 35
114 12 39 25 75 29 82 4 7 37 14 72 16 36 2 75 4 88 5 20 2 22 -2 22 -48z
m490 -680 c8 -5 11 -10 5 -10 -5 0 -17 5 -25 10 -8 5 -10 10 -5 10 6 0 17 -5
25 -10z m-1199 -217 c-12 -20 -14 -14 -5 12 4 9 9 14 11 11 3 -2 0 -13 -6 -23z
m-50 -106 c-10 -9 -11 -8 -5 6 3 10 9 15 12 12 3 -3 0 -11 -7 -18z"/>
<path d="M2311 2419 c-29 -4 -56 -11 -60 -16 -3 -4 -13 -9 -21 -11 -8 -1 -30
-19 -48 -38 -24 -25 -32 -43 -30 -62 3 -23 12 -30 68 -50 36 -13 73 -24 82
-25 9 -1 14 -5 12 -9 -5 -7 19 -12 39 -9 5 1 6 -3 2 -9 -3 -5 -2 -10 3 -10 5
0 32 -15 60 -34 27 -19 52 -33 54 -31 4 4 -5 93 -17 160 -9 56 -26 96 -36 89
-5 -3 -6 1 -3 9 3 9 -6 22 -23 34 -23 16 -37 18 -82 12z m61 -56 c21 -25 57
-153 42 -153 -2 0 -28 12 -57 26 -29 15 -74 34 -101 44 -28 9 -51 21 -53 27
-8 22 83 69 138 72 9 1 23 -7 31 -16z"/>
<path d="M1523 1743 c-23 -15 -40 -30 -37 -35 3 -4 0 -8 -6 -8 -7 0 -9 -8 -5
-21 5 -14 3 -19 -3 -15 -12 7 -32 -46 -32 -86 0 -46 40 -105 62 -92 5 3 8 0 8
-7 0 -7 3 -9 6 -6 4 3 15 2 26 -4 24 -13 60 -18 182 -24 l100 -5 -24 25 c-12
13 -27 22 -33 18 -6 -3 -7 -2 -4 4 6 10 -41 82 -48 73 -2 -3 -7 -1 -12 4 -5 5
-3 6 5 2 6 -4 12 -5 12 -2 0 13 -34 76 -42 76 -4 0 -5 6 -2 14 3 8 1 17 -5 21
-6 3 -11 15 -11 25 0 11 -5 31 -12 45 -16 35 -70 34 -125 -2z m92 -50 c3 -15
24 -65 46 -111 22 -46 38 -86 35 -89 -9 -9 -145 16 -176 32 -16 8 -31 23 -35
34 -8 26 32 128 58 146 34 24 64 19 72 -12z"/>
</g>
</svg>
