<?xml version="1.0" standalone="no"?>
<!DOCTYPE svg PUBLIC "-//W3C//DTD SVG 20010904//EN"
 "http://www.w3.org/TR/2001/REC-SVG-20010904/DTD/svg10.dtd">
<svg version="1.0" xmlns="http://www.w3.org/2000/svg"
 width="324.000000pt" height="324.000000pt" viewBox="0 0 324.000000 324.000000"
 preserveAspectRatio="xMidYMid meet">
<metadata>
Created by potrace 1.16, written by Peter Selinger 2001-2019
</metadata>
<g transform="translate(0.000000,324.000000) scale(0.100000,-0.100000)"
fill="#f1f1f1" stroke="none">
<path d="M1498 3228 c-60 -3 -132 -11 -160 -17 -109 -23 -218 -54 -218 -63 0
-5 -4 -7 -9 -4 -14 9 -171 -55 -164 -67 3 -6 1 -7 -5 -3 -13 8 -107 -41 -217
-113 -62 -40 -205 -159 -260 -216 -94 -98 -235 -286 -235 -313 0 -6 -4 -12 -8
-14 -10 -4 -102 -189 -102 -204 0 -6 -7 -25 -16 -43 -8 -17 -31 -92 -50 -167
-68 -271 -62 -566 18 -839 31 -108 108 -286 121 -278 6 3 7 1 3 -5 -6 -10 36
-98 54 -112 4 -3 15 -19 25 -37 10 -18 23 -29 28 -26 5 3 7 0 5 -8 -12 -33
286 -350 313 -334 5 4 8 1 7 -5 -2 -7 33 -36 76 -66 79 -54 104 -65 90 -41 -4
7 -3 9 2 4 5 -5 9 -14 9 -20 0 -25 294 -156 380 -170 11 -1 25 -5 30 -9 23
-14 181 -39 287 -46 270 -18 534 27 772 133 46 20 56 29 45 36 -10 7 -7 8 11
4 19 -4 48 8 120 53 52 32 95 63 95 69 0 6 4 15 9 20 5 5 6 3 2 -4 -12 -22 3
-15 57 27 88 67 130 107 124 118 -4 5 1 9 11 8 10 0 17 6 16 16 -1 9 4 14 10
12 14 -6 80 72 72 85 -3 5 0 8 8 7 17 -1 118 135 112 151 -3 7 0 15 6 19 7 5
8 2 4 -7 -4 -8 2 -3 13 11 36 44 130 245 167 356 85 262 100 586 39 849 -23
102 -65 223 -107 314 -69 148 -200 347 -220 335 -7 -5 -8 -2 -3 5 9 15 -43 73
-58 64 -6 -3 -7 -2 -4 4 9 15 -49 77 -64 67 -7 -4 -10 -3 -6 3 9 15 -69 87
-84 78 -7 -5 -10 -4 -6 3 8 11 -136 132 -157 132 -3 0 -22 12 -43 26 -62 42
-182 96 -195 88 -7 -4 -10 -3 -5 1 13 15 -140 70 -288 103 -134 31 -290 41
-457 30z m350 -63 c167 -24 312 -70 477 -152 61 -30 118 -62 127 -70 10 -9 25
-12 40 -8 16 4 19 3 9 -3 -10 -7 7 -25 70 -73 46 -35 101 -80 121 -100 20 -20
39 -34 42 -31 3 3 6 0 6 -7 0 -7 22 -37 48 -66 132 -144 263 -374 321 -561 17
-56 31 -109 31 -118 0 -10 4 -14 10 -11 5 3 7 0 4 -8 -3 -8 2 -54 10 -103 25
-142 17 -451 -14 -549 -5 -16 -12 -46 -15 -65 -10 -60 -75 -240 -114 -314 -20
-39 -60 -108 -88 -152 -29 -45 -49 -85 -45 -89 4 -4 2 -5 -4 -3 -13 4 -65 -55
-69 -79 -1 -10 -7 -17 -12 -16 -11 2 -148 -135 -148 -148 0 -5 -4 -9 -8 -8 -6
0 -41 -23 -86 -57 -2 -2 2 -12 10 -21 13 -16 12 -17 -3 -4 -16 12 -25 9 -73
-24 -30 -21 -52 -42 -49 -46 3 -5 -2 -6 -10 -3 -8 3 -28 -3 -43 -14 -15 -10
-45 -27 -65 -37 -21 -9 -35 -21 -32 -26 3 -5 -2 -6 -11 -3 -8 4 -21 2 -28 -4
-43 -34 -308 -105 -457 -123 -255 -29 -579 15 -775 106 -27 13 -70 33 -95 44
-93 43 -251 143 -284 180 -11 12 -26 19 -33 17 -7 -3 -12 -1 -10 3 1 5 -34 44
-79 88 -44 43 -107 114 -140 158 -32 44 -69 94 -81 110 -39 53 -131 247 -162
340 -43 132 -50 162 -66 286 -43 327 7 638 151 923 45 89 105 188 131 214 7 7
13 21 13 29 0 9 3 13 6 10 4 -3 20 13 37 36 37 51 165 178 218 217 21 15 35
30 32 34 -3 3 1 6 10 6 8 0 22 7 31 15 18 19 172 112 197 120 11 4 16 11 13
17 -4 7 -2 8 4 4 6 -4 38 7 71 24 33 16 68 30 76 30 9 0 14 3 12 8 -3 4 5 8
16 9 12 1 63 13 112 27 50 15 128 33 175 40 115 18 342 19 468 1z"/>
<path d="M1913 2689 c-57 -10 -202 -76 -210 -96 -3 -7 -9 -11 -13 -8 -5 3 -17
-6 -28 -20 -11 -14 -24 -25 -30 -25 -5 0 -16 -8 -23 -17 -12 -15 -12 -16 1 -8
8 5 -2 -8 -22 -29 -21 -21 -35 -42 -33 -47 3 -4 0 -11 -8 -16 -7 -4 -20 -26
-29 -48 -34 -83 -35 -86 -37 -118 0 -10 -5 -16 -9 -13 -13 8 -36 -121 -36
-204 0 -82 23 -168 58 -212 37 -47 115 -99 186 -124 233 -81 448 38 491 272
17 91 1 154 -53 207 -37 38 -86 51 -138 37 -59 -16 -49 -26 23 -22 57 4 66 1
94 -22 42 -36 56 -83 51 -171 -5 -83 -33 -148 -87 -208 -44 -49 -91 -73 -175
-88 -57 -11 -77 -10 -148 5 -134 29 -200 73 -251 170 -18 35 -21 58 -22 151 0
138 3 155 56 290 40 103 48 115 118 185 118 117 219 160 376 160 154 0 260
-44 353 -145 190 -208 241 -447 136 -648 -13 -26 -22 -53 -18 -59 4 -6 3 -8
-3 -5 -6 4 -18 -4 -26 -16 -8 -13 -48 -55 -88 -94 -62 -61 -73 -76 -73 -106
-1 -19 -4 -33 -8 -30 -5 2 -8 -1 -8 -8 0 -23 -104 -165 -153 -207 -45 -39 -54
-43 -86 -38 -20 4 -44 7 -53 8 -9 1 -14 6 -12 10 7 11 -45 85 -64 93 -22 8
-62 -38 -62 -72 0 -14 8 -32 18 -40 25 -19 120 -63 138 -63 21 0 12 -23 -10
-26 -10 -1 -24 -8 -30 -15 -8 -9 -4 -10 19 -5 17 3 57 12 90 19 61 13 63 19
10 31 -16 4 -67 18 -113 32 -93 29 -111 48 -92 95 12 28 13 28 36 11 13 -9 24
-22 24 -29 0 -20 59 -71 90 -78 22 -5 40 -1 68 16 45 28 49 32 95 92 20 27 37
45 37 40 0 -7 20 23 37 57 4 8 13 21 20 28 12 12 33 74 33 98 0 11 81 99 97
105 16 7 93 110 93 125 0 8 4 14 10 14 5 0 9 3 8 8 -1 4 8 30 21 57 18 38 25
74 28 150 6 119 -14 201 -77 305 -37 62 -140 200 -140 188 0 -3 -17 11 -37 32
-28 27 -57 43 -108 58 -143 44 -195 49 -302 31z"/>
<path d="M1938 2320 c-39 -21 -95 -84 -123 -140 -10 -19 -20 -60 -22 -91 -5
-51 -3 -59 23 -88 23 -25 40 -33 80 -38 60 -7 87 5 110 49 14 27 15 40 5 83
-14 62 -40 104 -52 84 -4 -8 0 -24 12 -40 22 -31 25 -105 6 -130 -7 -9 -24
-19 -38 -22 -32 -8 -100 10 -116 31 -35 45 6 178 77 249 47 47 80 58 150 48
43 -6 55 -13 99 -62 88 -97 115 -248 64 -360 -19 -40 -96 -133 -111 -133 -4 0
-15 -8 -24 -17 -57 -61 -148 -86 -313 -87 -132 -1 -187 11 -230 49 -16 13 -31
22 -33 20 -5 -5 -23 14 -39 40 -6 11 -16 19 -23 17 -6 -1 -9 2 -5 8 3 5 -6 30
-21 55 -30 52 -54 162 -54 248 0 41 -4 59 -15 63 -8 3 -17 14 -20 24 -6 19
-85 63 -120 66 -29 4 -85 -24 -85 -42 0 -8 11 -20 25 -26 13 -6 27 -19 30 -28
3 -9 14 -26 25 -37 l19 -21 -78 0 c-42 1 -93 -4 -112 -10 -19 -6 -64 -19 -101
-29 -38 -10 -68 -21 -68 -25 0 -5 -9 -8 -19 -8 -11 0 -26 -6 -33 -13 -7 -8
-26 -17 -41 -21 -29 -7 -129 -68 -161 -98 -21 -19 -19 -20 36 -32 42 -9 209
-181 245 -251 9 -16 29 -46 45 -65 38 -46 40 -49 61 -90 23 -46 63 -112 76
-126 5 -7 7 -15 4 -18 -4 -3 -1 -6 5 -6 7 0 12 -9 12 -19 0 -11 7 -26 15 -35
8 -8 15 -18 15 -21 0 -4 9 -19 19 -33 10 -15 20 -30 20 -34 5 -20 55 -124 63
-129 5 -3 11 -17 13 -30 2 -13 19 -62 39 -109 20 -46 36 -88 36 -93 0 -5 6
-23 14 -40 8 -18 17 -43 20 -57 2 -14 16 -70 30 -125 14 -55 26 -113 26 -128
0 -24 4 -28 23 -25 51 7 72 110 72 346 0 128 0 132 17 110 10 -13 18 -27 18
-31 0 -5 6 -7 12 -5 7 3 19 -1 26 -9 35 -35 99 -7 167 74 27 32 54 61 59 64 5
4 5 12 1 19 -5 9 -4 11 3 6 7 -4 12 -1 12 7 0 8 13 30 30 48 16 19 30 37 30
41 0 13 85 88 100 88 11 1 11 3 -3 11 -15 9 -25 6 -49 -17 -28 -27 -108 -130
-187 -242 -81 -115 -160 -121 -213 -19 -38 73 -34 242 7 350 4 10 3 17 -4 17
-19 0 -115 67 -152 107 -20 21 -44 52 -53 70 -20 41 -21 115 0 156 l15 32 -20
-25 c-12 -14 -30 -50 -42 -80 -36 -95 -11 -179 85 -288 63 -71 78 -111 102
-267 12 -74 14 -148 11 -285 -6 -206 -7 -220 -24 -238 -17 -18 -23 -15 -23 11
0 31 -47 223 -64 261 -8 17 -22 51 -30 76 -38 112 -52 144 -123 292 -43 88
-80 155 -86 151 -6 -3 -7 -1 -3 5 20 33 -277 483 -307 465 -6 -4 -7 -1 -2 6
10 17 -45 74 -113 118 -29 19 -52 39 -49 46 6 18 180 102 280 135 110 37 209
52 254 39 23 -7 37 -6 48 3 13 11 13 15 -1 41 -8 17 -20 27 -26 23 -7 -5 -8
-3 -3 5 4 8 -3 24 -20 41 -16 16 -22 30 -16 34 23 14 80 8 107 -11 55 -39 66
-58 70 -125 5 -78 23 -169 36 -185 6 -7 8 -13 4 -13 -3 0 6 -24 21 -52 37 -71
97 -129 169 -163 50 -25 75 -30 161 -33 198 -8 325 38 437 158 78 85 91 117
91 231 0 88 -2 100 -32 155 -17 32 -36 58 -43 56 -6 -1 -8 2 -5 8 10 16 -33
59 -80 81 -51 24 -110 23 -157 -1z m-537 -990 c24 -18 57 -39 72 -48 21 -13
26 -22 21 -37 -3 -11 -11 -46 -16 -77 -12 -64 -22 -73 -32 -28 -7 35 -57 113
-86 133 -11 8 -17 17 -13 20 3 4 1 7 -5 7 -7 0 -12 6 -12 14 0 8 -4 16 -10 18
-13 4 -52 117 -45 129 4 5 23 -15 44 -45 20 -31 57 -69 82 -86z"/>
</g>
</svg>
