<?xml version="1.0" standalone="no"?>
<!DOCTYPE svg PUBLIC "-//W3C//DTD SVG 20010904//EN"
 "http://www.w3.org/TR/2001/REC-SVG-20010904/DTD/svg10.dtd">
<svg version="1.0" xmlns="http://www.w3.org/2000/svg"
 width="324.000000pt" height="324.000000pt" viewBox="0 0 324.000000 324.000000"
 preserveAspectRatio="xMidYMid meet">
<metadata>
Created by potrace 1.16, written by Peter Selinger 2001-2019
</metadata>
<g transform="translate(0.000000,324.000000) scale(0.100000,-0.100000)"
fill="#f1f1f1" stroke="none">
<path d="M1495 3234 c-248 -26 -468 -93 -665 -205 -428 -241 -718 -652 -806
-1144 -24 -137 -24 -393 0 -530 122 -682 636 -1201 1314 -1327 151 -28 400
-30 542 -5 254 46 478 139 685 286 102 72 276 244 352 347 280 382 382 851
283 1306 -140 644 -660 1141 -1310 1252 -95 16 -320 28 -395 20z m-72 -692
c14 -6 7 -16 -45 -57 -34 -28 -84 -77 -111 -110 -52 -64 -127 -186 -127 -206
0 -31 177 19 249 72 23 16 46 27 51 24 14 -9 12 -64 -5 -121 -20 -69 -65 -118
-138 -153 -63 -29 -183 -61 -233 -61 -23 0 -26 -3 -20 -27 10 -44 93 -205 127
-246 l30 -37 50 25 c179 91 369 116 539 72 52 -14 127 -40 165 -58 39 -19 73
-35 77 -37 10 -5 92 123 128 200 47 98 45 100 -59 120 -116 21 -201 59 -250
113 -44 48 -61 95 -61 173 l0 52 59 -40 c32 -22 78 -47 101 -55 56 -20 150
-31 150 -18 0 17 -109 184 -147 226 -43 48 -126 123 -145 130 -10 4 -10 8 2
17 23 17 128 5 197 -23 143 -58 304 -200 363 -321 70 -142 48 -304 -68 -481
-32 -49 -82 -116 -111 -147 -29 -32 -50 -61 -47 -66 3 -5 34 -23 70 -42 92
-46 178 -52 265 -17 71 29 82 22 58 -36 -30 -70 -125 -116 -295 -141 -96 -14
-132 -32 -132 -67 0 -12 10 -21 26 -25 43 -11 273 4 338 21 64 17 76 14 56
-10 -38 -46 -165 -81 -362 -101 -69 -6 -84 -19 -53 -44 32 -27 104 -148 120
-202 18 -63 11 -114 -21 -149 -27 -30 -41 -22 -59 34 -29 89 -97 208 -151 266
l-52 56 -58 -1 c-68 -2 -511 -2 -565 -1 -21 1 -47 -7 -67 -21 -45 -33 -125
-158 -162 -254 -17 -46 -35 -87 -39 -91 -14 -14 -39 4 -56 40 -34 71 -4 166
90 291 26 35 46 64 44 66 -2 1 -63 10 -135 19 -154 20 -250 47 -289 82 -15 15
-25 28 -23 31 3 2 34 -3 69 -11 75 -19 338 -31 358 -17 19 14 5 50 -27 66 -15
7 -67 18 -116 25 -106 14 -186 43 -231 82 -36 32 -60 80 -52 103 5 12 13 11
49 -7 67 -34 183 -31 265 7 90 41 93 47 47 102 -90 107 -129 164 -170 249 -81
165 -80 292 1 426 116 191 411 361 538 311z"/>
</g>
</svg>
