<?xml version="1.0" standalone="no"?>
<!DOCTYPE svg PUBLIC "-//W3C//DTD SVG 20010904//EN"
 "http://www.w3.org/TR/2001/REC-SVG-20010904/DTD/svg10.dtd">
<svg version="1.0" xmlns="http://www.w3.org/2000/svg"
 width="324.000000pt" height="324.000000pt" viewBox="0 0 324.000000 324.000000"
 preserveAspectRatio="xMidYMid meet">
<metadata>
Created by potrace 1.16, written by Peter Selinger 2001-2019
</metadata>
<g transform="translate(0.000000,324.000000) scale(0.100000,-0.100000)"
fill="#f1f1f1" stroke="none">
<path d="M1597 3203 c3 -8 -16 -13 -64 -16 -37 -1 -5 -3 72 -3 77 0 120 1 95
3 -28 3 -39 7 -31 13 9 5 -3 9 -31 11 -33 3 -44 1 -41 -8z"/>
<path d="M1371 3199 c-18 -6 -31 -12 -29 -14 2 -2 26 2 53 10 28 7 41 13 30
13 -11 0 -35 -4 -54 -9z"/>
<path d="M1298 3178 c5 -5 16 -8 23 -6 8 3 3 7 -10 11 -17 4 -21 3 -13 -5z"/>
<path d="M1440 3179 c0 -5 5 -7 10 -4 6 3 10 8 10 11 0 2 -4 4 -10 4 -5 0 -10
-5 -10 -11z"/>
<path d="M1775 3180 c11 -5 29 -8 40 -8 16 0 15 2 -5 8 -34 11 -60 11 -35 0z"/>
<path d="M1948 3183 c7 -3 16 -2 19 1 4 3 -2 6 -13 5 -11 0 -14 -3 -6 -6z"/>
<path d="M1855 3170 c25 -11 81 -13 71 -3 -4 4 -26 8 -49 9 -30 1 -36 -1 -22
-6z"/>
<path d="M1958 3163 c7 -3 16 -2 19 1 4 3 -2 6 -13 5 -11 0 -14 -3 -6 -6z"/>
<path d="M1157 3138 c-21 -11 -37 -22 -35 -24 2 -1 26 3 53 11 28 7 43 14 35
14 -13 1 -13 2 0 11 28 18 -12 9 -53 -12z"/>
<path d="M1230 3150 c0 -5 4 -10 9 -10 6 0 13 5 16 10 3 6 -1 10 -9 10 -9 0
-16 -4 -16 -10z"/>
<path d="M1988 3143 c6 -2 18 -2 25 0 6 3 1 5 -13 5 -14 0 -19 -2 -12 -5z"/>
<path d="M2040 3130 c8 -5 26 -10 39 -10 32 0 24 6 -19 14 -25 4 -31 3 -20 -4z"/>
<path d="M1033 3105 c0 -8 7 -17 15 -20 21 -8 22 -3 2 17 -13 14 -17 15 -17 3z"/>
<path d="M2114 3111 c3 -5 16 -7 28 -3 14 3 19 1 14 -6 -5 -8 -1 -10 9 -5 13
5 14 7 3 14 -18 12 -61 11 -54 0z"/>
<path d="M1070 3100 c20 -13 33 -13 25 0 -3 6 -14 10 -23 10 -15 0 -15 -2 -2
-10z"/>
<path d="M2190 3087 c0 -8 30 -24 70 -38 39 -13 70 -27 70 -30 0 -4 7 -9 15
-13 13 -4 14 -2 5 14 -6 11 -17 20 -26 20 -21 0 -65 31 -58 41 3 5 0 9 -5 9
-6 0 -11 -4 -11 -10 0 -5 -5 -10 -11 -10 -5 0 -7 5 -3 11 4 8 -1 9 -16 4 -15
-5 -20 -4 -16 4 4 6 2 11 -3 11 -6 0 -11 -6 -11 -13z"/>
<path d="M952 3075 c-8 -10 -9 -15 -2 -15 6 0 8 -4 5 -10 -9 -14 -3 -13 45 9
28 12 36 20 26 24 -8 3 -16 2 -18 -2 -2 -5 -13 -11 -25 -15 -18 -6 -22 -4 -17
8 8 20 3 20 -14 1z"/>
<path d="M915 3035 c-5 -2 -23 -6 -40 -10 -27 -6 -28 -7 -10 -17 14 -8 20 -8
23 0 2 7 7 10 11 7 5 -2 17 2 27 10 18 13 13 18 -11 10z"/>
<path d="M794 2993 c5 -9 -5 -20 -28 -34 -34 -20 -40 -39 -13 -39 7 0 6 4 -3
10 -12 8 -11 10 8 10 12 0 25 7 28 15 4 8 9 13 13 11 3 -2 17 2 31 11 14 8 17
12 6 9 -10 -4 -26 -1 -34 6 -12 10 -14 10 -8 1z"/>
<path d="M2410 2988 c0 -9 5 -20 11 -23 17 -11 20 0 4 21 -13 17 -14 17 -15 2z"/>
<path d="M2459 2947 c7 -7 18 -7 33 0 20 9 20 10 -10 10 -22 0 -29 -4 -23 -10z"/>
<path d="M709 2928 c12 -16 10 -19 -10 -27 -16 -6 -18 -10 -8 -10 9 -1 22 5
28 13 9 10 7 17 -6 27 -16 13 -17 12 -4 -3z"/>
<path d="M2520 2905 c29 -22 50 -25 50 -8 0 4 -3 3 -6 0 -4 -4 -19 2 -34 13
-16 11 -32 20 -36 20 -4 0 7 -11 26 -25z"/>
<path d="M646 2868 c3 -4 0 -8 -5 -8 -6 0 -20 -11 -32 -24 -14 -16 -27 -22
-41 -18 -17 4 -20 2 -15 -11 3 -9 0 -18 -9 -21 -8 -3 -13 -9 -12 -13 4 -12
-69 -83 -76 -76 -3 4 -6 -1 -6 -10 0 -9 -5 -17 -11 -17 -5 0 -7 5 -3 12 5 7 3
8 -5 3 -9 -5 -10 -10 -2 -18 8 -8 36 13 103 78 51 50 95 94 99 98 3 5 9 8 13
7 4 0 13 6 21 14 13 13 13 15 -4 13 -11 0 -17 -5 -15 -9z"/>
<path d="M2586 2862 c-2 -4 4 -13 15 -20 11 -7 19 -8 19 -2 0 5 -6 10 -12 10
-9 0 -8 4 2 10 13 8 13 10 -2 10 -9 0 -19 -4 -22 -8z"/>
<path d="M2630 2823 c0 -5 13 -17 29 -28 16 -10 27 -24 24 -29 -4 -5 1 -7 11
-3 9 4 15 3 12 -2 -5 -8 20 -36 33 -36 3 0 5 -2 4 -5 0 -3 5 -10 12 -17 10
-10 16 -9 26 3 10 12 9 13 -4 9 -10 -4 -18 1 -22 15 -4 12 -12 19 -20 16 -9
-3 -12 3 -11 19 2 16 -1 22 -10 18 -7 -3 -26 7 -41 21 -28 26 -43 33 -43 19z"/>
<path d="M2790 2694 c-11 -12 -10 -18 5 -32 18 -16 18 -16 6 0 -14 19 -6 42
11 32 7 -4 8 -2 4 4 -9 15 -11 15 -26 -4z"/>
<path d="M389 2658 c-1 -2 -2 -21 -4 -43 -1 -22 0 -32 2 -22 3 9 8 17 13 17 4
0 10 7 13 14 4 11 1 13 -10 9 -12 -5 -15 -2 -10 10 3 9 4 17 2 17 -3 0 -5 -1
-6 -2z"/>
<path d="M803 2653 c15 -2 37 -2 50 0 12 2 0 4 -28 4 -27 0 -38 -2 -22 -4z"/>
<path d="M893 2653 c9 -2 25 -2 35 0 9 3 1 5 -18 5 -19 0 -27 -2 -17 -5z"/>
<path d="M2275 2645 c-22 -6 -51 -17 -65 -23 l-25 -12 28 5 c18 4 26 2 22 -4
-4 -7 0 -8 10 -4 13 5 14 7 3 14 -12 8 11 13 64 13 9 0 15 3 12 7 -3 5 25 8
61 8 37 -1 69 2 72 5 11 11 -141 4 -182 -9z"/>
<path d="M2476 2649 c2 -4 -4 -9 -13 -12 -10 -2 -2 -4 17 -4 44 -2 196 -51
158 -52 -15 -1 -30 -5 -33 -11 -3 -5 -15 -10 -26 -10 -10 0 -19 -4 -19 -9 0
-5 27 -1 60 11 33 11 58 24 54 29 -3 5 -11 9 -17 9 -7 0 -52 13 -99 28 -48 15
-85 25 -82 21z"/>
<path d="M715 2640 c-3 -5 -32 -17 -63 -26 -91 -25 -89 -24 -72 -34 8 -6 22
-10 30 -10 13 0 13 1 0 10 -13 9 -13 10 0 10 8 0 26 3 40 6 20 4 22 3 10 -5
-13 -9 -11 -11 7 -11 25 0 39 16 21 23 -7 3 2 8 20 12 25 6 30 10 20 17 -8 6
2 8 32 4 31 -3 39 -2 25 4 -27 12 -63 12 -70 0z"/>
<path d="M2850 2641 c0 -6 4 -13 10 -16 6 -3 7 1 4 9 -7 18 -14 21 -14 7z"/>
<path d="M990 2629 c47 -13 82 -31 97 -49 10 -13 11 -12 9 4 -3 21 -75 55
-116 55 -20 -1 -18 -3 10 -10z"/>
<path d="M2840 2617 c0 -5 9 -20 19 -33 19 -25 20 -25 31 -5 9 17 8 20 -5 15
-9 -4 -22 1 -30 12 -8 11 -15 15 -15 11z"/>
<path d="M2159 2603 c-1 -5 -1 -12 0 -16 1 -5 -9 -6 -21 -2 -18 5 -20 4 -8 -4
15 -11 8 -15 -21 -12 -9 1 -21 -5 -28 -13 -10 -12 -8 -14 12 -12 31 4 70 31
73 51 1 8 0 15 -2 15 -2 0 -5 -3 -5 -7z"/>
<path d="M1113 2581 c0 -11 5 -18 9 -15 4 3 5 11 1 19 -7 21 -12 19 -10 -4z"/>
<path d="M2542 2583 c-6 -2 -10 -9 -7 -13 7 -11 35 -2 35 11 0 10 -8 10 -28 2z"/>
<path d="M630 2569 c0 -5 4 -9 10 -9 5 0 39 -13 73 -30 35 -16 71 -30 80 -30
8 0 17 -3 19 -7 3 -7 142 -103 161 -112 5 -1 25 -21 46 -44 22 -23 43 -37 49
-33 19 12 -19 56 -42 50 -11 -4 -16 -2 -12 4 3 5 -10 17 -29 26 -18 9 -42 27
-52 39 -18 23 -24 27 -44 27 -5 0 -8 4 -4 9 6 10 -29 34 -37 26 -3 -3 -13 4
-22 14 -10 11 -24 17 -32 14 -8 -3 -24 3 -34 12 -11 10 -23 15 -27 12 -3 -4
-11 -3 -17 2 -21 17 -86 40 -86 30z m245 -107 c-3 -3 -11 0 -18 7 -9 10 -8 11
6 5 10 -3 15 -9 12 -12z m185 -144 c0 -5 -7 -3 -15 6 -8 8 -15 18 -15 22 0 3
7 1 15 -6 8 -7 15 -17 15 -22z"/>
<path d="M304 2548 c-3 -4 -2 -13 1 -18 7 -12 -13 -42 -24 -36 -4 3 -7 -7 -6
-22 0 -15 -5 -31 -11 -37 -7 -5 -15 -21 -19 -35 -6 -21 -3 -19 18 10 14 19 23
38 20 43 -2 4 3 7 11 7 10 0 13 6 9 18 -3 9 -2 14 2 10 8 -8 45 43 45 62 0 11
-39 9 -46 -2z m34 -10 c-2 -5 -8 -9 -13 -9 -5 0 -11 4 -13 9 -1 5 4 9 13 9 9
0 14 -4 13 -9z"/>
<path d="M1167 2536 c10 -13 28 -23 41 -23 21 0 19 2 -12 23 -19 13 -38 24
-41 24 -3 0 2 -11 12 -24z"/>
<path d="M2885 2551 c-3 -6 -2 -11 2 -11 5 0 17 -16 27 -35 11 -19 21 -33 24
-30 3 2 -1 11 -7 19 -7 8 -10 19 -7 24 3 5 -3 17 -13 26 -13 11 -21 14 -26 7z"/>
<path d="M2518 2543 c7 -3 16 -2 19 1 4 3 -2 6 -13 5 -11 0 -14 -3 -6 -6z"/>
<path d="M2482 2524 c14 -14 21 -15 30 -6 8 8 9 12 1 12 -6 0 -20 3 -30 6 -17
7 -17 6 -1 -12z"/>
<path d="M2040 2520 c0 -6 -5 -8 -10 -5 -10 6 -93 -65 -85 -73 2 -2 14 5 26
17 18 16 25 18 32 9 6 -9 7 -8 3 5 -3 10 0 17 7 17 22 0 51 26 39 34 -7 4 -12
2 -12 -4z"/>
<path d="M2405 2510 c-13 -6 -15 -9 -5 -9 8 0 22 4 30 9 18 12 2 12 -25 0z"/>
<path d="M2434 2495 c-10 -8 -14 -14 -9 -14 6 0 19 6 29 14 11 8 15 15 10 15
-6 0 -19 -7 -30 -15z"/>
<path d="M1226 2485 c-10 -26 -7 -35 10 -35 9 0 12 -5 8 -12 -4 -6 -3 -8 2 -5
13 7 10 60 -3 64 -6 2 -13 -3 -17 -12z"/>
<path d="M2345 2480 c-3 -5 1 -10 9 -10 9 0 16 5 16 10 0 6 -4 10 -9 10 -6 0
-13 -4 -16 -10z"/>
<path d="M2950 2466 c0 -22 3 -27 11 -19 8 8 8 16 0 30 -9 16 -10 14 -11 -11z"/>
<path d="M1281 2464 c0 -5 4 -18 8 -28 6 -17 8 -17 14 -3 3 8 -1 21 -9 27 -8
7 -14 9 -13 4z"/>
<path d="M2361 2461 c-8 -5 -9 -11 -3 -15 5 -3 15 1 22 9 14 16 3 20 -19 6z"/>
<path d="M2967 2436 c-4 -10 -1 -13 8 -9 8 3 12 9 9 14 -7 12 -11 11 -17 -5z"/>
<path d="M1316 2431 c-3 -5 1 -11 9 -15 8 -3 15 -10 15 -16 0 -6 -4 -8 -10 -5
-6 4 -7 -1 -3 -11 5 -13 2 -15 -15 -10 -11 4 -23 2 -27 -3 -4 -7 1 -8 11 -4
12 5 15 3 9 -6 -6 -10 -3 -11 14 -2 11 7 21 8 21 4 0 -4 5 -1 10 7 7 12 11 10
18 -9 6 -18 10 -20 14 -10 7 17 -57 94 -66 80z"/>
<path d="M2317 2425 c-8 -8 -17 -11 -21 -8 -3 4 -6 -2 -6 -13 0 -14 -3 -15 -9
-6 -6 10 -14 6 -32 -17 -13 -16 -27 -27 -32 -24 -4 3 -2 13 5 22 7 9 3 6 -10
-7 -13 -14 -21 -31 -18 -38 3 -7 1 -16 -4 -19 -6 -4 -10 -11 -10 -16 0 -5 20
10 44 33 23 24 41 47 38 52 -3 5 1 7 9 4 8 -3 30 7 49 23 19 16 29 29 23 29
-6 0 -18 -7 -26 -15z m-97 -79 c0 -3 -4 -8 -10 -11 -5 -3 -10 -1 -10 4 0 6 5
11 10 11 6 0 10 -2 10 -4z"/>
<path d="M1891 2396 c-17 -17 -31 -36 -31 -41 0 -5 5 -4 11 2 6 6 19 9 28 6
13 -4 13 -3 2 5 -16 12 -5 36 14 28 8 -3 18 1 25 8 8 10 7 15 -4 19 -7 3 -27
-9 -45 -27z"/>
<path d="M1000 2400 c0 -5 5 -10 11 -10 5 0 7 5 4 10 -3 6 -8 10 -11 10 -2 0
-4 -4 -4 -10z"/>
<path d="M2987 2383 c20 -36 33 -42 33 -16 0 9 -3 14 -6 10 -4 -3 -15 4 -25
16 -19 22 -19 22 -2 -10z"/>
<path d="M206 2354 c-3 -9 -4 -20 -1 -24 3 -5 -4 -11 -15 -15 -20 -6 -24 -15
-21 -47 1 -9 -5 -28 -14 -41 -9 -14 -13 -32 -9 -42 5 -13 4 -16 -4 -11 -7 4
-12 1 -12 -8 0 -8 4 -17 9 -20 11 -7 24 41 16 54 -4 6 -2 10 3 10 11 0 38 69
34 88 -2 8 1 11 7 8 11 -7 44 48 34 58 -11 10 -21 7 -27 -10z"/>
<path d="M1825 2327 c-25 -28 -26 -40 -3 -19 13 12 28 19 33 15 4 -5 5 -2 1 5
-9 15 -18 15 -31 -1z"/>
<path d="M1403 2316 c5 -14 3 -17 -8 -12 -18 6 -20 -10 -3 -20 6 -4 14 -2 16
4 6 18 30 14 34 -5 2 -12 6 -14 11 -6 4 7 -5 20 -25 34 -27 20 -31 20 -25 5z"/>
<path d="M2145 2319 c-6 -8 -4 -10 5 -4 8 5 11 3 8 -6 -3 -8 -14 -13 -24 -12
-10 1 -13 0 -6 -3 20 -9 14 -27 -23 -66 -33 -35 -44 -58 -27 -58 4 0 15 13 24
28 9 15 29 40 44 55 15 15 21 27 14 27 -10 0 -10 3 0 15 9 11 10 19 3 26 -8 8
-13 7 -18 -2z"/>
<path d="M1847 2292 c1 -8 3 -16 3 -18 0 -2 4 -4 8 -4 4 0 9 10 9 22 2 16 0
19 -6 9 -5 -7 -11 -9 -13 -5 -3 5 -3 3 -1 -4z"/>
<path d="M1093 2280 c-2 -22 22 -44 37 -35 16 10 12 21 -13 38 -21 14 -23 13
-24 -3z m37 -20 c0 -5 -2 -10 -4 -10 -3 0 -8 5 -11 10 -3 6 -1 10 4 10 6 0 11
-4 11 -10z"/>
<path d="M3055 2270 c21 -24 26 -25 19 -6 -3 8 -13 17 -22 21 -13 5 -13 2 3
-15z"/>
<path d="M1773 2262 c-7 -13 -7 -21 3 -30 19 -18 24 -15 24 12 0 31 -13 40
-27 18z"/>
<path d="M1456 2263 c-3 -4 -6 -11 -6 -16 0 -6 3 -7 7 -4 3 4 12 -1 19 -11 9
-11 13 -13 14 -4 0 17 -25 43 -34 35z"/>
<path d="M1140 2223 c1 -18 18 -35 24 -24 4 6 2 11 -4 11 -6 0 -8 5 -5 10 3 6
1 10 -4 10 -6 0 -11 -3 -11 -7z"/>
<path d="M3076 2203 c7 -16 14 -34 14 -41 0 -7 5 -10 10 -7 6 3 10 19 10 35 0
22 -4 28 -15 24 -8 -4 -15 -1 -15 5 0 6 -4 11 -9 11 -6 0 -3 -12 5 -27z"/>
<path d="M1475 2200 c-3 -5 -1 -10 4 -10 6 0 11 5 11 10 0 6 -2 10 -4 10 -3 0
-8 -4 -11 -10z"/>
<path d="M1738 2180 c2 -16 6 -30 8 -30 2 0 4 14 4 30 0 17 -4 30 -8 30 -5 0
-7 -13 -4 -30z"/>
<path d="M1716 2175 c-3 -9 -6 -22 -5 -28 0 -7 5 -1 10 12 5 13 8 26 5 28 -2
2 -6 -3 -10 -12z"/>
<path d="M2046 2177 c4 -12 -1 -26 -17 -43 -20 -21 -21 -24 -5 -18 15 6 17 4
11 -6 -5 -9 -4 -11 4 -6 6 4 9 12 6 17 -4 5 -2 9 3 9 18 0 23 33 7 49 -15 15
-15 14 -9 -2z"/>
<path d="M1186 2165 c-9 -26 -7 -32 5 -12 6 10 9 21 6 23 -2 3 -7 -2 -11 -11z"/>
<path d="M1465 2173 c11 -3 30 -14 43 -26 14 -13 22 -16 22 -8 0 11 3 11 15 1
17 -14 21 -35 4 -24 -6 3 -3 -6 7 -20 13 -20 19 -24 25 -14 7 10 9 10 9 1 0
-7 5 -13 11 -13 8 0 8 5 -1 15 -7 8 -16 13 -20 10 -5 -3 -11 -1 -15 5 -3 5 -1
10 5 10 5 0 0 15 -12 34 -20 31 -24 32 -36 17 -7 -9 -11 -11 -8 -5 7 14 -16
25 -47 23 -21 -1 -21 -2 -2 -6z"/>
<path d="M1197 2135 c-4 -10 -3 -14 4 -10 6 4 9 1 8 -6 -2 -8 3 -25 10 -38 11
-20 11 -25 0 -33 -11 -7 -11 -9 1 -7 29 3 40 -1 62 -23 17 -17 20 -18 15 -4
-4 10 -7 22 -7 27 0 4 -7 5 -17 2 -10 -4 -14 -2 -9 5 3 6 2 13 -4 17 -5 3 -10
0 -10 -7 0 -9 -3 -9 -10 2 -5 8 -7 24 -4 35 4 16 3 17 -5 5 -9 -13 -11 -12
-11 5 0 11 -4 26 -9 33 -7 11 -9 10 -14 -3z"/>
<path d="M3123 2138 c3 -9 1 -18 -5 -20 -6 -2 -9 -12 -7 -23 4 -16 5 -16 16 7
7 17 8 29 1 39 -8 11 -9 11 -5 -3z"/>
<path d="M120 2125 c0 -16 -20 -56 -33 -66 -5 -3 -4 -21 1 -40 l9 -34 13 55
c7 30 17 63 21 72 6 10 5 19 -1 23 -5 3 -10 -1 -10 -10z"/>
<path d="M1680 2126 c0 -2 7 -7 16 -10 8 -3 12 -2 9 4 -6 10 -25 14 -25 6z"/>
<path d="M764 2096 c-19 -15 -19 -15 1 -14 11 0 29 -2 40 -6 13 -5 11 -2 -5 8
l-25 14 40 5 40 4 -36 1 c-19 1 -44 -4 -55 -12z"/>
<path d="M1665 2100 c-3 -5 -1 -10 4 -10 6 0 11 5 11 10 0 6 -2 10 -4 10 -3 0
-8 -4 -11 -10z"/>
<path d="M2371 2106 c2 -2 20 -6 39 -10 25 -4 31 -3 20 4 -14 9 -69 15 -59 6z"/>
<path d="M2283 2093 c15 -2 37 -2 50 0 12 2 0 4 -28 4 -27 0 -38 -2 -22 -4z"/>
<path d="M2470 2089 c-12 -8 -10 -9 7 -4 17 5 25 0 38 -24 9 -18 11 -31 5 -31
-5 0 -10 5 -10 12 0 6 -3 9 -6 5 -3 -3 0 -19 7 -35 l13 -30 13 25 c11 22 11
30 -5 57 -20 34 -39 42 -62 25z"/>
<path d="M975 2081 c-28 -6 -27 -7 19 -14 27 -4 70 -7 95 -6 l46 1 -55 13
c-60 16 -62 16 -105 6z m62 -7 c-3 -3 -12 -4 -19 -1 -8 3 -5 6 6 6 11 1 17 -2
13 -5z"/>
<path d="M3131 2074 c0 -11 3 -14 6 -6 3 7 2 16 -1 19 -3 4 -6 -2 -5 -13z"/>
<path d="M2129 2076 c-2 -2 -21 -6 -42 -9 -38 -5 -55 -13 -46 -22 3 -2 21 0
40 7 53 17 75 27 63 27 -6 1 -13 -1 -15 -3z"/>
<path d="M2213 2073 c9 -2 25 -2 35 0 9 3 1 5 -18 5 -19 0 -27 -2 -17 -5z"/>
<path d="M848 2063 c6 -2 18 -2 25 0 6 3 1 5 -13 5 -14 0 -19 -2 -12 -5z"/>
<path d="M2150 2060 c-9 -6 -10 -10 -3 -10 6 0 15 5 18 10 8 12 4 12 -15 0z"/>
<path d="M1986 2044 c-6 -16 -8 -16 -16 -4 -6 8 -10 11 -10 5 0 -24 15 -33 32
-21 10 7 13 17 9 25 -6 10 -10 8 -15 -5z"/>
<path d="M717 2034 c-9 -26 1 -56 16 -47 6 4 8 0 4 -9 -5 -15 14 -38 58 -67
11 -8 5 1 -14 19 -21 20 -36 45 -38 62 -2 20 1 27 9 22 7 -4 8 -3 4 5 -4 6
-11 9 -16 6 -5 -3 -10 3 -12 12 -4 16 -5 15 -11 -3z"/>
<path d="M1165 2040 c-3 -5 3 -10 14 -10 12 0 21 5 21 10 0 6 -6 10 -14 10 -8
0 -18 -4 -21 -10z"/>
<path d="M1128 2033 c7 -3 16 -2 19 1 4 3 -2 6 -13 5 -11 0 -14 -3 -6 -6z"/>
<path d="M3160 2024 c0 -16 -2 -17 -10 -4 -8 12 -10 11 -10 -7 0 -32 17 -37
24 -7 4 15 5 29 1 32 -3 3 -5 -3 -5 -14z"/>
<path d="M1198 2013 c7 -3 16 -2 19 1 4 3 -2 6 -13 5 -11 0 -14 -3 -6 -6z"/>
<path d="M2485 1950 c-10 -11 -22 -17 -27 -14 -4 3 -7 0 -6 -8 2 -7 -4 -12
-14 -10 -9 1 -22 -7 -28 -18 -10 -18 -14 -19 -28 -9 -14 11 -15 11 -5 0 10
-11 5 -20 -24 -42 -20 -16 -40 -29 -44 -29 -5 0 -9 -5 -9 -10 0 -15 50 13 88
48 17 16 34 27 38 23 4 -3 4 2 0 13 -5 14 -2 17 9 12 9 -3 29 8 51 29 20 19
32 35 26 35 -5 0 -17 -9 -27 -20z"/>
<path d="M2024 1949 c-3 -6 -2 -15 3 -20 5 -5 9 -1 9 11 0 23 -2 24 -12 9z"/>
<path d="M3162 1930 c0 -19 2 -27 5 -17 2 9 2 25 0 35 -3 9 -5 1 -5 -18z"/>
<path d="M56 1937 c3 -10 9 -15 12 -12 3 3 0 11 -7 18 -10 9 -11 8 -5 -6z"/>
<path d="M1105 1940 c4 -6 11 -8 16 -5 14 9 11 15 -7 15 -8 0 -12 -5 -9 -10z"/>
<path d="M1210 1946 c0 -2 8 -10 18 -17 15 -13 16 -12 3 4 -13 16 -21 21 -21
13z"/>
<path d="M2050 1945 c0 -5 5 -17 10 -25 5 -8 10 -10 10 -5 0 6 -5 17 -10 25
-5 8 -10 11 -10 5z"/>
<path d="M2072 1938 c7 -19 45 -22 45 -3 0 18 -13 20 -20 3 -4 -10 -6 -10 -6
0 -1 6 -6 12 -12 12 -6 0 -9 -6 -7 -12z"/>
<path d="M826 1927 c3 -10 9 -15 12 -12 3 3 0 11 -7 18 -10 9 -11 8 -5 -6z"/>
<path d="M1000 1930 c0 -5 5 -10 11 -10 5 0 7 5 4 10 -3 6 -8 10 -11 10 -2 0
-4 -4 -4 -10z"/>
<path d="M2190 1933 c0 -5 12 -16 26 -27 l26 -19 -17 27 c-16 25 -35 35 -35
19z"/>
<path d="M2270 1930 c-8 -5 -12 -12 -9 -15 4 -3 12 1 19 10 14 17 11 19 -10 5z"/>
<path d="M1075 1920 c3 -5 16 -10 28 -9 21 0 21 1 2 9 -28 12 -37 12 -30 0z"/>
<path d="M1130 1921 c0 -4 11 -6 25 -3 14 2 25 6 25 8 0 2 -11 4 -25 4 -14 0
-25 -4 -25 -9z"/>
<path d="M2148 1923 c7 -3 16 -2 19 1 4 3 -2 6 -13 5 -11 0 -14 -3 -6 -6z"/>
<path d="M71 1897 c-1 -10 -5 -15 -11 -12 -6 4 -7 -1 -3 -11 6 -15 7 -15 15 0
5 9 7 22 4 29 -2 7 -5 4 -5 -6z"/>
<path d="M995 1900 c3 -5 8 -10 11 -10 2 0 4 5 4 10 0 6 -5 10 -11 10 -5 0 -7
-4 -4 -10z"/>
<path d="M1166 1865 c-10 -25 -15 -51 -13 -58 4 -8 6 -6 6 4 2 30 32 79 44 72
7 -4 6 1 -2 10 -7 9 -15 17 -16 17 -1 0 -10 -20 -19 -45z"/>
<path d="M2054 1883 c9 -18 21 -33 28 -33 6 0 8 -12 4 -32 -4 -27 -4 -29 5
-15 13 22 3 71 -12 61 -8 -4 -9 1 -4 17 4 13 4 21 0 17 -5 -4 -15 -2 -23 5
-12 10 -12 6 2 -20z"/>
<path d="M820 1891 c0 -8 64 -51 76 -51 3 0 -6 11 -18 24 -13 12 -29 21 -37
18 -9 -3 -12 -1 -7 6 4 7 2 12 -3 12 -6 0 -11 -4 -11 -9z"/>
<path d="M3177 1893 c-4 -3 -6 -25 -6 -47 l2 -41 7 45 c8 48 7 54 -3 43z"/>
<path d="M1025 1880 c3 -5 8 -10 11 -10 2 0 4 5 4 10 0 6 -5 10 -11 10 -5 0
-7 -4 -4 -10z"/>
<path d="M1050 1876 c0 -8 5 -18 11 -21 6 -4 8 -14 5 -22 -3 -8 -1 -11 4 -8 6
3 10 2 10 -3 0 -6 7 -12 14 -15 10 -4 13 -1 9 9 -3 7 -9 14 -14 14 -5 0 -9 7
-9 15 0 8 -5 15 -11 15 -5 0 -8 4 -4 9 3 5 1 12 -5 16 -5 3 -10 -1 -10 -9z"/>
<path d="M2165 1870 c-3 -5 -1 -10 4 -10 6 0 11 5 11 10 0 6 -2 10 -4 10 -3 0
-8 -4 -11 -10z"/>
<path d="M2143 1834 c-15 -15 -17 -34 -4 -34 8 0 24 41 18 46 -1 1 -8 -4 -14
-12z"/>
<path d="M916 1831 c-17 -7 -16 -9 12 -30 18 -12 32 -18 32 -12 0 5 -10 13
-22 17 -21 6 -21 7 -3 20 20 15 12 17 -19 5z"/>
<path d="M956 1822 c-3 -4 4 -9 15 -9 23 -2 25 3 4 10 -8 4 -16 3 -19 -1z"/>
<path d="M51 1773 c0 -25 1 -26 9 -8 12 27 12 35 0 35 -5 0 -10 -12 -9 -27z"/>
<path d="M3183 1735 c0 -38 2 -53 4 -32 2 20 2 52 0 70 -2 17 -4 1 -4 -38z"/>
<path d="M1106 1782 c-2 -4 -1 -14 4 -22 7 -11 9 -9 7 8 -1 24 -3 26 -11 14z"/>
<path d="M2255 1776 c-11 -7 -29 -15 -40 -18 -20 -4 -20 -4 1 -9 13 -4 31 2
50 17 31 25 22 33 -11 10z"/>
<path d="M980 1765 c14 -17 40 -20 40 -4 0 5 -4 8 -9 4 -5 -3 -12 -1 -16 5 -3
5 -11 10 -17 10 -7 0 -6 -6 2 -15z"/>
<path d="M2126 1771 c-4 -7 -6 -13 -5 -14 2 -2 13 -9 24 -17 18 -13 19 -13 9
0 -6 8 -13 22 -16 30 -3 11 -6 11 -12 1z"/>
<path d="M1137 1747 c-7 -25 -10 -27 -24 -15 -14 11 -15 11 -6 -7 6 -11 8 -26
6 -32 -3 -7 0 -13 6 -13 6 0 11 9 11 19 0 11 5 21 11 23 6 2 9 15 7 28 -3 25
-4 25 -11 -3z"/>
<path d="M2095 1740 c-3 -5 -1 -10 4 -10 6 0 11 5 11 10 0 6 -2 10 -4 10 -3 0
-8 -4 -11 -10z"/>
<path d="M1054 1719 c21 -11 41 -18 44 -15 3 3 0 6 -7 6 -7 0 -10 4 -6 9 3 5
0 13 -6 17 -8 4 -9 3 -5 -4 4 -7 3 -12 -3 -12 -5 0 -13 5 -16 10 -3 6 -14 10
-23 10 -9 0 1 -9 22 -21z"/>
<path d="M2173 1730 c1 -6 -9 -16 -22 -23 -14 -6 -26 -19 -28 -27 -3 -10 -1
-9 7 3 6 9 16 17 23 17 7 0 26 9 42 20 l30 20 -27 0 c-16 0 -27 -5 -25 -10z"/>
<path d="M46 1668 c-9 -68 -8 -110 3 -139 6 -17 9 9 9 84 0 59 -1 107 -3 107
-1 0 -6 -24 -9 -52z"/>
<path d="M3201 1704 c0 -11 3 -14 6 -6 3 7 2 16 -1 19 -3 4 -6 -2 -5 -13z"/>
<path d="M2101 1654 c0 -11 3 -14 6 -6 3 7 2 16 -1 19 -3 4 -6 -2 -5 -13z"/>
<path d="M1110 1654 c0 -3 7 -12 15 -20 13 -13 15 -13 15 -1 0 8 -7 17 -15 21
-8 3 -15 3 -15 0z"/>
<path d="M2115 1608 c-4 -26 -10 -46 -14 -44 -4 3 -8 -4 -8 -15 -1 -10 -9 -26
-17 -35 -19 -18 -21 -38 -3 -28 6 3 -1 -5 -18 -20 -16 -14 -24 -25 -17 -26 7
0 10 -5 6 -12 -4 -7 -3 -8 4 -4 6 4 8 14 5 23 -4 11 -3 14 5 9 20 -12 81 153
69 186 -2 7 -8 -8 -12 -34z"/>
<path d="M3180 1608 c0 -26 6 -50 13 -57 11 -8 13 -2 12 35 -3 64 -25 84 -25
22z"/>
<path d="M1121 1594 c0 -11 3 -14 6 -6 3 7 2 16 -1 19 -3 4 -6 -2 -5 -13z"/>
<path d="M3182 1510 c0 -19 2 -27 5 -17 2 9 2 25 0 35 -3 9 -5 1 -5 -18z"/>
<path d="M1146 1517 c3 -10 9 -15 12 -12 3 3 0 11 -7 18 -10 9 -11 8 -5 -6z"/>
<path d="M1174 1468 c10 -16 23 -28 28 -28 5 0 7 -4 3 -10 -7 -11 62 -90 78
-90 8 0 8 3 0 11 -6 6 -9 19 -6 28 4 14 3 14 -6 1 -9 -13 -12 -13 -20 -1 -5 8
-8 25 -6 38 2 17 -1 21 -8 14 -18 -18 -28 -12 -17 8 9 17 7 19 -9 16 -15 -3
-18 1 -14 13 3 9 3 14 -2 10 -4 -4 -15 -2 -23 5 -11 9 -11 4 2 -15z"/>
<path d="M36 1455 c8 -37 14 -45 14 -19 0 10 -5 26 -10 34 -8 11 -9 7 -4 -15z"/>
<path d="M62 1410 c0 -25 4 -56 8 -70 l8 -25 0 25 c0 14 -3 45 -7 70 l-8 45
-1 -45z"/>
<path d="M3170 1401 c0 -22 -4 -51 -10 -66 -7 -17 -7 -24 0 -20 5 3 13 24 16
45 4 22 10 38 14 35 4 -2 5 7 2 20 -7 39 -22 29 -22 -14z"/>
<path d="M1984 1402 c5 -9 -1 -23 -15 -39 -22 -24 -23 -25 -3 -15 12 6 24 8
28 4 4 -3 4 2 0 12 -5 13 -4 17 3 13 11 -7 28 22 18 31 -3 3 -5 0 -5 -8 0 -10
-4 -10 -17 1 -13 11 -15 11 -9 1z"/>
<path d="M3176 1314 c-4 -14 -5 -28 -3 -31 3 -2 8 8 11 23 4 14 5 28 3 31 -3
2 -8 -8 -11 -23z"/>
<path d="M1295 1321 c-3 -6 -2 -11 3 -11 5 0 15 -11 22 -25 10 -18 16 -22 22
-13 11 18 10 30 -1 23 -5 -3 -16 4 -24 16 -9 13 -17 16 -22 10z"/>
<path d="M1930 1323 c0 -6 -3 -20 -6 -30 -7 -17 -6 -17 12 -1 14 14 16 21 6
30 -8 8 -12 9 -12 1z"/>
<path d="M1891 1268 c-8 -12 -15 -40 -16 -63 -3 -40 -1 -37 21 20 4 11 6 26 5
34 -1 7 2 10 8 6 7 -3 8 0 5 9 -8 20 -7 20 -23 -6z"/>
<path d="M3151 1268 c0 -7 4 -22 9 -33 8 -18 9 -17 9 7 1 15 -3 30 -9 33 -5 3
-10 0 -9 -7z"/>
<path d="M1351 1243 c0 -10 4 -27 9 -38 l9 -20 1 20 1 20 9 -20 9 -20 0 20 c0
27 -11 49 -26 53 -7 1 -13 -6 -12 -15z"/>
<path d="M3136 1225 c-9 -26 -7 -32 5 -12 6 10 9 21 6 23 -2 3 -7 -2 -11 -11z"/>
<path d="M91 1164 c0 -11 3 -14 6 -6 3 7 2 16 -1 19 -3 4 -6 -2 -5 -13z"/>
<path d="M1386 1164 c-8 -21 -6 -74 3 -99 5 -12 8 6 7 48 -1 37 -2 67 -2 67
-1 0 -5 -7 -8 -16z"/>
<path d="M121 1110 c0 -37 2 -41 9 -22 6 13 6 31 0 45 -7 18 -9 14 -9 -23z"/>
<path d="M1857 1123 c-9 -9 -9 -41 1 -46 4 -3 7 8 7 24 0 16 0 29 -1 29 0 0
-4 -3 -7 -7z"/>
<path d="M3100 1104 c0 -10 -7 -32 -15 -48 -9 -16 -12 -33 -7 -38 4 -4 14 15
21 43 7 27 10 53 7 56 -3 4 -6 -2 -6 -13z"/>
<path d="M151 1053 c-1 -6 -4 -20 -7 -30 -5 -15 -4 -16 6 -3 10 13 11 11 7 -8
-3 -12 -2 -20 2 -18 4 3 16 -18 25 -45 10 -27 21 -48 24 -45 3 3 11 1 19 -6
11 -8 12 -7 7 6 -3 9 -9 16 -14 16 -4 0 -15 19 -25 43 -32 79 -44 102 -44 90z"/>
<path d="M1401 1030 c-1 -19 28 -163 35 -169 3 -3 2 15 -2 39 -10 63 -32 148
-33 130z"/>
<path d="M1841 998 c0 -15 -10 -43 -21 -63 -11 -20 -20 -41 -19 -48 0 -7 5 -1
10 13 8 20 12 22 20 10 9 -12 10 -12 5 3 -3 10 -1 27 5 38 5 11 8 32 6 47 l-4
27 -2 -27z"/>
<path d="M3065 992 c-33 -24 -40 -79 -10 -79 10 0 11 5 4 19 -7 13 -5 25 7 43
17 26 17 30 -1 17z"/>
<path d="M3000 877 c-14 -23 -23 -48 -22 -56 2 -7 -1 -10 -7 -6 -7 4 -8 0 -5
-10 8 -19 17 -12 19 13 0 10 11 35 24 56 13 20 21 39 19 41 -2 3 -15 -14 -28
-38z"/>
<path d="M1812 867 c-6 -12 -14 -33 -17 -46 -11 -38 12 -16 25 25 14 41 9 55
-8 21z"/>
<path d="M240 861 c0 -6 4 -13 10 -16 6 -3 7 1 4 9 -7 18 -14 21 -14 7z"/>
<path d="M1452 840 c-15 -24 -15 -33 -2 -25 6 3 10 -3 10 -14 0 -12 4 -21 8
-21 5 0 14 -17 20 -37 11 -37 11 -37 8 -6 -3 43 12 32 20 -15 4 -20 11 -44 16
-52 7 -12 8 -10 4 5 -2 11 -7 35 -11 53 -4 18 -18 43 -32 56 -15 14 -25 35
-25 50 0 31 0 31 -16 6z"/>
<path d="M264 801 c0 -17 4 -31 8 -31 14 0 16 16 3 39 -12 24 -12 24 -11 -8z"/>
<path d="M1740 799 c0 -4 6 -21 14 -39 l13 -32 7 27 c4 15 5 30 1 33 -3 3 -5
-3 -5 -14 -1 -16 -3 -15 -15 6 -8 14 -14 22 -15 19z"/>
<path d="M2943 778 c-8 -13 -9 -18 -12 -39 0 -5 -6 -7 -13 -3 -7 5 -8 3 -4 -5
6 -9 13 -8 27 5 10 9 16 20 14 24 -3 5 0 10 7 12 9 3 9 6 1 11 -7 4 -15 2 -20
-5z"/>
<path d="M290 761 c0 -5 -3 -18 -6 -28 -5 -17 -5 -17 8 -1 13 15 16 14 33 -15
11 -18 18 -36 17 -40 -1 -5 2 -5 8 -2 8 5 6 14 -5 28 -8 12 -20 32 -27 45 -11
22 -28 30 -28 13z"/>
<path d="M2880 690 c-7 -16 -16 -30 -21 -30 -5 0 -9 -4 -9 -8 0 -5 7 -9 15 -9
8 0 13 2 10 5 -2 2 6 13 18 23 14 12 17 18 8 19 -11 0 -11 3 -1 15 7 8 8 15 2
15 -5 0 -15 -13 -22 -30z"/>
<path d="M310 701 c0 -6 4 -13 10 -16 6 -3 7 1 4 9 -7 18 -14 21 -14 7z"/>
<path d="M1731 643 c-1 -23 4 -45 9 -48 12 -7 12 29 0 65 -7 21 -8 19 -9 -17z"/>
<path d="M1503 635 c0 -22 2 -30 4 -17 2 12 2 30 0 40 -3 9 -5 -1 -4 -23z"/>
<path d="M368 633 c3 -17 9 -22 20 -18 12 4 12 2 4 -8 -12 -14 -6 -27 12 -27
6 0 5 4 -3 9 -8 5 -9 11 -3 15 11 6 65 -58 55 -67 -3 -3 7 -9 21 -13 21 -5 25
-11 20 -26 -4 -14 -2 -18 5 -14 18 12 13 31 -16 58 -34 30 -67 69 -81 93 -16
29 -40 27 -34 -2z"/>
<path d="M1712 625 c0 -16 2 -22 5 -12 2 9 2 23 0 30 -3 6 -5 -1 -5 -18z"/>
<path d="M2816 611 c-10 -11 -13 -21 -7 -25 10 -7 14 -3 24 27 8 22 4 22 -17
-2z"/>
<path d="M1730 533 c0 -18 5 -33 10 -33 13 0 13 30 0 50 -7 11 -10 7 -10 -17z"/>
<path d="M1506 518 c-3 -18 -8 -52 -11 -76 l-5 -43 30 22 c16 13 28 25 25 27
-2 3 -11 -1 -20 -8 -13 -11 -15 -7 -15 24 0 22 4 35 10 31 6 -3 10 -1 10 4 0
6 -4 11 -9 11 -5 0 -7 9 -4 20 3 11 3 20 0 20 -4 0 -8 -15 -11 -32z"/>
<path d="M2725 509 c-4 -6 -5 -13 -2 -16 7 -7 27 6 27 18 0 12 -17 12 -25 -2z"/>
<path d="M520 486 c0 -8 -3 -16 -7 -19 -5 -2 -2 -2 5 -1 6 2 13 -1 13 -6 1 -6
3 -14 4 -20 1 -5 3 -13 4 -17 0 -4 8 2 17 13 14 18 15 18 9 -6 -5 -20 -4 -22
5 -10 9 11 13 12 17 3 2 -7 12 -13 21 -13 12 0 8 7 -13 24 -16 13 -34 22 -39
18 -5 -3 -7 2 -3 11 4 12 2 14 -10 10 -10 -4 -14 -2 -9 5 3 6 2 13 -4 17 -5 3
-10 0 -10 -9z"/>
<path d="M1631 484 c0 -11 3 -14 6 -6 3 7 2 16 -1 19 -3 4 -6 -2 -5 -13z"/>
<path d="M1710 486 c0 -9 5 -16 10 -16 6 0 10 4 10 9 0 6 -4 13 -10 16 -5 3
-10 -1 -10 -9z"/>
<path d="M1568 483 c-22 -5 -24 -23 -3 -23 8 0 15 5 15 11 0 6 9 8 23 4 17 -5
19 -4 7 4 -8 6 -17 10 -20 10 -3 -1 -13 -3 -22 -6z"/>
<path d="M1670 473 c1 -5 20 -22 44 -40 l43 -32 -3 31 c-2 17 -7 34 -10 37 -4
3 -4 -4 -1 -16 7 -30 -2 -29 -32 2 -23 24 -41 32 -41 18z"/>
<path d="M2626 421 c-16 -17 -15 -18 9 -14 25 5 32 17 16 27 -4 3 -16 -3 -25
-13z"/>
<path d="M649 377 c6 -8 8 -17 4 -20 -3 -4 0 -7 7 -7 8 0 24 -9 36 -21 12 -11
24 -17 27 -12 8 12 -2 24 -40 51 -36 25 -51 29 -34 9z"/>
<path d="M2553 367 c-38 -26 -41 -33 -12 -33 11 0 30 13 41 28 23 33 15 35
-29 5z"/>
<path d="M748 307 c7 -8 10 -16 8 -18 -3 -2 9 -12 26 -22 20 -12 27 -13 20 -4
-7 8 -10 16 -8 18 3 2 -9 12 -26 22 -20 12 -27 13 -20 4z"/>
<path d="M2486 309 c2 -4 -2 -10 -8 -12 -9 -4 -7 -6 3 -6 9 -1 21 5 27 12 8
10 6 13 -8 13 -10 0 -17 -3 -14 -7z"/>
<path d="M830 261 c14 -11 29 -21 33 -21 5 0 5 -4 2 -10 -3 -5 1 -10 11 -10
14 0 14 3 3 16 -7 8 -26 22 -43 30 l-31 15 25 -20z"/>
<path d="M2425 270 c3 -5 1 -10 -4 -10 -6 0 -11 -5 -11 -10 0 -6 8 -5 19 2 19
12 19 28 0 28 -6 0 -7 -4 -4 -10z"/>
<path d="M2380 250 c-9 -6 -10 -10 -3 -10 6 0 15 5 18 10 8 12 4 12 -15 0z"/>
<path d="M2336 224 c-11 -8 -16 -14 -10 -14 13 0 39 18 34 24 -3 2 -14 -2 -24
-10z"/>
<path d="M908 213 c7 -3 16 -2 19 1 4 3 -2 6 -13 5 -11 0 -14 -3 -6 -6z"/>
<path d="M2270 197 c-14 -7 -32 -16 -40 -22 -8 -5 -37 -18 -65 -27 -37 -12
-43 -17 -24 -17 28 -1 89 25 101 43 4 6 8 7 8 2 0 -5 7 -3 15 4 8 6 23 9 34 5
11 -3 23 -1 27 6 4 8 3 9 -4 5 -7 -4 -12 -2 -12 3 0 13 -8 13 -40 -2z"/>
<path d="M971 181 c-12 -8 -9 -11 12 -16 15 -4 25 -11 22 -15 -8 -12 55 -24
67 -12 6 6 0 8 -19 6 -21 -3 -23 -2 -10 4 17 7 16 9 -7 20 -14 6 -33 9 -43 5
-11 -4 -14 -3 -9 5 9 14 6 15 -13 3z"/>
<path d="M1095 110 c3 -5 16 -10 28 -9 21 0 21 1 2 9 -28 12 -37 12 -30 0z"/>
<path d="M1158 113 c6 -2 18 -2 25 0 6 3 1 5 -13 5 -14 0 -19 -2 -12 -5z"/>
<path d="M1997 104 c-6 -7 -45 -16 -147 -34 -30 -6 -95 -10 -145 -11 -88 0
-198 -16 -132 -18 16 -1 26 -5 22 -11 -4 -6 2 -7 18 -1 13 5 84 14 158 21 74
7 140 16 146 22 7 6 29 7 50 4 29 -5 35 -4 23 4 -12 9 -10 11 10 7 14 -2 36
-1 50 4 21 7 20 8 -8 4 -20 -3 -31 -1 -27 5 7 11 -8 14 -18 4z"/>
<path d="M1230 85 c30 -17 44 -19 35 -5 -3 6 -2 10 4 10 5 0 13 -4 16 -10 3
-5 18 -10 33 -9 l27 0 -25 10 c-14 6 -45 12 -70 14 -43 4 -44 4 -20 -10z"/>
<path d="M1198 73 c7 -3 16 -2 19 1 4 3 -2 6 -13 5 -11 0 -14 -3 -6 -6z"/>
<path d="M1369 67 c5 -5 26 -7 47 -5 l39 3 -47 5 c-26 3 -43 1 -39 -3z"/>
<path d="M1938 63 c7 -3 16 -2 19 1 4 3 -2 6 -13 5 -11 0 -14 -3 -6 -6z"/>
<path d="M1473 53 c9 -2 25 -2 35 0 9 3 1 5 -18 5 -19 0 -27 -2 -17 -5z"/>
<path d="M1530 30 c0 -5 5 -10 11 -10 5 0 7 5 4 10 -3 6 -8 10 -11 10 -2 0 -4
-4 -4 -10z"/>
</g>
</svg>
