<?xml version="1.0" standalone="no"?>
<!DOCTYPE svg PUBLIC "-//W3C//DTD SVG 20010904//EN"
 "http://www.w3.org/TR/2001/REC-SVG-20010904/DTD/svg10.dtd">
<svg version="1.0" xmlns="http://www.w3.org/2000/svg"
 width="324.000000pt" height="324.000000pt" viewBox="0 0 324.000000 324.000000"
 preserveAspectRatio="xMidYMid meet">

<g transform="translate(0.000000,324.000000) scale(0.100000,-0.100000)"
fill="#f1f1f1" stroke="none">
<path d="M1500 3234 c-960 -86 -1628 -941 -1473 -1884 109 -665 639 -1200
1307 -1320 356 -64 700 -12 1024 155 710 366 1048 1190 796 1942 -190 570
-676 986 -1268 1088 -91 15 -306 26 -386 19z m-125 -590 c39 -13 89 -24 112
-24 187 0 323 -199 323 -469 0 -106 -16 -180 -55 -254 -32 -62 -32 -97 0 -135
33 -39 106 -73 245 -112 277 -78 326 -107 467 -272 41 -48 78 -88 84 -88 5 0
23 28 40 61 62 125 49 269 -41 454 -62 127 -109 189 -161 216 -77 39 -128 117
-129 196 0 51 33 158 60 193 l20 25 0 -32 c0 -50 15 -77 74 -134 66 -64 81
-104 72 -196 l-6 -62 63 -64 c105 -104 157 -237 157 -397 0 -86 -25 -215 -56
-287 -13 -33 -14 -50 -3 -133 19 -151 -11 -244 -87 -276 -30 -13 -34 -18 -34
-54 0 -46 -25 -74 -72 -84 -17 -3 -150 -6 -297 -6 -281 0 -313 5 -319 46 -4
27 34 73 74 90 19 8 59 14 91 15 l58 1 -42 15 c-55 19 -93 64 -93 109 l0 34
-97 0 c-111 0 -303 28 -443 63 -52 14 -95 24 -96 23 -1 0 -23 -46 -49 -100
-57 -116 -128 -227 -180 -276 -35 -34 -38 -35 -132 -39 -149 -5 -198 19 -173
85 11 29 42 49 99 64 65 17 106 63 119 130 5 30 15 84 22 120 6 36 28 97 47
137 l36 72 -41 45 c-55 59 -88 128 -113 234 -18 74 -21 107 -16 220 l5 132
-44 0 c-61 0 -84 24 -84 90 0 34 -8 67 -25 100 -35 70 -42 130 -19 168 23 40
105 77 212 96 46 7 84 16 86 17 1 2 8 33 15 68 39 198 123 243 326 175z"/>
</g>
</svg>
