<?xml version="1.0" standalone="no"?>
<!DOCTYPE svg PUBLIC "-//W3C//DTD SVG 20010904//EN"
 "http://www.w3.org/TR/2001/REC-SVG-20010904/DTD/svg10.dtd">
<svg version="1.0" xmlns="http://www.w3.org/2000/svg"
 width="324.000000pt" height="324.000000pt" viewBox="0 0 324.000000 324.000000"
 preserveAspectRatio="xMidYMid meet">

<g transform="translate(0.000000,324.000000) scale(0.100000,-0.100000)"
fill="#f1f1f1" stroke="none">
<path d="M1470 3229 c-698 -70 -1272 -575 -1424 -1250 -60 -266 -55 -510 14
-774 164 -624 696 -1095 1340 -1186 110 -16 343 -16 445 0 101 15 280 62 364
95 225 89 458 253 618 436 444 504 534 1202 232 1802 -152 302 -409 557 -721
714 -103 52 -141 67 -268 104 -189 55 -415 77 -600 59z m226 -454 c84 -55 77
-182 -14 -225 l-32 -15 0 -92 c0 -68 3 -93 13 -93 6 0 55 14 107 30 219 69
262 65 368 -34 92 -86 132 -106 132 -66 0 15 7 20 25 20 16 0 25 -6 25 -15 0
-8 2 -15 5 -15 12 0 84 40 90 50 13 21 23 9 15 -20 -12 -42 -40 -76 -77 -94
-42 -20 -43 -44 -1 -48 29 -3 33 -7 49 -63 19 -65 193 -609 204 -638 6 -14 18
-17 56 -16 27 1 52 -1 56 -5 4 -3 -10 -24 -31 -45 -85 -87 -221 -131 -400
-131 -124 0 -206 16 -290 56 -55 26 -146 97 -146 115 0 5 26 9 59 9 35 0 63 5
69 13 8 9 195 574 227 685 5 16 14 22 36 22 19 0 29 5 29 15 0 10 -11 15 -35
15 -45 0 -123 30 -169 65 -64 49 -104 45 -229 -19 -59 -30 -123 -58 -142 -62
l-35 -6 0 -197 0 -197 40 -83 40 -82 0 -230 0 -229 90 0 90 0 0 -39 c0 -30 9
-52 35 -88 19 -26 67 -91 105 -143 l70 -95 -239 -3 c-132 -1 -350 -1 -485 0
l-246 3 85 139 c73 118 85 145 85 182 l0 44 105 0 105 0 0 235 0 235 39 78 39
78 2 196 1 195 -38 6 c-21 4 -87 32 -147 63 -131 67 -161 68 -245 11 -59 -41
-106 -57 -168 -57 -32 0 -43 -4 -43 -15 0 -10 10 -15 30 -15 l29 0 71 -222
c39 -123 90 -279 112 -348 22 -69 44 -130 50 -137 5 -7 34 -13 64 -15 l55 -3
-43 -44 c-88 -89 -217 -131 -401 -131 -181 0 -308 42 -397 130 l-45 45 69 5
69 5 27 85 c14 47 66 208 115 358 88 270 89 272 117 272 38 0 37 29 -2 58 -33
25 -63 75 -58 98 2 11 12 8 42 -13 27 -19 40 -24 43 -15 3 6 16 12 29 12 18 0
24 -5 24 -21 0 -19 4 -21 36 -16 26 4 55 24 106 73 39 36 87 73 106 81 49 20
124 11 259 -32 60 -19 111 -35 116 -35 4 0 7 42 7 94 l0 94 -29 5 c-70 14
-110 133 -64 195 43 59 121 75 179 37z"/>
<path d="M806 1786 c-58 -178 -106 -329 -106 -335 0 -8 34 -11 113 -9 l112 3
3 333 c1 195 -1 332 -7 332 -5 0 -57 -146 -115 -324z"/>
<path d="M982 1778 l3 -333 113 -3 c83 -2 112 0 112 10 0 10 -71 235 -184 582
-42 131 -47 107 -44 -256z"/>
<path d="M2145 1787 c-58 -178 -105 -329 -105 -336 0 -8 30 -11 113 -9 l112 3
3 333 c1 208 -1 332 -7 332 -6 0 -57 -145 -116 -323z"/>
<path d="M2320 1775 l0 -335 116 0 c115 0 116 0 111 23 -6 27 -183 581 -199
620 -6 15 -14 27 -19 27 -5 0 -9 -149 -9 -335z"/>
</g>
</svg>
