<?xml version="1.0" standalone="no"?>
<!DOCTYPE svg PUBLIC "-//W3C//DTD SVG 20010904//EN"
 "http://www.w3.org/TR/2001/REC-SVG-20010904/DTD/svg10.dtd">
<svg version="1.0" xmlns="http://www.w3.org/2000/svg"
 width="324.000000pt" height="324.000000pt" viewBox="0 0 324.000000 324.000000"
 preserveAspectRatio="xMidYMid meet">

<g transform="translate(0.000000,324.000000) scale(0.100000,-0.100000)"
fill="#f1f1f1" stroke="none">
<path d="M1400 3220 c-25 -3 -50 -9 -56 -12 -6 -4 -30 -10 -53 -13 -67 -8
-171 -37 -171 -47 0 -5 -4 -7 -9 -4 -4 3 -46 -9 -91 -28 -45 -18 -78 -36 -72
-40 6 -3 14 -2 17 4 4 6 16 8 28 5 18 -5 19 -4 7 5 -12 10 -11 11 8 7 12 -3
22 -1 22 4 0 5 5 9 10 9 5 0 9 -5 7 -11 -1 -6 5 -14 13 -16 13 -4 13 -3 0 7
-12 9 -9 11 15 6 l30 -5 -30 15 -30 15 28 -6 c16 -3 26 -2 23 3 -3 5 14 15 37
22 23 7 66 21 95 31 33 12 52 15 52 8 0 -11 32 -9 120 9 25 5 38 11 30 12 -8
1 1 6 20 9 50 9 9 18 -50 11z m-36 -25 c-10 -8 -30 -14 -44 -14 -22 0 -21 2
10 13 48 18 57 19 34 1z"/>
<path d="M1491 3226 c2 -2 21 -6 42 -10 27 -5 37 -4 32 3 -3 6 -22 11 -42 11
-20 0 -34 -2 -32 -4z"/>
<path d="M1671 3222 c-9 -7 -10 -12 -2 -16 6 -4 11 -3 11 3 0 7 10 6 30 -1 23
-8 34 -7 47 3 9 8 14 9 10 3 -4 -7 11 -10 46 -8 50 2 51 2 23 -10 -27 -12 -27
-13 -7 -19 11 -3 19 -2 16 3 -5 8 18 20 38 20 7 0 6 -5 -3 -11 -11 -8 -8 -9
15 -5 17 4 44 2 60 -4 l30 -10 -35 5 c-22 3 -30 2 -21 -4 7 -5 35 -10 62 -11
75 -2 98 -5 93 -9 -8 -8 50 -32 70 -29 13 2 20 -2 18 -10 -1 -9 6 -10 24 -6
19 5 25 4 20 -5 -4 -6 -4 -11 1 -12 44 -4 99 -31 95 -47 -1 -7 2 -12 8 -12 5
0 10 6 10 13 0 6 5 4 11 -5 5 -10 15 -18 20 -18 6 0 7 4 4 10 -3 6 1 7 10 3
12 -4 13 -8 5 -13 -9 -5 -9 -9 -1 -14 6 -4 11 -2 11 3 0 6 4 11 10 11 5 0 7
-8 4 -17 -5 -15 -4 -15 5 -3 12 17 15 15 29 -25 9 -26 11 -27 11 -7 1 24 2 24
45 -15 8 -7 16 -10 19 -7 2 3 7 -3 11 -12 4 -12 2 -15 -9 -10 -22 8 -18 -2 6
-15 13 -7 19 -7 15 -1 -4 6 2 10 14 9 23 -1 25 -8 8 -26 -9 -9 -9 -12 -1 -7 6
3 13 0 16 -6 2 -7 8 -9 13 -5 5 4 2 13 -6 18 -8 6 -10 9 -3 7 17 -5 156 -128
144 -128 -16 0 -13 -17 3 -23 11 -4 13 -1 9 11 -3 10 5 6 22 -11 21 -22 24
-31 15 -42 -8 -10 -8 -15 1 -21 8 -4 9 -3 5 4 -10 16 27 10 48 -7 16 -13 23
-36 8 -27 -4 2 -8 -4 -8 -14 0 -14 4 -16 17 -9 14 7 22 2 38 -20 12 -16 18
-36 15 -44 -3 -8 -1 -18 5 -22 7 -3 8 0 5 9 -12 32 5 15 38 -36 40 -64 42 -69
31 -67 -20 3 -22 -2 -5 -19 9 -11 20 -17 25 -15 4 2 7 -4 7 -14 1 -17 1 -17
11 -1 7 13 2 30 -23 70 -18 29 -38 59 -45 66 -7 7 -13 16 -13 20 0 19 -156
190 -245 270 -88 78 -207 163 -285 202 -33 17 -62 30 -65 30 -3 -1 -13 6 -22
15 -8 9 -21 14 -29 11 -7 -3 -14 -1 -16 3 -5 13 -99 52 -109 45 -13 -7 -50 6
-44 16 6 10 -73 30 -93 23 -11 -5 -13 -3 -7 7 5 8 3 11 -6 8 -8 -3 -45 4 -84
14 -82 21 -234 33 -254 20z m1324 -782 c3 -5 1 -10 -4 -10 -6 0 -11 5 -11 10
0 6 2 10 4 10 3 0 8 -4 11 -10z"/>
<path d="M1590 3210 c8 -5 22 -9 30 -9 10 0 8 3 -5 9 -27 12 -43 12 -25 0z"/>
<path d="M1505 3200 c-3 -5 1 -10 10 -10 9 0 13 5 10 10 -3 6 -8 10 -10 10 -2
0 -7 -4 -10 -10z"/>
<path d="M1768 3183 c7 -3 16 -2 19 1 4 3 -2 6 -13 5 -11 0 -14 -3 -6 -6z"/>
<path d="M1124 3114 c-19 -15 -19 -15 1 -6 11 5 27 12 35 15 13 5 13 6 -1 6
-8 1 -24 -6 -35 -15z"/>
<path d="M2128 3103 c6 -2 18 -2 25 0 6 3 1 5 -13 5 -14 0 -19 -2 -12 -5z"/>
<path d="M859 3041 c-75 -41 -196 -119 -220 -141 -9 -8 -44 -40 -80 -70 -106
-92 -214 -213 -204 -230 3 -5 0 -8 -7 -5 -16 6 -68 -73 -61 -93 5 -12 7 -12
15 2 5 9 13 14 17 12 4 -3 8 1 8 9 0 8 -4 12 -9 9 -11 -7 -10 3 2 27 6 10 16
19 23 19 8 0 7 -4 -3 -10 -18 -11 -9 -23 12 -15 9 4 14 16 12 30 -3 32 71 117
84 96 7 -9 12 -10 16 -2 4 6 2 11 -3 11 -6 0 -11 5 -11 11 0 6 7 9 15 6 8 -4
17 -1 21 5 4 7 3 8 -4 4 -15 -9 -15 4 -2 24 9 13 11 13 20 0 8 -12 10 -11 8 5
-2 11 2 20 7 20 6 0 9 -3 7 -7 -1 -5 3 -8 9 -8 6 0 8 8 4 19 -4 14 7 30 46 64
28 25 57 43 64 41 15 -6 45 22 45 42 0 8 5 14 11 14 6 0 8 -9 4 -21 -6 -19 -5
-20 8 -8 8 8 13 22 11 32 -2 11 3 17 17 17 10 0 18 5 17 12 -2 6 6 14 17 16
11 2 25 9 30 16 15 19 38 24 60 14 20 -9 20 -9 1 6 -20 16 -20 16 0 18 10 0
32 0 48 -1 17 -2 26 1 22 8 -4 5 -14 7 -24 4 -13 -5 -14 -3 -6 6 9 10 17 10
32 2 15 -8 23 -8 28 1 4 7 3 8 -4 4 -7 -4 -12 -3 -12 2 0 22 -29 17 -91 -17z
m-185 -135 c-3 -8 -13 -17 -22 -21 -13 -5 -13 -2 3 15 21 24 26 25 19 6z"/>
<path d="M770 2966 c0 -2 7 -7 16 -10 8 -3 12 -2 9 4 -6 10 -25 14 -25 6z"/>
<path d="M754 2934 c-18 -14 -18 -15 4 -4 12 6 22 13 22 15 0 8 -5 6 -26 -11z"/>
<path d="M630 2849 c0 -5 5 -7 10 -4 6 3 10 8 10 11 0 2 -4 4 -10 4 -5 0 -10
-5 -10 -11z"/>
<path d="M2666 2795 c4 -8 11 -15 16 -15 6 0 5 6 -2 15 -7 8 -14 15 -16 15 -2
0 -1 -7 2 -15z"/>
<path d="M550 2779 c0 -5 5 -7 10 -4 6 3 10 8 10 11 0 2 -4 4 -10 4 -5 0 -10
-5 -10 -11z"/>
<path d="M1480 2740 c13 -9 13 -11 0 -20 -8 -5 -21 -10 -27 -10 -22 0 -52 -32
-45 -49 5 -13 3 -14 -9 -4 -13 10 -14 7 -11 -24 3 -23 1 -33 -6 -29 -6 3 -9
-7 -8 -26 1 -24 -5 -35 -22 -44 -17 -8 -20 -13 -10 -18 7 -3 -5 -3 -27 -1 -30
4 -35 3 -20 -4 19 -9 18 -10 -5 -11 -14 -1 -36 -2 -50 -1 l-25 0 26 -8 c15 -5
46 -5 70 0 24 4 48 8 52 9 12 0 39 70 33 86 -3 8 0 14 6 14 6 0 9 3 5 6 -10
10 31 82 53 94 15 8 29 5 62 -12 55 -27 158 -99 226 -156 32 -27 64 -45 82
-46 23 -2 27 1 20 14 -5 8 -18 16 -30 17 -19 2 -20 0 -8 -15 12 -15 11 -16 -5
-3 -13 10 -14 17 -7 27 9 9 7 11 -7 8 -12 -4 -35 9 -65 35 -25 23 -51 41 -58
41 -6 0 -8 5 -4 12 5 8 2 9 -9 5 -9 -3 -19 -2 -22 2 -9 15 27 22 44 9 10 -8 9
-4 -3 10 -11 12 -22 19 -25 14 -3 -4 -16 -9 -29 -9 -18 -2 -21 1 -13 11 15 17
1 29 -16 14 -11 -9 -16 -9 -22 1 -5 7 -26 19 -47 26 -21 8 -33 14 -25 15 11 0
11 3 1 15 -7 8 -18 15 -24 15 -6 0 -4 -5 4 -10z"/>
<path d="M1548 2713 c7 -3 16 -2 19 1 4 3 -2 6 -13 5 -11 0 -14 -3 -6 -6z"/>
<path d="M383 2595 c0 -8 4 -12 9 -9 4 3 8 9 8 15 0 5 -4 9 -8 9 -5 0 -9 -7
-9 -15z"/>
<path d="M2857 2588 c18 -20 26 -19 18 4 -3 8 -12 15 -20 15 -13 0 -12 -4 2
-19z"/>
<path d="M1745 2570 c3 -5 8 -10 11 -10 2 0 4 5 4 10 0 6 -5 10 -11 10 -5 0
-7 -4 -4 -10z"/>
<path d="M1200 2513 c0 -5 -16 -18 -35 -29 -36 -19 -42 -28 -25 -39 6 -3 10 1
10 9 0 9 5 16 11 16 5 0 7 -5 3 -12 -5 -7 -3 -8 5 -3 7 4 25 11 39 16 24 8 23
8 -8 4 l-35 -5 25 19 c14 11 21 23 17 27 -4 4 -7 3 -7 -3z"/>
<path d="M251 2471 c-12 -16 -21 -32 -21 -35 0 -2 -15 -31 -34 -63 -18 -32
-44 -83 -56 -113 -12 -30 -29 -69 -36 -86 -19 -43 -63 -211 -57 -217 2 -3 -1
-15 -7 -27 -6 -12 -14 -40 -16 -63 -2 -23 -7 -66 -11 -96 -5 -43 -3 -53 8 -49
9 3 15 22 16 49 6 107 10 135 22 157 6 12 9 26 7 31 -3 5 -3 23 0 41 5 23 9
28 16 18 6 -9 8 -6 7 12 -4 47 1 80 11 80 6 0 11 -10 11 -22 1 -18 2 -19 6 -5
3 10 0 24 -6 31 -12 14 15 96 31 96 5 0 6 -5 2 -12 -5 -7 -3 -8 5 -3 9 5 10
10 2 18 -14 14 -14 30 -1 22 6 -3 7 1 4 10 -4 8 -1 21 5 29 6 7 8 16 4 20 -4
4 0 4 10 0 10 -3 17 -1 17 5 0 6 -5 11 -11 11 -6 0 -1 13 10 29 12 16 21 35
21 42 0 7 3 9 6 6 4 -4 14 8 23 26 10 20 23 31 35 30 13 -1 15 2 7 10 -14 14
-15 30 -1 22 6 -3 7 1 4 9 -8 21 -9 21 -33 -13z"/>
<path d="M1813 2457 c-10 -16 -37 -35 -168 -118 -120 -75 -110 -68 -102 -75 3
-3 19 4 36 17 17 12 34 20 37 16 4 -3 -5 -12 -20 -18 -14 -7 -26 -15 -26 -19
0 -4 -9 -10 -20 -13 -11 -3 -20 -1 -20 4 0 6 -7 6 -17 0 -21 -11 -63 -45 -46
-36 7 3 21 2 30 -3 13 -8 26 -3 52 16 20 15 38 30 39 35 2 4 8 7 12 7 5 0 38
20 72 45 90 65 167 115 177 115 4 0 16 -9 26 -20 10 -11 24 -20 32 -20 8 0 12
-4 8 -9 -3 -6 0 -13 7 -18 18 -11 107 -118 142 -171 35 -51 42 -57 49 -37 4 9
1 12 -8 9 -9 -4 -13 1 -12 15 1 15 6 20 16 16 9 -3 12 -2 7 2 -4 4 -18 8 -29
8 -18 0 -22 6 -22 31 0 33 -31 78 -49 71 -6 -3 -20 7 -30 21 -18 23 -18 25 -2
19 11 -4 15 -3 11 4 -4 6 -14 8 -22 5 -8 -3 -21 1 -30 10 -20 20 -9 31 13 13
16 -13 16 -12 5 9 -12 22 -31 30 -31 13 0 -14 -38 -1 -44 15 -3 8 -1 14 3 14
5 0 11 -5 13 -12 3 -8 7 -6 11 4 5 13 0 16 -24 13 -18 -3 -27 0 -24 6 4 6 -4
8 -20 5 -22 -4 -25 -3 -15 10 8 9 9 14 2 14 -6 0 -15 -6 -19 -13z m-38 -55
c-25 -22 -143 -102 -151 -102 -11 0 48 49 59 50 4 0 26 14 49 30 38 28 64 41
43 22z m265 -122 c11 -11 20 -22 20 -25 0 -10 -22 -5 -36 9 -14 14 -19 36 -9
36 3 0 14 -9 25 -20z m-510 -48 c0 -15 -11 -21 -27 -15 -12 5 -12 7 -1 14 17
11 28 11 28 1z"/>
<path d="M1065 2440 c-3 -5 -4 -10 0 -10 3 0 1 -9 -5 -20 -6 -11 -15 -18 -20
-15 -4 3 -17 -6 -28 -20 -11 -13 -21 -22 -24 -20 -2 2 -17 0 -34 -4 -24 -8
-25 -9 -6 -10 23 -1 30 -15 12 -26 -5 -3 -10 -2 -10 2 0 5 -9 9 -20 9 -12 0
-19 -5 -16 -13 6 -14 -10 -28 -17 -16 -2 5 -2 3 -1 -4 4 -15 -22 -67 -41 -83
-8 -7 -15 -19 -15 -27 0 -8 -4 -12 -9 -8 -5 3 -12 1 -16 -5 -3 -5 -2 -10 3
-10 6 0 5 -10 -1 -24 -7 -13 -15 -22 -20 -19 -4 2 -7 1 -6 -4 3 -17 -1 -33 -9
-33 -10 0 -9 36 1 46 4 4 7 12 7 18 0 5 -6 1 -14 -9 -8 -11 -12 -23 -10 -27 3
-5 0 -8 -7 -8 -9 0 -9 -3 0 -14 14 -17 4 -47 -14 -40 -7 3 -16 1 -20 -5 -3 -7
0 -8 9 -5 9 3 16 2 16 -4 0 -5 -7 -12 -15 -16 -16 -6 -21 -36 -6 -36 5 0 32
40 60 90 80 138 190 268 280 330 19 13 29 26 23 28 -7 2 -10 8 -6 13 3 5 1 9
-5 9 -5 0 -13 -4 -16 -10z m-142 -163 c-15 -19 -30 -33 -32 -31 -5 5 43 63 52
63 5 1 -4 -14 -20 -32z"/>
<path d="M2600 2419 c0 -5 -4 -7 -10 -4 -5 3 -10 1 -10 -4 0 -6 5 -11 10 -11
15 0 -22 -49 -37 -50 -6 0 -13 4 -15 9 -1 4 -16 -5 -33 -21 -18 -17 -23 -26
-12 -22 29 10 19 -4 -14 -22 -17 -8 -45 -17 -63 -19 -30 -4 -30 -4 -11 12 18
14 18 15 2 9 -10 -3 -23 -6 -28 -6 -5 0 -9 -7 -9 -16 0 -24 85 -13 132 17 40
26 45 35 26 42 -7 2 -4 3 6 1 11 -2 36 11 58 31 22 21 44 32 53 29 16 -6 21
-30 7 -36 -4 -1 -22 -41 -41 -88 -18 -47 -35 -91 -38 -97 -3 -7 0 -13 5 -13 6
0 14 16 18 35 3 19 11 38 17 42 6 4 8 -2 5 -15 -4 -12 -2 -20 3 -16 5 3 9 0 9
-7 0 -7 2 -10 5 -8 2 3 0 21 -6 40 -10 30 -7 42 17 92 l27 58 -21 22 c-12 12
-22 16 -22 9 0 -6 -7 -12 -16 -12 -14 0 -14 3 -4 15 9 10 9 15 1 15 -6 0 -11
-5 -11 -11z"/>
<path d="M2668 2412 c9 -10 19 -17 21 -16 6 5 -20 34 -30 34 -5 0 -1 -8 9 -18z"/>
<path d="M3017 2390 c-4 -16 -2 -20 8 -16 11 4 12 0 5 -20 -12 -31 -13 -44 -1
-25 7 11 10 9 16 -8 3 -12 11 -19 16 -16 5 4 9 3 10 -2 0 -4 2 -23 3 -41 3
-27 1 -31 -11 -21 -12 11 -12 9 -2 -15 l13 -27 13 28 13 28 -4 -27 c-2 -17 1
-25 7 -21 6 4 8 -4 5 -20 -3 -17 -1 -24 8 -20 7 2 14 -1 17 -9 2 -7 2 -2 0 12
-5 27 -89 220 -102 233 -5 5 -11 -1 -14 -13z m43 -65 c0 -5 -5 -3 -10 5 -5 8
-10 20 -10 25 0 6 5 3 10 -5 5 -8 10 -19 10 -25z"/>
<path d="M975 2380 c-3 -5 -1 -10 4 -10 6 0 11 5 11 10 0 6 -2 10 -4 10 -3 0
-8 -4 -11 -10z"/>
<path d="M2188 2363 c6 -2 12 -12 12 -20 0 -9 3 -14 6 -10 4 3 37 -9 75 -28
75 -38 79 -39 79 -26 0 5 -16 15 -36 21 -27 9 -33 15 -23 21 8 5 11 9 7 9 -3
0 -14 3 -24 7 -12 4 -15 3 -10 -5 9 -14 -3 -15 -24 -2 -13 9 -13 10 0 10 13 0
13 1 0 10 -9 5 -17 5 -21 -1 -3 -6 -11 -4 -19 6 -7 8 -18 15 -24 14 -7 0 -6
-2 2 -6z"/>
<path d="M201 2331 c-6 -11 -7 -22 -2 -25 5 -3 11 4 14 16 8 30 1 35 -12 9z"/>
<path d="M2181 2334 c0 -11 3 -14 6 -6 3 7 2 16 -1 19 -3 4 -6 -2 -5 -13z"/>
<path d="M2671 2334 c0 -11 3 -14 6 -6 3 7 2 16 -1 19 -3 4 -6 -2 -5 -13z"/>
<path d="M2184 2295 c-4 -8 -11 -12 -17 -8 -6 3 -7 1 -3 -6 6 -9 11 -9 21 -1
18 15 31 -25 14 -46 -6 -8 -9 -17 -5 -21 3 -3 6 0 6 7 0 12 2 12 13 1 9 -11 9
-14 0 -18 -10 -3 -9 -12 3 -35 8 -16 18 -27 22 -24 3 4 0 12 -6 18 -7 7 -12
18 -12 26 0 18 19 -2 39 -40 8 -16 16 -26 18 -24 5 5 -30 80 -40 84 -4 2 -5 8
-2 12 5 8 -33 90 -41 90 -3 0 -7 -7 -10 -15z m46 -65 c0 -5 -2 -10 -4 -10 -3
0 -8 5 -11 10 -3 6 -1 10 4 10 6 0 11 -4 11 -10z"/>
<path d="M2635 2250 c3 -5 8 -10 11 -10 2 0 4 5 4 10 0 6 -5 10 -11 10 -5 0
-7 -4 -4 -10z"/>
<path d="M845 2239 c-11 -16 -1 -19 13 -3 7 8 8 14 3 14 -5 0 -13 -5 -16 -11z"/>
<path d="M2070 2219 c0 -5 5 -7 10 -4 6 3 10 8 10 11 0 2 -4 4 -10 4 -5 0 -10
-5 -10 -11z"/>
<path d="M1407 2180 c-20 -20 -22 -8 48 -274 25 -94 34 -116 42 -102 9 16 11
16 16 3 4 -10 -1 -18 -14 -22 -10 -4 -19 -12 -19 -20 0 -7 -3 -21 -6 -29 -4
-12 -2 -15 9 -10 9 3 13 14 11 27 -2 12 -2 16 2 10 3 -7 12 -13 20 -13 8 0 14
-5 14 -11 0 -5 -6 -7 -12 -3 -10 6 -10 4 0 -7 15 -16 16 -33 1 -23 -8 4 -8 0
0 -15 7 -11 19 -20 29 -20 16 1 16 2 0 6 -10 2 -18 9 -18 14 0 6 5 7 11 3 7
-4 9 0 6 12 -3 11 -13 48 -22 83 -16 68 -25 87 -25 56 0 -33 -17 -2 -23 40
l-5 40 14 -30 14 -30 -6 40 c-3 22 -12 58 -19 80 -7 22 -16 57 -20 78 -6 29
-10 35 -20 27 -17 -14 -30 20 -20 51 6 16 4 20 -6 14 -8 -5 -5 1 6 12 27 27
37 19 19 -15 -17 -32 -18 -42 -4 -42 6 0 9 3 9 8 -4 26 5 43 34 61 17 11 27
21 20 21 -6 0 -15 -4 -18 -10 -3 -5 -11 -10 -16 -10 -6 0 -8 4 -5 8 10 16 -30
9 -47 -8z m38 -130 c3 -5 1 -10 -4 -10 -6 0 -11 5 -11 10 0 6 2 10 4 10 3 0 8
-4 11 -10z m10 -60 c4 -17 11 -30 15 -30 5 0 7 -7 3 -16 -4 -11 -12 -2 -25 32
-21 57 -21 57 -9 49 5 -3 12 -19 16 -35z"/>
<path d="M2597 2164 c-10 -14 -23 -21 -29 -18 -7 5 -9 1 -5 -9 3 -10 3 -17 -2
-17 -11 0 -31 -95 -30 -148 0 -35 3 -42 9 -27 4 11 6 29 4 40 -7 31 28 130 58
164 15 17 24 32 20 35 -4 2 -15 -7 -25 -20z"/>
<path d="M126 2165 c-9 -26 -7 -32 5 -12 6 10 9 21 6 23 -2 3 -7 -2 -11 -11z"/>
<path d="M2130 2132 c0 -7 -4 -10 -10 -7 -15 9 -12 -1 9 -35 15 -25 20 -28 25
-15 4 11 2 14 -6 9 -7 -5 -9 0 -6 13 3 12 2 27 -3 34 -7 11 -9 11 -9 1z"/>
<path d="M2251 2114 c0 -11 3 -14 6 -6 3 7 2 16 -1 19 -3 4 -6 -2 -5 -13z"/>
<path d="M2595 2119 c-4 -6 -5 -12 -2 -15 2 -3 7 2 10 11 7 17 1 20 -8 4z"/>
<path d="M3134 2115 c21 -22 30 -78 16 -105 -6 -12 -9 -24 -7 -27 3 -2 8 5 12
17 5 17 10 19 21 9 14 -11 20 1 7 15 -4 3 -8 13 -9 21 -6 40 -27 85 -40 85
-14 0 -14 -2 0 -15z"/>
<path d="M2274 2076 c0 -19 4 -33 8 -30 4 3 6 -14 4 -38 -2 -24 -1 -31 1 -15
3 16 9 25 15 21 12 -7 7 22 -12 71 -13 33 -16 32 -16 -9z"/>
<path d="M3110 2100 c0 -5 5 -10 10 -10 6 0 10 5 10 10 0 6 -4 10 -10 10 -5 0
-10 -4 -10 -10z"/>
<path d="M1893 2088 c2 -7 13 -12 25 -11 11 1 23 -4 26 -12 3 -8 1 -15 -4 -15
-6 0 -10 4 -10 9 0 15 -49 -1 -53 -18 -2 -9 -3 -4 -2 11 1 22 -1 25 -12 17
-18 -16 -16 -32 7 -57 13 -13 26 -19 37 -15 11 5 14 3 8 -6 -4 -8 3 -6 18 4
32 20 40 41 27 65 -17 32 -77 56 -67 28z m41 -44 c12 -5 13 -10 5 -25 -10 -19
-29 -18 -29 2 0 6 6 7 13 3 8 -5 8 -2 -2 9 -14 18 -12 20 13 11z m-34 -34 c0
-5 -2 -10 -4 -10 -3 0 -8 5 -11 10 -3 6 -1 10 4 10 6 0 11 -4 11 -10z"/>
<path d="M3130 2073 c0 -4 5 -15 10 -23 8 -13 10 -13 10 2 0 9 -4 20 -10 23
-5 3 -10 3 -10 -2z"/>
<path d="M2151 2049 c-1 -4 6 -23 14 -42 8 -20 15 -62 15 -92 0 -40 5 -61 17
-73 16 -16 16 -16 10 1 -18 45 -17 50 3 22 19 -26 21 -27 15 -6 -5 16 -4 21 4
17 7 -5 8 -1 4 9 -4 12 -8 13 -13 5 -5 -8 -11 0 -18 21 -19 64 -23 91 -12 84
16 -10 12 19 -6 41 -8 10 -13 13 -9 7 3 -7 2 -13 -4 -13 -5 0 -12 6 -14 13 -3
6 -6 9 -6 6z"/>
<path d="M2561 2026 c-10 -11 -10 -19 -1 -33 11 -17 11 -17 5 1 -3 11 0 23 7
27 7 4 10 11 7 14 -4 3 -12 -1 -18 -9z"/>
<path d="M2310 1995 c-7 -25 -5 -123 2 -119 4 3 8 -4 8 -15 0 -11 -5 -23 -10
-26 -6 -4 -10 -16 -9 -28 4 -47 -4 -60 -11 -17 -7 43 -7 42 -8 -22 -2 -63 -14
-94 -25 -66 -4 10 -6 10 -6 0 -1 -7 -5 -11 -9 -8 -5 3 -8 -7 -7 -23 1 -26 -1
-28 -34 -25 -24 2 -31 0 -21 -7 13 -7 13 -9 0 -10 -8 -1 -19 -1 -23 0 -5 1 -6
-3 -2 -8 3 -6 13 -8 23 -5 14 5 15 4 2 -5 -8 -5 -24 -8 -36 -5 -12 3 -26 -1
-33 -10 -15 -18 -36 -22 -25 -4 4 7 3 8 -4 4 -18 -11 -14 -23 10 -29 26 -7
108 35 150 77 45 45 80 123 85 191 4 53 -10 185 -17 160z m-59 -328 c-10 -9
-11 -8 -5 6 3 10 9 15 12 12 3 -3 0 -11 -7 -18z m-117 -82 c-25 -19 -40 -19
-24 0 7 8 20 15 28 15 13 0 12 -3 -4 -15z"/>
<path d="M3160 1958 c0 -36 4 -35 14 5 4 16 2 27 -4 27 -5 0 -10 -14 -10 -32z"/>
<path d="M715 1962 c-6 -4 -16 -15 -24 -25 -12 -15 -12 -17 4 -11 15 6 16 5 4
-14 -10 -16 -16 -18 -22 -9 -5 7 -5 2 -1 -13 6 -21 5 -23 -7 -13 -12 10 -15 7
-17 -15 -1 -21 0 -24 8 -12 9 13 10 13 10 0 0 -9 -5 -21 -12 -28 -6 -6 -9 -14
-5 -18 8 -8 68 126 62 136 -3 5 1 10 7 13 7 2 11 7 8 10 -3 3 -10 3 -15 -1z"/>
<path d="M3193 1888 c4 -46 8 -93 8 -105 -1 -14 5 -23 14 -23 8 0 15 9 15 20
0 11 -5 20 -10 20 -6 0 -10 18 -9 43 3 48 -9 127 -20 127 -4 0 -3 -37 2 -82z"/>
<path d="M2217 1941 c-4 -17 -3 -21 5 -13 5 5 8 16 6 23 -3 8 -7 3 -11 -10z"/>
<path d="M2547 1929 c-22 -25 -16 -35 12 -20 28 15 70 -5 78 -38 8 -30 -11
-147 -38 -239 -11 -37 -20 -77 -20 -90 1 -15 -3 -21 -10 -16 -7 4 -10 1 -7 -6
15 -47 59 39 50 99 -4 27 -2 32 9 26 8 -5 11 -5 8 -1 -4 4 2 44 12 89 22 97
23 116 7 154 -6 15 -10 32 -9 37 1 5 -6 5 -15 2 -10 -4 -21 -1 -25 6 -6 9 -12
8 -25 -3 -16 -12 -17 -12 -11 4 8 22 5 22 -16 -4z m54 -360 c-5 -13 -10 -19
-10 -12 -1 15 10 45 15 40 3 -2 0 -15 -5 -28z"/>
<path d="M66 1908 c-3 -13 -5 -36 -5 -53 1 -21 4 -15 10 20 8 52 6 72 -5 33z"/>
<path d="M3171 1864 c0 -11 3 -14 6 -6 3 7 2 16 -1 19 -3 4 -6 -2 -5 -13z"/>
<path d="M1978 1792 c23 -22 54 -60 67 -84 14 -24 25 -37 25 -30 0 20 -38 89
-52 96 -14 6 58 -3 80 -10 7 -2 10 -8 7 -14 -3 -5 -1 -10 4 -10 6 0 11 4 11 9
0 5 10 7 23 4 19 -4 20 -3 5 7 -19 12 -102 32 -135 32 -13 0 -20 4 -17 9 3 5
2 8 -3 7 -4 -1 -19 4 -33 12 -16 8 -10 -1 18 -28z"/>
<path d="M2165 1800 c-10 -20 -12 -30 -4 -30 6 0 13 9 16 20 3 11 9 17 14 14
5 -3 6 2 3 10 -8 22 -11 20 -29 -14z"/>
<path d="M2661 1768 c0 -28 2 -30 9 -13 12 28 12 45 0 45 -5 0 -10 -15 -9 -32z"/>
<path d="M3181 1784 c0 -11 3 -14 6 -6 3 7 2 16 -1 19 -3 4 -6 -2 -5 -13z"/>
<path d="M645 1780 c3 -5 8 -10 11 -10 2 0 4 5 4 10 0 6 -5 10 -11 10 -5 0 -7
-4 -4 -10z"/>
<path d="M2182 1770 c-8 -13 -8 -20 -2 -20 6 0 13 7 17 15 9 24 -1 27 -15 5z"/>
<path d="M626 1725 c-4 -19 -13 -38 -21 -42 -10 -6 -12 -16 -7 -35 6 -23 9
-19 28 43 12 38 18 69 14 69 -4 0 -11 -16 -14 -35z"/>
<path d="M2076 1734 c-8 -20 0 -32 14 -18 5 5 5 15 1 22 -6 11 -10 10 -15 -4z"/>
<path d="M3220 1734 c0 -8 -3 -13 -7 -11 -5 3 -8 -10 -9 -29 -1 -49 17 -37 21
14 2 23 1 42 -1 42 -2 0 -4 -7 -4 -16z"/>
<path d="M1203 1733 c-18 -2 -33 -8 -33 -14 0 -11 1 -11 70 0 30 5 89 5 130 1
47 -4 79 -3 85 3 7 7 6 8 -2 3 -7 -4 -13 -2 -13 3 0 11 -163 13 -237 4z"/>
<path d="M1120 1711 c0 -10 30 -24 37 -17 3 3 2 9 -2 15 -8 13 -35 15 -35 2z"/>
<path d="M10 1696 c0 -8 5 -18 10 -21 6 -3 10 3 10 14 0 12 -4 21 -10 21 -5 0
-10 -6 -10 -14z"/>
<path d="M1053 1687 c-61 -32 -109 -80 -138 -137 -21 -42 -24 -56 -16 -83 l10
-32 -1 30 c-2 42 23 109 34 92 7 -9 8 -8 7 3 -2 25 1 44 7 38 3 -4 19 8 36 25
16 18 51 44 76 59 56 33 45 37 -15 5z"/>
<path d="M1448 1683 c7 -3 16 -2 19 1 4 3 -2 6 -13 5 -11 0 -14 -3 -6 -6z"/>
<path d="M1582 1673 c-11 -12 -10 -13 10 -8 13 3 36 1 52 -4 17 -7 34 -8 44
-2 13 7 12 9 -8 9 -14 0 -39 4 -55 9 -23 8 -33 7 -43 -4z"/>
<path d="M1118 1673 c7 -3 16 -2 19 1 4 3 -2 6 -13 5 -11 0 -14 -3 -6 -6z"/>
<path d="M1514 1652 c13 -21 -11 -29 -64 -20 -94 15 -170 18 -170 8 0 -6 17
-11 38 -11 80 -3 162 -14 262 -35 36 -8 68 -14 72 -14 3 0 9 -13 13 -30 4 -19
13 -30 23 -30 15 0 15 -2 2 -11 -11 -8 -9 -9 10 -3 26 7 43 25 33 34 -3 3 -8
-1 -10 -7 -7 -20 -23 -15 -17 5 5 13 4 14 -4 3 -6 -8 -12 -9 -16 -3 -3 6 -2
13 4 17 6 4 8 11 4 16 -3 5 -10 7 -15 4 -5 -4 -9 -1 -9 4 0 6 -9 11 -20 11
-13 0 -18 5 -14 15 4 8 16 15 28 14 20 0 20 -1 2 -8 -19 -7 -19 -8 2 -13 12
-4 20 -2 16 3 -3 5 8 9 24 9 16 0 32 3 36 8 4 4 60 8 124 9 64 1 125 4 134 6
43 8 17 12 -100 14 -70 1 -142 5 -161 9 -22 4 -32 3 -27 -4 3 -5 16 -8 29 -5
21 4 22 4 3 -11 -22 -18 -57 -21 -71 -7 -12 11 -55 -4 -55 -19 0 -5 -10 -10
-22 -9 -22 0 -22 1 -3 10 16 8 15 8 -8 4 -56 -11 -90 16 -44 35 21 8 21 9 -6
9 -16 1 -26 -3 -23 -7z"/>
<path d="M1595 1651 c-3 -5 0 -13 6 -17 7 -4 9 -3 5 4 -3 5 0 13 6 15 9 4 10
6 1 6 -6 1 -14 -3 -18 -8z"/>
<path d="M2040 1645 c0 -8 2 -15 4 -15 2 0 6 7 10 15 3 8 1 15 -4 15 -6 0 -10
-7 -10 -15z"/>
<path d="M581 1623 c-1 -17 -7 -33 -13 -36 -10 -4 -10 -7 0 -18 15 -16 16 -33
0 -23 -8 5 -9 2 -5 -9 3 -9 1 -44 -5 -77 -7 -43 -7 -64 1 -73 8 -10 7 -17 -2
-26 -9 -10 -8 -11 5 -6 9 4 25 1 35 -5 16 -10 16 -11 -4 -7 -13 3 -23 1 -23
-4 0 -12 43 -12 56 1 18 18 33 -5 39 -60 5 -40 4 -51 -4 -40 -8 12 -11 6 -11
-24 0 -31 3 -37 12 -28 6 6 13 49 15 96 l4 84 -28 -7 c-34 -10 -70 5 -79 32
-3 10 -2 49 2 86 5 36 7 75 6 85 -1 11 2 22 7 26 7 4 7 17 2 35 l-9 30 -1 -32z"/>
<path d="M1228 1643 c-41 -6 -34 -20 7 -15 19 2 35 8 35 13 0 5 -3 8 -7 8 -5
-1 -20 -4 -35 -6z"/>
<path d="M1125 1632 c4 -7 1 -19 -5 -27 -10 -12 -9 -16 4 -21 10 -4 26 3 43
20 25 26 22 35 -6 17 -10 -7 -19 -4 -29 7 -7 9 -11 11 -7 4z"/>
<path d="M3213 1595 c0 -22 2 -30 4 -17 2 12 2 30 0 40 -3 9 -5 -1 -4 -23z"/>
<path d="M990 1605 c-7 -8 -8 -15 -2 -15 5 0 15 7 22 15 7 8 8 15 2 15 -5 0
-15 -7 -22 -15z"/>
<path d="M10 1601 c0 -6 4 -13 10 -16 6 -3 7 1 4 9 -7 18 -14 21 -14 7z"/>
<path d="M1758 1578 c6 -6 18 -8 28 -6 14 3 12 5 -9 10 -19 3 -25 2 -19 -4z"/>
<path d="M1123 1557 c-4 -6 -1 -7 7 -2 9 5 11 1 6 -16 l-6 -24 11 23 c12 22
12 22 36 -12 26 -39 30 -54 9 -37 -8 6 -18 11 -22 10 -24 -4 -52 14 -47 29 4
10 3 14 -2 10 -4 -4 -15 -2 -24 4 -13 10 -14 10 -3 -2 6 -8 12 -22 12 -31 0
-10 8 -18 18 -18 27 0 57 -5 62 -12 10 -13 49 -19 55 -9 3 5 2 10 -3 10 -5 0
-23 20 -40 43 -30 42 -56 55 -69 34z"/>
<path d="M1818 1563 c7 -3 16 -2 19 1 4 3 -2 6 -13 5 -11 0 -14 -3 -6 -6z"/>
<path d="M1997 1559 c-11 -6 -32 -9 -47 -7 -17 3 -26 0 -23 -5 3 -6 -31 -7
-88 -4 -78 5 -86 4 -49 -4 45 -10 213 -5 258 7 18 5 20 9 10 15 -18 12 -39 11
-61 -2z"/>
<path d="M10 1496 c0 -30 5 -58 11 -61 5 -4 8 -21 5 -38 -5 -25 -4 -27 3 -12
12 24 14 69 4 79 -4 4 -6 22 -5 41 2 18 -1 36 -7 40 -7 4 -11 -12 -11 -49z"/>
<path d="M3201 1515 c-12 -35 -8 -60 10 -50 5 4 9 -1 9 -9 0 -9 -4 -16 -9 -16
-5 0 -9 -10 -10 -22 -1 -41 -13 -103 -22 -114 -5 -6 -7 -26 -5 -43 2 -23 0
-29 -7 -22 -14 14 -27 14 -27 0 0 -5 4 -8 8 -5 11 6 12 -55 2 -69 -7 -9 -22
-68 -21 -80 0 -3 -8 -21 -19 -40 -11 -20 -20 -42 -20 -50 0 -9 -6 -12 -17 -9
-14 5 -15 4 -4 -4 11 -8 11 -13 0 -33 -13 -24 -16 -30 -18 -50 -1 -8 -5 -8
-14 0 -13 10 -18 5 -45 -51 -10 -22 9 -4 22 20 13 22 15 24 15 7 0 -25 -20
-53 -35 -48 -13 4 -39 -51 -31 -64 3 -5 -8 -18 -24 -28 -27 -18 -43 -45 -18
-29 7 4 10 1 7 -7 -3 -8 -9 -14 -14 -14 -20 0 -31 -16 -31 -41 l0 -27 18 24
c98 125 234 390 264 515 3 10 12 44 20 74 47 169 61 408 16 285z m14 -25 c3
-5 1 -10 -4 -10 -6 0 -11 5 -11 10 0 6 2 10 4 10 3 0 8 -4 11 -10z m-28 -212
c-3 -8 -6 -5 -6 6 -1 11 2 17 5 13 3 -3 4 -12 1 -19z m-200 -492 c-7 -14 -13
-23 -15 -21 -7 6 9 45 18 45 4 0 3 -11 -3 -24z m-84 -121 c-3 -9 -8 -14 -10
-11 -3 3 -2 9 2 15 9 16 15 13 8 -4z"/>
<path d="M39 1502 c-3 -20 -2 -29 4 -23 5 5 7 19 5 32 -3 20 -5 19 -9 -9z"/>
<path d="M1150 1520 c0 -5 5 -10 11 -10 5 0 7 5 4 10 -3 6 -8 10 -11 10 -2 0
-4 -4 -4 -10z"/>
<path d="M1037 1491 c-9 -16 -17 -37 -18 -48 0 -16 -1 -16 -9 2 -12 27 -12 2
-1 -28 9 -22 7 -24 -12 -21 -12 2 -16 2 -9 -2 6 -3 12 -19 12 -34 0 -16 5 -41
12 -55 9 -21 9 -28 -1 -34 -9 -6 -10 -11 -3 -15 6 -4 8 -14 5 -24 -5 -14 -3
-14 9 2 12 15 17 16 23 6 5 -8 4 -11 -2 -7 -11 7 -27 -33 -18 -42 3 -2 5 1 5
8 0 22 20 1 21 -22 0 -20 1 -20 8 -4 6 17 8 16 19 -9 8 -15 9 -30 4 -33 -5 -3
-1 -15 9 -25 14 -15 19 -16 19 -5 0 12 2 12 9 0 6 -9 6 -22 0 -33 -5 -10 -6
-18 -2 -17 4 1 17 1 28 0 16 -1 17 -3 5 -10 -8 -6 -18 -7 -24 -4 -15 10 5 -19
38 -54 16 -18 33 -30 38 -27 4 3 11 -2 14 -11 4 -8 12 -14 19 -13 8 2 14 0 14
-4 2 -13 94 -99 100 -93 4 4 -46 61 -129 145 -3 3 -20 24 -39 48 -18 23 -37
39 -43 36 -6 -4 -8 -1 -6 7 7 18 -10 51 -22 44 -5 -3 -11 -1 -15 5 -3 5 -2 10
3 10 4 0 -6 30 -24 68 -18 37 -33 75 -34 85 0 9 -4 17 -8 17 -13 0 -1 143 14
173 8 15 21 27 30 27 8 0 12 5 9 10 -11 18 -30 10 -48 -19z m-20 -163 c-3 -8
-6 -5 -6 6 -1 11 2 17 5 13 3 -3 4 -12 1 -19z m151 -307 c-2 -5 1 -9 6 -9 11
0 26 -23 26 -42 0 -9 -12 -1 -30 18 -34 38 -36 42 -15 42 8 0 14 -4 13 -9z"/>
<path d="M2596 1493 c-6 -14 -5 -15 5 -6 7 7 10 15 7 18 -3 3 -9 -2 -12 -12z"/>
<path d="M1710 1490 c0 -5 5 -10 10 -10 6 0 10 5 10 10 0 6 -4 10 -10 10 -5 0
-10 -4 -10 -10z"/>
<path d="M1684 1474 c3 -9 6 -21 6 -27 0 -8 4 -7 9 2 5 7 14 10 20 7 16 -10
13 -26 -5 -26 -12 0 -15 -6 -10 -26 4 -15 10 -39 13 -55 3 -16 10 -29 15 -29
5 0 7 -4 4 -9 -8 -13 26 -151 37 -151 4 0 6 8 3 18 -10 34 -18 92 -13 92 12 0
27 -104 17 -114 -15 -15 -12 -27 7 -24 10 2 19 -4 21 -14 2 -11 -3 -18 -12
-18 -9 0 -16 -5 -16 -11 0 -5 -5 -7 -10 -4 -8 5 -7 12 2 23 10 12 6 12 -19 -3
-18 -10 -30 -22 -27 -27 3 -4 0 -8 -5 -8 -6 0 -31 -13 -56 -28 -30 -19 -42
-31 -35 -38 6 -6 -9 -22 -45 -46 -30 -20 -55 -33 -55 -30 0 8 58 48 83 58 14
5 15 9 6 15 -8 4 -28 -5 -53 -25 -23 -17 -67 -49 -99 -70 -32 -21 -55 -41 -53
-44 3 -3 14 1 23 9 16 13 17 12 5 -3 -8 -10 -24 -16 -35 -15 -18 2 -21 -3 -19
-23 3 -24 2 -24 -13 -5 -16 20 -16 20 -6 -1 6 -12 7 -25 3 -29 -4 -5 -1 -5 6
-1 7 4 12 1 12 -8 0 -8 -3 -16 -7 -19 -5 -2 -3 -3 3 -1 6 1 24 -9 40 -22 28
-24 28 -25 4 -18 -24 6 -24 6 -5 -12 13 -13 20 -15 23 -6 2 6 8 12 14 12 6 0
8 -7 5 -14 -4 -11 -1 -13 10 -9 11 4 14 2 9 -5 -4 -8 -2 -10 8 -6 9 3 17 -2
21 -15 3 -12 11 -19 16 -16 5 4 14 3 20 -1 8 -4 7 -9 -2 -15 -11 -7 -11 -9 -1
-9 8 0 10 -5 6 -12 -6 -10 -4 -10 8 0 14 11 21 11 46 -2 15 -8 34 -22 41 -30
8 -9 21 -16 30 -16 10 0 26 -7 37 -15 10 -8 26 -15 34 -15 19 0 -15 24 -48 34
-48 15 -285 187 -304 220 -4 6 -4 17 0 23 4 5 90 65 192 131 239 156 233 151
225 176 -3 12 -8 32 -11 46 -3 14 -12 51 -21 83 -13 49 -17 55 -28 41 -10 -14
-12 -9 -12 32 -1 37 2 44 8 29 8 -17 8 -16 3 5 -3 14 -6 31 -6 38 -1 7 -9 10
-22 7 -20 -6 -20 -5 -3 9 24 19 15 47 -19 63 -22 10 -25 10 -20 -3z m79 -390
c8 -8 -69 -59 -104 -69 -23 -7 -24 -7 -4 9 11 8 26 16 33 16 6 0 12 4 12 9 0
5 11 12 25 15 14 4 23 11 20 16 -7 11 8 14 18 4z m-277 -189 c-11 -8 -24 -15
-30 -15 -5 0 -1 7 10 15 10 8 24 14 29 14 6 0 1 -6 -9 -14z"/>
<path d="M2541 1453 c-42 -116 -181 -373 -214 -394 -5 -4 -6 -12 -3 -18 4 -6
4 -10 -1 -9 -12 4 -84 -78 -75 -86 4 -4 2 -6 -5 -4 -6 1 -32 -14 -58 -36 -82
-68 -176 -110 -280 -126 -60 -9 -86 -27 -84 -59 0 -14 1 -14 6 -1 8 19 43 50
58 50 6 0 16 -5 23 -12 9 -9 12 -9 12 1 0 10 9 12 33 7 23 -4 28 -3 17 4 -11
7 1 9 40 6 36 -3 48 -1 35 4 -20 9 -8 14 25 11 13 -2 13 -1 1 8 -12 8 -9 12
15 23 16 7 33 18 37 25 10 17 31 17 21 1 -5 -9 -3 -9 9 1 9 7 14 18 11 23 -4
6 3 8 17 4 13 -3 18 -3 11 0 -17 8 -5 24 13 17 11 -4 13 -1 8 13 -5 13 -3 15
7 9 8 -5 11 -4 7 2 -4 6 7 13 26 17 18 3 38 16 46 29 14 22 14 22 -8 3 -33
-30 -32 -15 1 24 17 19 28 30 24 23 -3 -6 -2 -14 3 -17 9 -6 24 30 22 52 -1 6
3 12 9 12 20 0 49 44 44 65 l-5 20 16 -20 c16 -19 16 -19 10 8 -5 17 -3 27 4
27 6 0 10 3 9 8 0 4 5 21 13 38 9 20 20 30 32 28 15 -2 16 0 6 12 -10 12 -9
22 6 47 10 18 26 38 34 45 9 8 10 11 4 7 -15 -7 -18 21 -4 30 5 3 12 18 16 34
8 36 35 63 35 36 0 -10 2 -16 5 -13 8 7 -5 58 -14 58 -4 0 -13 -17 -20 -37z
m-170 -366 l-24 -22 19 27 c10 14 21 24 23 22 3 -3 -6 -15 -18 -27z"/>
<path d="M882 1405 c-2 -69 15 -161 39 -220 7 -17 13 -34 13 -40 4 -28 19 -55
28 -49 8 5 9 1 5 -10 -7 -18 25 -100 43 -111 16 -10 12 -23 -8 -29 -10 -4 -38
3 -62 15 -24 12 -49 22 -54 23 -6 1 -21 7 -33 14 -56 31 -151 -6 -227 -87 -17
-17 -39 -31 -50 -32 -12 0 -15 -3 -8 -6 6 -2 12 -12 13 -21 0 -11 2 -12 6 -5
10 26 69 79 82 75 8 -3 11 0 8 6 -7 11 20 38 29 29 4 -3 15 3 27 14 11 10 28
19 36 20 9 0 28 2 43 4 16 2 29 -2 32 -11 3 -8 14 -14 25 -14 11 0 27 -3 35
-6 15 -6 15 -8 -1 -21 -17 -13 -16 -13 7 -7 14 4 32 9 40 12 10 3 10 0 -3 -9
-16 -13 -14 -14 18 -14 19 0 35 4 35 9 0 4 8 6 18 4 13 -4 17 2 17 27 0 25 -4
31 -17 27 -10 -2 -18 1 -18 7 0 7 5 9 10 6 17 -11 11 3 -10 23 -19 17 -25 39
-29 95 0 10 -5 15 -11 12 -5 -3 -10 1 -10 9 0 9 8 16 17 16 16 0 16 1 0 13
-10 6 -20 29 -22 50 -3 21 -12 48 -20 60 -9 12 -16 47 -17 82 l-2 60 -5 -55
-5 -55 -6 80 -6 80 -2 -70z m52 -179 c2 -11 6 -32 11 -46 5 -18 4 -22 -4 -15
-6 6 -15 31 -20 55 -5 25 -12 54 -15 65 -4 11 0 7 9 -9 10 -16 18 -38 19 -50z"/>
<path d="M1240 1456 c0 -2 7 -7 16 -10 8 -3 12 -2 9 4 -6 10 -25 14 -25 6z"/>
<path d="M522 1420 c0 -14 2 -19 5 -12 2 6 2 18 0 25 -3 6 -5 1 -5 -13z"/>
<path d="M42 1377 c-12 -38 -11 -53 7 -123 12 -43 24 -90 27 -104 3 -13 7 -26
9 -29 8 -7 26 52 22 68 -3 10 -5 8 -6 -6 0 -12 -6 -25 -13 -29 -7 -4 -8 -3 -4
4 4 6 2 21 -4 32 -9 16 -8 25 1 36 7 9 8 14 1 14 -6 0 -13 -6 -15 -12 -3 -7
-6 4 -6 25 -1 21 -6 47 -11 57 -8 16 -8 18 5 14 8 -4 15 -1 15 5 0 6 -5 11
-11 11 -7 0 -8 14 -4 40 9 52 3 51 -13 -3z"/>
<path d="M2541 1354 c0 -11 3 -14 6 -6 3 7 2 16 -1 19 -3 4 -6 -2 -5 -13z"/>
<path d="M920 1331 c0 -6 4 -13 10 -16 6 -3 7 1 4 9 -7 18 -14 21 -14 7z"/>
<path d="M620 1320 c-8 -5 -10 -10 -5 -10 6 0 17 5 25 10 8 5 11 10 5 10 -5 0
-17 -5 -25 -10z"/>
<path d="M70 1265 c0 -8 5 -15 10 -15 6 0 10 7 10 15 0 8 -4 15 -10 15 -5 0
-10 -7 -10 -15z"/>
<path d="M1274 1270 c-32 -13 -38 -40 -16 -70 26 -35 53 -36 82 -3 15 16 17
21 6 13 -20 -15 -76 -21 -76 -7 0 4 7 7 16 7 11 0 14 6 9 20 -4 12 -2 20 5 20
6 0 8 5 5 10 -3 6 -2 10 4 10 6 0 15 -9 21 -19 8 -16 6 -22 -7 -30 -10 -5 -16
-12 -13 -14 3 -3 15 3 27 13 22 17 22 17 2 39 -21 23 -32 25 -65 11z m12 -27
c0 -10 -5 -21 -11 -25 -14 -10 -26 14 -13 29 15 18 26 16 24 -4z"/>
<path d="M2461 1194 c0 -11 3 -14 6 -6 3 7 2 16 -1 19 -3 4 -6 -2 -5 -13z"/>
<path d="M622 1180 c0 -14 2 -19 5 -12 2 6 2 18 0 25 -3 6 -5 1 -5 -13z"/>
<path d="M640 1141 c0 -10 -7 -24 -15 -31 -8 -7 -15 -22 -15 -34 0 -17 -2 -18
-10 -6 -8 12 -10 9 -10 -12 0 -38 16 -43 29 -8 5 17 7 30 4 30 -3 0 -1 6 5 13
18 21 33 67 22 67 -6 0 -10 -8 -10 -19z"/>
<path d="M103 1115 c-8 -9 -9 -16 -3 -20 6 -4 8 -10 5 -15 -3 -4 6 -32 18 -61
15 -33 26 -48 31 -40 5 7 2 20 -6 29 -8 10 -13 38 -12 67 0 28 -1 42 -3 32 -3
-9 -8 -15 -13 -12 -5 3 -7 12 -3 20 7 19 2 18 -14 0z m25 -60 c-3 -3 -9 2 -12
12 -6 14 -5 15 5 6 7 -7 10 -15 7 -18z"/>
<path d="M995 1069 c-4 -6 -5 -12 -2 -15 2 -3 7 2 10 11 7 17 1 20 -8 4z"/>
<path d="M3086 1053 c-6 -14 -5 -15 5 -6 7 7 10 15 7 18 -3 3 -9 -2 -12 -12z"/>
<path d="M151 1034 c0 -11 3 -14 6 -6 3 7 2 16 -1 19 -3 4 -6 -2 -5 -13z"/>
<path d="M550 992 c0 -12 3 -12 15 -2 8 7 15 13 15 15 0 1 -7 2 -15 2 -8 0
-15 -7 -15 -15z"/>
<path d="M583 988 c-23 -37 -50 -114 -45 -132 5 -17 7 -15 14 14 12 48 30 99
44 121 8 14 -4 10 -13 -3z"/>
<path d="M810 970 c0 -5 5 -10 10 -10 6 0 10 5 10 10 0 6 -4 10 -10 10 -5 0
-10 -4 -10 -10z"/>
<path d="M740 960 c-8 -5 -10 -10 -5 -10 6 0 17 5 25 10 8 5 11 10 5 10 -5 0
-17 -5 -25 -10z"/>
<path d="M150 955 c0 -9 81 -154 114 -204 26 -40 35 -48 40 -35 4 9 9 14 12
11 3 -3 1 -14 -4 -24 -8 -15 -2 -28 34 -67 24 -28 44 -54 44 -58 0 -5 4 -6 10
-3 6 3 10 0 10 -7 0 -21 183 -197 270 -259 58 -42 182 -114 230 -134 25 -11
47 -22 50 -26 3 -4 27 -14 54 -23 26 -9 57 -21 68 -27 13 -7 23 -7 27 -1 4 5
21 4 46 -4 40 -13 40 -13 5 -8 -25 3 -31 2 -19 -5 8 -5 26 -11 40 -13 13 -2
30 -7 36 -11 7 -5 31 -9 53 -10 22 -1 40 -5 40 -9 0 -7 15 -8 79 -8 18 0 40
-5 47 -11 15 -12 44 -5 44 11 0 5 -10 9 -22 8 -36 -3 -188 25 -188 34 0 4 -5
8 -11 8 -5 0 -7 -4 -4 -10 10 -15 -2 -12 -53 15 -26 14 -56 25 -67 25 -17 0
-17 2 -5 10 8 5 10 10 5 10 -6 0 -16 -5 -23 -12 -9 -9 -17 -9 -34 -1 -13 6
-36 14 -52 18 -24 5 -27 8 -15 16 10 7 5 8 -16 3 -24 -4 -27 -3 -15 6 13 10
13 11 0 8 -8 -1 -28 1 -44 6 -24 6 -27 9 -15 17 10 8 8 9 -8 4 -15 -4 -23 -2
-23 5 0 7 -7 9 -16 6 -8 -3 -12 -2 -9 4 3 6 -2 10 -11 10 -14 0 -15 3 -6 12 8
8 15 8 29 -3 16 -13 17 -12 4 4 -10 13 -22 16 -50 11 -27 -4 -32 -3 -21 5 13
10 13 11 0 12 -8 1 -22 2 -30 3 -8 0 -14 8 -14 17 1 11 -5 15 -17 12 -11 -3
-19 0 -19 6 0 6 -6 10 -12 8 -7 -1 -12 4 -10 12 2 9 -3 11 -14 7 -12 -5 -15
-2 -10 10 4 12 1 14 -14 9 -11 -4 -20 -2 -20 4 0 6 -6 11 -14 11 -15 0 -29 27
-21 40 3 4 -1 8 -8 7 -36 -1 -46 4 -41 21 5 13 4 14 -4 3 -7 -9 -11 -10 -17
-2 -4 7 -1 18 5 26 15 18 -1 20 -18 3 -9 -9 -12 -9 -12 -1 0 7 5 15 10 18 19
12 -2 27 -27 20 -18 -4 -23 -3 -17 7 4 7 4 10 -1 6 -8 -7 -75 67 -75 83 0 5
-5 8 -12 7 -7 -2 -12 2 -13 9 0 6 -10 22 -23 33 -20 18 -21 24 -10 38 12 15
11 16 -4 4 -20 -16 -40 -8 -32 13 4 8 11 12 16 9 6 -4 5 3 -1 15 -13 23 -31
28 -31 9 0 -18 -28 25 -35 55 -4 14 -14 28 -23 32 -14 5 -15 7 -2 16 12 9 12
10 -2 5 -18 -5 -22 5 -20 49 0 11 -2 14 -4 7 -10 -23 -23 -1 -19 31 3 18 3 26
-1 20 -8 -18 -24 -16 -24 2 0 8 -4 15 -10 15 -5 0 -10 -2 -10 -5z m370 -475
c0 -5 -4 -10 -10 -10 -5 0 -10 5 -10 10 0 6 5 10 10 10 6 0 10 -4 10 -10z"/>
<path d="M858 953 c6 -2 18 -2 25 0 6 3 1 5 -13 5 -14 0 -19 -2 -12 -5z"/>
<path d="M690 940 c0 -5 7 -10 16 -10 8 0 12 5 9 10 -3 6 -10 10 -16 10 -5 0
-9 -4 -9 -10z"/>
<path d="M1240 895 c13 -14 26 -25 28 -25 3 0 -5 11 -18 25 -13 14 -26 25 -28
25 -3 0 5 -11 18 -25z"/>
<path d="M660 899 c0 -5 5 -7 10 -4 6 3 10 8 10 11 0 2 -4 4 -10 4 -5 0 -10
-5 -10 -11z"/>
<path d="M625 870 c-3 -5 -2 -10 4 -10 5 0 13 5 16 10 3 6 2 10 -4 10 -5 0
-13 -4 -16 -10z"/>
<path d="M1286 852 c-2 -4 4 -9 15 -9 11 -1 17 2 14 8 -7 11 -22 12 -29 1z"/>
<path d="M2110 810 c-9 -6 -10 -10 -3 -10 6 0 15 5 18 10 8 12 4 12 -15 0z"/>
<path d="M275 790 c3 -5 8 -10 11 -10 2 0 4 5 4 10 0 6 -5 10 -11 10 -5 0 -7
-4 -4 -10z"/>
<path d="M1810 690 c0 -5 5 -10 11 -10 5 0 7 5 4 10 -3 6 -8 10 -11 10 -2 0
-4 -4 -4 -10z"/>
<path d="M1791 625 c-13 -25 -28 -45 -32 -45 -5 0 -9 -5 -9 -11 0 -5 4 -8 9
-5 5 4 11 0 14 -6 2 -7 8 -9 13 -5 5 4 3 12 -4 16 -10 6 -9 11 4 22 12 9 15
10 10 2 -4 -7 -2 -13 3 -13 6 0 11 12 11 26 0 14 5 34 10 45 6 10 7 19 3 19
-4 0 -19 -20 -32 -45z"/>
<path d="M2850 638 c-12 -22 -12 -22 6 -6 10 10 15 20 12 24 -4 3 -12 -5 -18
-18z"/>
<path d="M1835 639 c-4 -6 -5 -12 -2 -15 2 -3 7 2 10 11 7 17 1 20 -8 4z"/>
<path d="M2854 605 c-5 -12 -9 -13 -20 -4 -11 9 -14 9 -14 0 0 -7 -5 -9 -12
-5 -7 4 -8 3 -4 -4 4 -6 14 -8 24 -5 15 6 15 4 4 -10 -8 -8 -21 -13 -30 -10
-14 4 -15 3 -2 -5 12 -9 10 -15 -13 -36 -22 -21 -28 -22 -35 -10 -7 12 -11 11
-28 -7 -10 -12 -13 -19 -5 -14 11 6 13 4 8 -8 -12 -32 13 -27 50 11 69 70 101
112 92 118 -5 3 -12 -2 -15 -11z m-94 -110 c0 -1 -6 -7 -13 -13 -10 -8 -13 -6
-13 7 0 11 6 17 13 14 7 -3 13 -6 13 -8z"/>
<path d="M440 573 c0 -13 29 -38 35 -31 3 3 -4 13 -15 23 -11 10 -20 13 -20 8z"/>
<path d="M1620 576 c0 -2 8 -10 18 -17 15 -13 16 -12 3 4 -13 16 -21 21 -21
13z"/>
<path d="M1660 549 c0 -5 10 -9 22 -9 12 0 18 3 14 7 -10 11 -36 12 -36 2z"/>
<path d="M2696 454 c6 -24 5 -26 -17 -19 -15 4 -19 3 -11 -3 17 -11 -21 -47
-42 -39 -10 4 -13 1 -10 -7 3 -7 -2 -19 -11 -26 -13 -10 -15 -10 -15 6 0 14
-3 15 -12 6 -10 -10 -10 -15 0 -21 11 -7 10 -10 -3 -14 -9 -4 -13 -3 -10 3 3
6 1 10 -5 10 -7 0 -10 -6 -7 -14 3 -8 -3 -22 -14 -32 -20 -18 -27 -6 -8 13 7
7 6 12 -5 16 -10 4 -13 1 -9 -9 4 -11 0 -15 -13 -12 -15 2 -18 -2 -16 -21 2
-17 -2 -22 -13 -17 -11 4 -14 2 -9 -6 5 -8 2 -9 -9 -5 -18 7 -74 -10 -64 -19
3 -3 15 0 27 6 37 20 33 4 -5 -19 -38 -22 -71 -28 -60 -11 3 6 -1 7 -10 4 -13
-5 -13 -9 -3 -22 11 -13 10 -15 -5 -9 -11 4 -16 3 -12 -3 8 -13 -1 -13 -28 1
-21 10 -21 10 -3 -5 20 -16 20 -16 0 -18 -10 0 -25 -1 -31 -1 -7 1 -10 -3 -7
-8 3 -5 -2 -9 -11 -9 -8 0 -24 -4 -35 -10 -11 -5 -28 -14 -39 -19 -20 -11 -84
-24 -116 -25 -12 -1 -19 -7 -17 -15 2 -9 -4 -12 -18 -8 -11 3 -18 1 -14 -4 3
-5 -4 -9 -15 -9 -12 0 -21 5 -21 10 0 7 -8 6 -22 -2 -13 -7 -44 -15 -70 -18
-33 -3 -45 -9 -40 -17 6 -9 27 -8 88 3 74 12 265 71 296 90 7 5 18 9 24 10 20
3 149 68 214 108 64 40 130 87 202 148 21 17 45 36 53 42 14 10 13 13 -5 29
-20 17 -20 17 -14 -9z m-192 -160 c3 -8 2 -12 -4 -9 -6 3 -10 10 -10 16 0 14
7 11 14 -7z m-437 -210 c-3 -3 -12 -4 -19 -1 -8 3 -5 6 6 6 11 1 17 -2 13 -5z
m-100 -30 c-3 -3 -12 -4 -19 -1 -8 3 -5 6 6 6 11 1 17 -2 13 -5z"/>
<path d="M1035 150 c-3 -6 1 -7 9 -4 18 7 21 14 7 14 -6 0 -13 -4 -16 -10z"/>
<path d="M1200 106 c0 -3 9 -10 20 -16 11 -6 20 -8 20 -6 0 3 -9 10 -20 16
-11 6 -20 8 -20 6z"/>
<path d="M1418 53 c7 -3 16 -2 19 1 4 3 -2 6 -13 5 -11 0 -14 -3 -6 -6z"/>
<path d="M1768 53 c7 -3 16 -2 19 1 4 3 -2 6 -13 5 -11 0 -14 -3 -6 -6z"/>
<path d="M1698 40 c13 -5 20 -14 17 -20 -8 -12 59 -12 95 1 18 6 9 7 -30 4
-39 -3 -48 -2 -30 4 l25 9 -25 1 c-14 1 -36 4 -50 6 -25 6 -25 6 -2 -5z"/>
<path d="M1530 26 c0 -9 5 -16 10 -16 6 0 10 4 10 9 0 6 -4 13 -10 16 -5 3
-10 -1 -10 -9z"/>
<path d="M1560 21 c0 -5 9 -7 20 -4 11 3 20 7 20 9 0 2 -9 4 -20 4 -11 0 -20
-4 -20 -9z"/>
<path d="M1618 23 c7 -3 16 -2 19 1 4 3 -2 6 -13 5 -11 0 -14 -3 -6 -6z"/>
<path d="M1658 23 c7 -3 16 -2 19 1 4 3 -2 6 -13 5 -11 0 -14 -3 -6 -6z"/>
<path d="M1498 13 c7 -3 16 -2 19 1 4 3 -2 6 -13 5 -11 0 -14 -3 -6 -6z"/>
</g>
</svg>
