<?xml version="1.0" standalone="no"?>
<!DOCTYPE svg PUBLIC "-//W3C//DTD SVG 20010904//EN"
 "http://www.w3.org/TR/2001/REC-SVG-20010904/DTD/svg10.dtd">
<svg version="1.0" xmlns="http://www.w3.org/2000/svg"
 width="324.000000pt" height="324.000000pt" viewBox="0 0 324.000000 324.000000"
 preserveAspectRatio="xMidYMid meet">
<metadata>
Created by potrace 1.16, written by Peter Selinger 2001-2019
</metadata>
<g transform="translate(0.000000,324.000000) scale(0.100000,-0.100000)"
fill="#f1f1f1" stroke="none">
<path d="M1500 3230 c-52 -4 -113 -12 -135 -18 -22 -6 -60 -14 -84 -17 -111
-16 -295 -84 -433 -161 -259 -143 -496 -375 -623 -609 -21 -38 -42 -75 -47
-82 -5 -7 -6 -18 -2 -25 4 -7 4 -10 -1 -6 -7 7 -53 -77 -59 -107 -1 -5 -11
-35 -23 -65 -35 -91 -73 -282 -82 -407 -10 -137 -1 -288 18 -322 9 -17 10 -21
1 -16 -9 6 -10 0 -6 -21 4 -16 9 -42 12 -59 29 -176 122 -400 239 -580 60 -93
166 -220 182 -220 6 0 15 -4 20 -9 5 -5 3 -6 -4 -2 -24 13 -13 -10 15 -35 145
-126 290 -232 309 -225 7 3 12 0 10 -6 -4 -22 285 -151 386 -172 7 -2 19 -6
27 -9 31 -13 199 -39 305 -47 62 -4 152 -4 205 2 52 5 102 9 110 10 41 2 210
41 278 64 95 33 271 111 293 130 8 8 19 14 23 14 24 0 226 154 308 233 77 76
197 224 255 317 110 177 204 443 219 619 3 36 9 97 14 135 18 143 -19 420 -76
579 -15 40 -28 82 -31 94 -3 13 -9 20 -14 17 -5 -3 -7 1 -4 8 6 19 -90 204
-104 200 -7 -1 -10 2 -6 8 10 17 -51 108 -153 229 -80 93 -90 103 -103 95 -7
-4 -9 -3 -6 3 11 17 -119 129 -241 207 -86 55 -226 126 -297 151 -27 10 -63
23 -80 30 -16 7 -43 16 -60 19 -61 13 -81 17 -128 26 -27 5 -52 12 -56 14 -6
4 -54 8 -221 20 -30 2 -98 0 -150 -4z m395 -75 c120 -23 219 -53 325 -97 86
-35 209 -98 235 -120 5 -5 38 -28 72 -51 143 -98 298 -262 406 -428 70 -109
98 -165 141 -281 79 -212 100 -332 101 -563 0 -199 -18 -315 -76 -490 -34
-103 -130 -301 -174 -360 -16 -22 -43 -59 -58 -82 -69 -101 -213 -238 -379
-360 -71 -52 -266 -147 -372 -181 -188 -61 -290 -77 -496 -76 -196 0 -284 12
-438 59 -344 103 -606 288 -823 581 -135 182 -229 401 -275 639 -22 114 -25
395 -5 515 25 161 90 359 155 474 104 184 159 259 280 381 114 114 139 135
216 186 100 65 154 97 220 127 198 90 300 118 540 146 69 8 327 -4 405 -19z"/>
<path d="M2195 2516 c-16 -7 -40 -25 -53 -39 -25 -26 -55 -124 -50 -160 3 -21
-1 -22 -117 -29 -169 -9 -222 -29 -290 -112 -41 -50 -119 -204 -136 -268 l-13
-46 -36 37 c-19 20 -70 68 -112 108 -43 40 -74 74 -70 76 4 3 32 12 62 22 30
10 73 26 95 36 46 21 60 12 -130 77 -131 44 -529 185 -559 197 -23 10 -24 11
69 -225 40 -102 99 -256 131 -342 33 -87 62 -158 66 -158 4 0 23 52 44 115 20
63 38 115 40 115 2 0 19 -15 37 -32 19 -18 64 -62 101 -97 37 -35 64 -67 59
-71 -4 -4 -23 -12 -42 -19 -56 -18 -154 -77 -198 -118 -72 -67 -103 -160 -103
-313 l0 -76 -70 -11 c-79 -12 -112 -30 -140 -76 -35 -57 -22 -164 26 -210 70
-66 119 -82 225 -72 41 3 318 8 616 11 l541 5 105 -91 c58 -51 109 -91 113
-91 8 0 44 132 44 162 0 11 22 21 83 35 45 10 88 18 95 18 6 -1 12 1 12 5 0 3
-48 60 -106 126 -58 66 -112 129 -119 140 -11 16 -14 117 -17 473 -2 248 1
452 5 452 4 0 20 25 34 56 32 70 36 181 9 261 -21 64 -77 116 -141 132 -55 14
-73 13 -110 -3z m135 -67 c55 -31 75 -82 74 -189 0 -86 -14 -131 -48 -159 -14
-12 -16 -46 -16 -236 0 -122 3 -337 7 -478 l6 -256 94 -105 c51 -58 93 -107
93 -109 0 -2 -27 -10 -60 -17 -64 -14 -73 -22 -84 -80 -11 -62 -20 -67 -58
-38 -19 15 -54 45 -79 67 l-44 41 -579 -2 c-398 -2 -580 -6 -583 -14 -2 -7
-23 -8 -61 -3 -112 13 -165 53 -177 133 -13 84 34 126 138 126 l37 0 -16 -25
c-13 -20 -14 -28 -4 -40 13 -16 38 -19 64 -9 14 5 16 30 16 168 0 178 12 243
55 294 13 16 21 32 17 36 -4 4 -2 6 3 4 6 -2 33 12 62 30 42 27 145 73 238
106 17 6 7 19 -72 94 -51 48 -127 120 -169 161 -85 82 -77 82 -104 -4 -28 -89
-30 -92 -42 -71 -13 23 -45 105 -100 251 -23 61 -44 115 -49 120 -4 6 -10 26
-14 47 l-7 36 39 -13 c21 -7 127 -45 237 -84 109 -39 203 -68 209 -64 5 3 7 2
4 -4 -4 -6 -35 -20 -69 -33 -35 -12 -65 -24 -68 -27 -3 -2 72 -78 165 -168
107 -102 173 -158 177 -151 4 6 20 47 34 91 46 139 103 242 161 294 67 59 117
71 293 67 163 -3 182 2 178 46 -3 34 -12 38 -55 24 -21 -7 -23 -4 -23 33 0
115 82 165 180 110z"/>
<path d="M2180 2049 c-171 -36 -220 -52 -255 -86 -20 -19 -43 -46 -52 -61 -10
-15 -30 -44 -46 -64 -17 -22 -26 -41 -22 -49 5 -7 4 -10 -3 -5 -6 3 -30 -26
-57 -71 l-46 -77 39 -36 c22 -19 113 -105 203 -191 241 -229 265 -249 299
-249 l30 0 0 248 c0 136 -3 338 -7 450 -7 225 1 208 -83 191z m30 -316 c0
-142 3 -314 6 -381 3 -79 1 -123 -5 -120 -5 1 -81 71 -168 154 -87 83 -185
175 -217 206 l-59 55 24 39 c80 131 166 245 196 259 34 16 148 42 195 44 l27
1 1 -257z"/>
<path d="M1495 1489 c-118 -76 -192 -137 -208 -172 -14 -30 -42 -151 -51 -222
-3 -17 -7 -37 -10 -45 -3 -8 -8 -30 -10 -47 l-3 -33 454 0 455 0 -6 48 c-6 42
-15 55 -89 127 -228 223 -411 390 -430 393 -13 1 -55 -19 -102 -49z m126 -26
c17 -19 151 -148 332 -320 60 -57 106 -107 103 -112 -4 -5 -168 -9 -391 -9
-310 0 -385 3 -385 13 0 26 51 248 61 267 9 16 36 38 158 126 79 57 98 62 122
35z"/>
</g>
</svg>
