<?xml version="1.0" standalone="no"?>
<!DOCTYPE svg PUBLIC "-//W3C//DTD SVG 20010904//EN"
 "http://www.w3.org/TR/2001/REC-SVG-20010904/DTD/svg10.dtd">
<svg version="1.0" xmlns="http://www.w3.org/2000/svg"
 width="324.000000pt" height="324.000000pt" viewBox="0 0 324.000000 324.000000"
 preserveAspectRatio="xMidYMid meet">

<g transform="translate(0.000000,324.000000) scale(0.100000,-0.100000)"
fill="#f1f1f1" stroke="none">
<path d="M1420 3220 c-20 -6 -21 -8 -5 -8 11 0 29 3 40 8 25 11 -1 11 -35 0z"/>
<path d="M1514 3219 c-3 -6 -1 -16 5 -22 9 -9 11 -8 6 5 -5 12 0 18 17 21 22
4 22 4 1 6 -12 0 -25 -4 -29 -10z"/>
<path d="M1598 3213 c7 -3 16 -2 19 1 4 3 -2 6 -13 5 -11 0 -14 -3 -6 -6z"/>
<path d="M1705 3215 c6 -2 28 -7 50 -10 33 -6 37 -9 20 -15 l-20 -9 20 -1 c11
-2 26 -2 33 -1 6 1 28 -2 47 -8 21 -6 33 -6 30 0 -4 5 -16 9 -28 9 -18 0 -19
2 -7 11 13 9 13 10 0 6 -8 -2 -35 2 -60 9 -37 12 -116 20 -85 9z"/>
<path d="M1339 3205 c-5 -4 -43 -11 -89 -15 -11 -1 -9 -4 5 -11 15 -6 9 -8
-20 -4 -22 3 -45 2 -52 -2 -6 -5 13 -9 43 -10 30 -2 54 1 54 6 0 6 10 13 23
16 12 4 30 9 41 12 12 3 16 1 12 -6 -4 -6 -2 -11 4 -11 7 0 10 5 8 12 -5 13
-22 21 -29 13z"/>
<path d="M1878 3203 c7 -3 16 -2 19 1 4 3 -2 6 -13 5 -11 0 -14 -3 -6 -6z"/>
<path d="M1423 3193 c9 -2 25 -2 35 0 9 3 1 5 -18 5 -19 0 -27 -2 -17 -5z"/>
<path d="M1925 3191 c13 -6 15 -10 5 -10 -10 -1 -7 -6 8 -17 14 -10 30 -13 40
-8 9 4 20 7 23 6 3 0 6 6 6 14 0 10 -4 11 -11 4 -5 -5 -21 -10 -35 -9 l-26 1
25 8 c14 4 18 9 10 9 -8 1 -26 4 -40 6 -22 5 -22 4 -5 -4z"/>
<path d="M1583 3183 c15 -2 37 -2 50 0 12 2 0 4 -28 4 -27 0 -38 -2 -22 -4z"/>
<path d="M1393 3173 c9 -2 23 -2 30 0 6 3 -1 5 -18 5 -16 0 -22 -2 -12 -5z"/>
<path d="M2028 3173 c6 -2 10 -9 7 -14 -4 -5 1 -6 10 -2 13 5 14 7 3 14 -7 5
-17 8 -23 8 -5 0 -4 -3 3 -6z"/>
<path d="M1348 3163 c7 -3 16 -2 19 1 4 3 -2 6 -13 5 -11 0 -14 -3 -6 -6z"/>
<path d="M1095 3140 c3 -5 8 -10 11 -10 2 0 4 5 4 10 0 6 -5 10 -11 10 -5 0
-7 -4 -4 -10z"/>
<path d="M2065 3145 c40 -18 102 -31 102 -21 0 7 -7 12 -16 12 -9 0 -34 3 -56
7 -22 3 -35 4 -30 2z"/>
<path d="M1145 3129 c-4 -6 -13 -8 -19 -6 -7 3 -19 1 -27 -4 -11 -7 -10 -9 6
-9 31 0 65 11 65 21 0 12 -17 11 -25 -2z"/>
<path d="M1188 3133 c6 -2 18 -2 25 0 6 3 1 5 -13 5 -14 0 -19 -2 -12 -5z"/>
<path d="M2190 3120 c8 -5 20 -10 25 -10 6 0 3 5 -5 10 -8 5 -19 10 -25 10 -5
0 -3 -5 5 -10z"/>
<path d="M995 3105 c-33 -15 -32 -15 35 -21 30 -2 40 -1 30 5 -8 6 -18 7 -22
5 -4 -3 -8 0 -8 6 0 7 8 9 23 4 45 -14 51 -14 22 0 -37 18 -42 19 -80 1z"/>
<path d="M2088 3113 c7 -3 16 -2 19 1 4 3 -2 6 -13 5 -11 0 -14 -3 -6 -6z"/>
<path d="M2130 3106 c0 -2 7 -7 16 -10 8 -3 12 -2 9 4 -6 10 -25 14 -25 6z"/>
<path d="M2180 3100 c0 -6 7 -10 15 -10 8 0 15 2 15 4 0 2 -7 6 -15 10 -8 3
-15 1 -15 -4z"/>
<path d="M2240 3100 c8 -5 20 -10 25 -10 6 0 3 5 -5 10 -8 5 -19 10 -25 10 -5
0 -3 -5 5 -10z"/>
<path d="M934 3059 c-10 -11 -26 -18 -36 -16 -10 3 -16 1 -13 -4 8 -11 54 -8
52 4 -1 5 4 12 12 15 9 3 11 0 6 -8 -5 -8 -4 -11 3 -6 6 4 9 13 5 21 -7 19 -6
19 -29 -6z"/>
<path d="M2337 3052 c15 -13 19 -22 12 -29 -7 -7 -7 -13 0 -17 6 -4 11 -1 11
8 0 8 6 16 13 19 6 2 -4 11 -23 21 -35 17 -35 17 -13 -2z"/>
<path d="M2300 3036 c0 -2 7 -6 15 -10 8 -3 15 -1 15 4 0 6 -7 10 -15 10 -8 0
-15 -2 -15 -4z"/>
<path d="M2403 3009 c-2 -23 3 -25 10 -4 4 8 3 16 -1 19 -4 3 -9 -4 -9 -15z"/>
<path d="M832 3003 c7 -9 7 -13 -1 -13 -6 0 -11 -5 -11 -10 0 -7 7 -7 20 0 11
6 17 16 14 22 -5 7 -2 9 9 5 9 -3 19 -3 21 2 3 4 -10 7 -29 7 -26 -1 -31 -4
-23 -13z"/>
<path d="M2381 3004 c0 -11 3 -14 6 -6 3 7 2 16 -1 19 -3 4 -6 -2 -5 -13z"/>
<path d="M767 2989 c-15 -11 -24 -26 -20 -32 4 -6 0 -8 -10 -4 -21 8 -67 -36
-67 -64 0 -12 3 -19 8 -15 7 8 8 13 11 41 0 8 5 15 10 15 6 0 8 -9 6 -21 -3
-17 -2 -19 10 -9 8 7 12 16 10 21 -3 4 3 13 14 18 26 14 34 14 25 -1 -5 -7 -3
-8 6 -3 10 6 10 11 -3 20 -9 7 -14 15 -10 19 3 3 14 -1 24 -10 10 -9 20 -11
23 -6 3 6 -1 13 -10 16 -8 3 -12 10 -9 16 4 6 11 8 16 5 5 -4 9 -1 9 4 0 16
-11 13 -43 -10z"/>
<path d="M2431 2998 c0 -10 -9 -18 -18 -18 -12 0 -9 -5 11 -15 35 -18 42 -19
28 -2 -5 6 -12 21 -15 32 -4 16 -5 17 -6 3z"/>
<path d="M2465 2967 c8 -13 13 -26 10 -29 -3 -2 7 -10 22 -17 25 -10 26 -10
10 3 -15 11 -15 15 -3 19 8 3 17 -1 20 -9 3 -8 10 -14 16 -14 14 0 -13 28 -49
52 -36 24 -44 22 -26 -5z m30 -7 c3 -5 1 -10 -4 -10 -6 0 -11 5 -11 10 0 6 2
10 4 10 3 0 8 -4 11 -10z"/>
<path d="M2570 2913 c0 -9 40 -36 45 -31 2 2 -8 11 -21 21 -13 10 -24 14 -24
10z"/>
<path d="M611 2874 c-23 -20 -39 -39 -36 -42 3 -4 10 0 15 8 5 8 12 11 16 7
13 -13 -18 -37 -41 -31 -28 7 -37 -6 -21 -27 10 -15 16 -13 49 16 24 21 34 36
27 40 -8 5 -8 11 1 21 12 14 29 10 29 -7 0 -6 -5 -7 -12 -3 -7 4 -8 3 -4 -5 4
-6 12 -9 17 -6 13 9 11 35 -2 35 -8 0 -8 5 1 15 21 25 6 17 -39 -21z m-41 -74
c0 -5 -4 -10 -9 -10 -6 0 -13 5 -16 10 -3 6 1 10 9 10 9 0 16 -4 16 -10z"/>
<path d="M2530 2905 c0 -11 32 -34 48 -35 7 0 10 5 7 11 -4 6 -10 8 -13 5 -3
-3 -14 1 -24 11 -10 9 -18 13 -18 8z"/>
<path d="M2610 2836 c27 -18 38 -21 52 -13 15 10 15 12 0 24 -9 7 -24 12 -32
12 -8 0 -4 -5 10 -11 15 -6 20 -12 12 -15 -7 -3 -24 2 -37 11 -39 25 -43 19
-5 -8z"/>
<path d="M2690 2810 c8 -5 11 -12 7 -16 -3 -4 -13 -1 -22 6 -8 7 -15 8 -15 2
0 -11 29 -26 44 -23 5 1 6 -5 3 -13 -3 -8 2 -20 11 -28 15 -12 16 -11 3 5 -17
22 -3 22 21 0 11 -9 18 -11 18 -5 0 7 -4 12 -10 12 -5 0 -9 6 -7 13 1 6 -4 11
-11 9 -7 -1 -17 9 -22 23 -5 14 -15 25 -22 25 -9 0 -9 -3 2 -10z"/>
<path d="M482 2755 c-29 -29 -30 -34 -17 -45 13 -10 18 -11 28 -1 7 7 8 12 2
11 -22 -5 -36 0 -30 10 4 6 9 8 13 6 8 -4 32 19 33 31 0 5 7 7 15 5 18 -4 18
4 1 11 -7 3 -28 -10 -45 -28z"/>
<path d="M519 2743 c-13 -16 -12 -17 4 -4 9 7 17 15 17 17 0 8 -8 3 -21 -13z"/>
<path d="M2754 2709 c-3 -5 -2 -9 3 -8 18 3 33 -2 33 -11 0 -5 -8 -7 -17 -3
-10 3 -16 4 -13 2 3 -2 15 -13 27 -23 22 -18 22 -18 17 10 l-5 29 23 -23 c14
-14 19 -25 13 -30 -15 -11 -17 -32 -2 -29 6 1 11 -3 10 -10 -2 -6 9 -21 22
-31 14 -11 25 -28 25 -38 0 -15 2 -16 9 -5 12 19 1 53 -15 47 -8 -3 -14 -1
-14 4 0 6 5 10 10 10 18 0 11 15 -34 65 -41 48 -78 65 -92 44z m120 -100 c-9
-15 -24 -10 -18 6 4 8 1 15 -5 15 -6 0 -11 5 -11 12 0 6 8 3 20 -7 11 -10 17
-22 14 -26z"/>
<path d="M422 2694 c-5 -9 -7 -25 -5 -34 3 -10 0 -21 -6 -24 -6 -4 -11 0 -11
10 0 14 -3 14 -15 4 -9 -7 -25 -27 -37 -44 -12 -17 -15 -25 -8 -19 10 9 17 9
26 2 15 -12 37 -3 29 12 -4 5 6 20 22 34 22 19 25 27 15 33 -11 7 -10 10 3 16
24 9 27 8 19 -6 -4 -7 -3 -8 5 -4 9 6 9 11 0 22 -15 18 -26 18 -37 -2z m-42
-79 c-10 -12 -10 -15 0 -15 8 0 11 -3 7 -6 -14 -14 -27 7 -16 27 6 12 13 18
16 15 3 -3 0 -12 -7 -21z"/>
<path d="M2070 2690 c8 -5 20 -10 25 -10 6 0 3 5 -5 10 -8 5 -19 10 -25 10 -5
0 -3 -5 5 -10z"/>
<path d="M2173 2693 c9 -2 23 -2 30 0 6 3 -1 5 -18 5 -16 0 -22 -2 -12 -5z"/>
<path d="M1981 2680 c-9 -5 -5 -9 10 -13 28 -7 31 -6 14 10 -6 6 -18 8 -24 3z"/>
<path d="M2248 2683 c7 -3 16 -2 19 1 4 3 -2 6 -13 5 -11 0 -14 -3 -6 -6z"/>
<path d="M1926 2671 c-15 -6 -12 -9 18 -18 20 -6 36 -7 36 -2 0 5 -7 9 -16 9
-8 0 -12 5 -9 10 7 11 -2 12 -29 1z"/>
<path d="M2040 2670 c8 -5 26 -10 39 -10 32 0 24 6 -19 14 -25 4 -31 3 -20 -4z"/>
<path d="M2138 2673 c7 -3 16 -2 19 1 4 3 -2 6 -13 5 -11 0 -14 -3 -6 -6z"/>
<path d="M2280 2669 c0 -6 9 -8 21 -4 15 5 19 4 15 -4 -4 -6 -3 -11 3 -11 17
0 21 18 5 24 -24 9 -44 7 -44 -5z"/>
<path d="M1899 2646 c18 -10 20 -15 10 -19 -10 -4 -9 -6 4 -6 9 -1 17 3 17 9
0 10 -32 30 -47 30 -4 -1 3 -7 16 -14z"/>
<path d="M2389 2652 c12 -8 11 -11 -3 -15 -15 -4 -15 -5 1 -3 19 1 21 19 1 24
-10 3 -10 1 1 -6z"/>
<path d="M1820 2629 c-19 -11 -34 -24 -32 -30 1 -6 -5 -8 -15 -5 -10 3 -25 1
-33 -4 -10 -6 -11 -10 -2 -10 6 0 12 -7 12 -15 0 -17 -17 -20 -22 -4 -2 7 -9
5 -17 -5 -12 -14 -10 -15 16 -12 16 1 38 8 49 15 16 11 16 12 1 7 -10 -3 -16
-2 -12 3 3 5 -1 12 -7 15 -7 3 0 2 16 -1 24 -5 28 -3 23 11 -7 18 17 23 28 6
3 -5 11 -10 16 -10 6 0 8 4 5 9 -4 5 0 12 6 14 10 4 9 6 -1 6 -11 1 -11 4 -1
16 16 19 13 18 -30 -6z"/>
<path d="M2309 2633 c25 -7 47 -11 49 -8 3 3 -1 5 -9 5 -10 0 -10 3 -2 8 6 4
-10 7 -35 8 l-47 0 44 -13z"/>
<path d="M2420 2635 c0 -2 12 -11 27 -18 l27 -14 -24 -8 -23 -7 24 -13 c27
-15 39 -11 39 14 0 10 -15 24 -35 34 -19 9 -35 15 -35 12z m60 -45 c0 -5 -8
-10 -17 -10 -15 0 -16 2 -3 10 19 12 20 12 20 0z"/>
<path d="M2370 2615 c0 -7 30 -13 34 -7 3 4 -4 9 -15 9 -10 1 -19 0 -19 -2z"/>
<path d="M2502 2570 c-8 -13 -8 -20 -2 -20 6 0 13 7 17 15 9 24 -1 27 -15 5z"/>
<path d="M306 2545 c-15 -16 -22 -33 -19 -42 4 -11 2 -14 -5 -9 -16 10 -15 -9
1 -22 9 -8 13 -7 14 6 3 37 10 55 28 68 10 8 16 17 12 20 -3 3 -17 -6 -31 -21z"/>
<path d="M347 2549 c-3 -12 -10 -18 -16 -14 -6 3 -11 -1 -11 -11 0 -14 3 -14
16 -4 20 18 37 50 26 50 -6 0 -12 -9 -15 -21z"/>
<path d="M1667 2544 c-24 -20 -27 -27 -17 -39 15 -18 -1 -20 -18 -3 -7 7 -12
8 -12 2 0 -5 5 -15 12 -22 9 -9 9 -12 1 -12 -7 0 -15 5 -18 10 -4 6 -11 8 -16
4 -6 -3 -3 -12 8 -20 11 -8 13 -13 6 -14 -7 0 -13 -7 -13 -15 0 -9 15 2 37 26
27 30 33 43 24 48 -10 6 -9 10 4 15 24 9 28 8 21 -9 -5 -13 -2 -14 17 -4 28
15 37 24 15 16 -22 -8 -42 15 -26 31 22 22 4 12 -25 -14z"/>
<path d="M2533 2558 c3 -9 1 -18 -6 -21 -6 -2 -7 -6 -2 -9 6 -3 15 0 22 7 10
10 9 16 -4 27 -14 11 -16 11 -10 -4z"/>
<path d="M2916 2544 c-3 -8 -6 -17 -6 -18 0 -1 9 -2 20 -2 23 0 26 9 6 25 -11
9 -15 8 -20 -5z"/>
<path d="M2570 2541 c0 -6 6 -11 13 -11 8 0 7 -3 -3 -10 -9 -6 -17 -5 -22 3
-6 9 -8 9 -8 0 0 -19 16 -23 34 -10 16 12 16 14 2 26 -11 9 -16 10 -16 2z"/>
<path d="M2606 2502 c-2 -4 4 -8 14 -8 10 0 16 4 14 8 -3 4 -9 8 -14 8 -5 0
-11 -4 -14 -8z"/>
<path d="M2974 2478 c9 -15 14 -33 13 -40 -2 -7 -2 -10 0 -5 3 4 9 4 15 1 13
-8 -4 23 -27 51 -16 19 -16 18 -1 -7z"/>
<path d="M256 2465 c4 -8 10 -15 16 -15 5 0 6 -5 2 -12 -5 -7 -3 -8 5 -4 9 6
8 13 -5 27 -21 23 -25 24 -18 4z"/>
<path d="M2626 2471 c9 -9 34 -9 34 -1 0 5 -9 8 -20 7 -10 -1 -17 -3 -14 -6z"/>
<path d="M2606 2443 c-6 -14 -5 -15 5 -6 7 7 10 15 7 18 -3 3 -9 -2 -12 -12z"/>
<path d="M228 2415 c-6 -14 -15 -25 -20 -25 -5 0 -6 -5 -2 -11 4 -8 12 -2 21
15 16 31 27 35 18 6 -8 -25 1 -26 14 -2 6 12 5 21 -5 30 -12 11 -16 9 -26 -13z"/>
<path d="M1552 2428 c-7 -7 -12 -17 -12 -22 0 -6 6 -4 13 5 7 9 19 18 27 22
13 5 13 6 0 6 -9 1 -21 -4 -28 -11z"/>
<path d="M1565 2394 c-16 -25 -17 -25 -32 -7 -14 17 -14 17 -9 0 3 -10 6 -21
6 -23 0 -2 7 -4 15 -4 8 0 21 14 30 30 19 37 13 39 -10 4z"/>
<path d="M2566 2412 c-3 -5 1 -9 9 -9 8 0 15 4 15 9 0 4 -4 8 -9 8 -6 0 -12
-4 -15 -8z"/>
<path d="M2710 2399 c8 -14 8 -24 1 -32 -10 -13 0 -40 15 -37 5 1 10 -4 13
-11 2 -7 -1 -9 -9 -4 -8 5 -11 4 -6 -3 4 -6 13 -9 22 -5 10 4 12 9 4 18 -6 7
-10 17 -8 21 2 10 -30 74 -38 74 -2 0 0 -9 6 -21z m25 -39 c3 -5 -1 -10 -10
-10 -9 0 -13 5 -10 10 3 6 8 10 10 10 2 0 7 -4 10 -10z"/>
<path d="M3002 2408 c-17 -17 -15 -33 6 -49 15 -13 16 -12 4 3 -10 13 -11 22
-2 37 12 24 10 27 -8 9z"/>
<path d="M2520 2392 c0 -4 9 -8 19 -8 11 0 17 4 15 8 -3 4 -12 8 -20 8 -8 0
-14 -4 -14 -8z"/>
<path d="M2458 2383 c7 -3 16 -2 19 1 4 3 -2 6 -13 5 -11 0 -14 -3 -6 -6z"/>
<path d="M2670 2386 c0 -2 7 -6 15 -10 8 -3 15 -1 15 4 0 6 -7 10 -15 10 -8 0
-15 -2 -15 -4z"/>
<path d="M2310 2365 c-7 -8 -9 -15 -6 -15 4 0 14 7 22 15 9 8 11 15 6 15 -5 0
-15 -7 -22 -15z"/>
<path d="M3020 2376 c0 -2 8 -10 18 -17 15 -13 16 -12 3 4 -13 16 -21 21 -21
13z"/>
<path d="M183 2350 c-8 -12 -9 -21 -3 -25 6 -4 7 -11 4 -17 -4 -6 -10 -5 -16
3 -7 10 -8 8 -3 -6 4 -11 7 -29 7 -39 -1 -13 2 -16 10 -8 7 7 21 112 14 112
-1 0 -7 -9 -13 -20z"/>
<path d="M216 2351 c-11 -12 -14 -21 -7 -26 6 -3 11 0 11 9 0 8 6 16 13 19 6
2 9 7 6 11 -3 3 -14 -2 -23 -13z"/>
<path d="M1510 2346 c0 -22 3 -27 11 -19 8 8 8 16 0 30 -9 16 -10 14 -11 -11z"/>
<path d="M3020 2335 c0 -3 7 -20 16 -37 14 -27 17 -29 31 -15 12 12 13 19 3
33 -8 13 -10 14 -7 3 3 -9 1 -22 -4 -30 -7 -11 -9 -10 -9 4 0 10 -7 25 -15 33
-8 9 -15 13 -15 9z"/>
<path d="M1488 2309 c-3 -8 1 -20 8 -27 15 -14 17 -7 5 22 -6 15 -9 16 -13 5z"/>
<path d="M1525 2309 c-4 -6 -5 -12 -2 -15 2 -3 7 2 10 11 7 17 1 20 -8 4z"/>
<path d="M2764 2299 c-3 -6 -1 -16 5 -22 9 -9 10 -7 5 7 -6 15 -4 17 6 11 9
-5 11 -4 6 3 -9 15 -13 15 -22 1z"/>
<path d="M2536 2291 c-3 -5 1 -11 9 -15 8 -3 15 -1 15 4 0 13 -18 22 -24 11z"/>
<path d="M147 2276 c-3 -8 -3 -24 0 -35 4 -14 1 -21 -6 -19 -7 2 -19 -12 -27
-31 -12 -30 -12 -32 1 -21 22 18 18 -3 -5 -33 -11 -14 -20 -29 -20 -34 0 -4 4
-1 10 7 5 8 12 11 16 7 4 -3 2 -12 -3 -19 -6 -7 -13 -35 -16 -63 -5 -46 -5
-47 4 -15 6 19 17 52 24 73 8 22 9 35 3 31 -6 -4 -8 -1 -6 7 3 8 10 13 16 12
8 -2 9 5 2 23 -15 38 -11 53 5 24 l15 -25 -4 27 c-3 15 0 30 5 34 6 4 6 10 -1
19 -6 7 -8 20 -4 29 3 9 4 16 1 16 -3 0 -7 -6 -10 -14z"/>
<path d="M1481 2264 c0 -11 3 -14 6 -6 3 7 2 16 -1 19 -3 4 -6 -2 -5 -13z"/>
<path d="M2760 2250 c11 -19 20 -43 20 -52 0 -9 4 -20 10 -23 5 -3 7 0 4 9
-11 28 8 40 22 15 17 -31 18 -9 1 24 -12 23 -14 24 -25 9 -11 -15 -12 -14 -7
8 3 14 2 19 -1 12 -4 -8 -11 -5 -25 10 -19 22 -18 21 1 -12z"/>
<path d="M3076 2250 c6 -23 6 -24 -11 -10 -17 14 -17 14 -5 -9 11 -21 14 -22
22 -8 6 11 5 23 -2 35 -9 14 -10 13 -4 -8z"/>
<path d="M1458 2227 c-3 -19 -2 -25 4 -19 6 6 8 18 6 28 -3 14 -5 12 -10 -9z"/>
<path d="M1649 2241 c11 -7 10 -10 -5 -14 -16 -4 -16 -5 4 -6 13 -1 22 5 22
14 0 8 -8 15 -17 15 -15 0 -15 -2 -4 -9z"/>
<path d="M2542 2230 c0 -14 2 -19 5 -12 2 6 2 18 0 25 -3 6 -5 1 -5 -13z"/>
<path d="M1692 2231 c-10 -6 -8 -10 9 -14 13 -4 25 -4 28 -2 2 3 -2 5 -10 5
-11 0 -11 2 1 10 13 9 13 10 0 10 -8 0 -21 -4 -28 -9z"/>
<path d="M1748 2223 c6 -2 18 -2 25 0 6 3 1 5 -13 5 -14 0 -19 -2 -12 -5z"/>
<path d="M3096 2213 c-6 -14 -5 -15 5 -6 7 7 10 15 7 18 -3 3 -9 -2 -12 -12z"/>
<path d="M1850 2210 c-18 -12 -2 -12 25 0 13 6 15 9 5 9 -8 0 -22 -4 -30 -9z"/>
<path d="M1675 2200 c4 -6 11 -8 16 -5 14 9 11 15 -7 15 -8 0 -12 -5 -9 -10z"/>
<path d="M1894 2198 c-3 -4 2 -8 10 -8 8 0 17 4 20 8 3 5 -2 9 -10 9 -8 0 -17
-4 -20 -9z"/>
<path d="M2345 2200 c3 -5 8 -10 11 -10 2 0 4 5 4 10 0 6 -5 10 -11 10 -5 0
-7 -4 -4 -10z"/>
<path d="M2368 2195 c-3 -11 -9 -29 -13 -40 -3 -11 1 -7 10 8 9 16 15 33 12
40 -2 6 -6 3 -9 -8z"/>
<path d="M2528 2183 c5 -21 7 -23 10 -9 2 10 0 22 -6 28 -6 6 -7 0 -4 -19z"/>
<path d="M915 2173 l-30 -14 30 6 c31 7 41 12 34 19 -2 2 -17 -3 -34 -11z"/>
<path d="M1472 2170 c0 -14 2 -19 5 -12 2 6 2 18 0 25 -3 6 -5 1 -5 -13z"/>
<path d="M1668 2163 c5 -21 7 -23 10 -9 2 10 0 22 -6 28 -6 6 -7 0 -4 -19z"/>
<path d="M1988 2183 c29 -12 8 -20 -30 -11 -23 5 -51 7 -62 6 -12 -2 6 -9 39
-15 33 -6 68 -7 79 -3 20 7 20 7 -1 19 -12 6 -25 11 -30 10 -4 0 -2 -3 5 -6z"/>
<path d="M2330 2175 c0 -7 -8 -19 -17 -24 -10 -6 -12 -11 -5 -11 6 0 12 -9 12
-20 0 -42 15 -18 16 25 0 25 -1 45 -3 45 -1 0 -3 -7 -3 -15z"/>
<path d="M985 2170 c3 -5 11 -10 16 -10 6 0 7 5 4 10 -3 6 -11 10 -16 10 -6 0
-7 -4 -4 -10z"/>
<path d="M1640 2153 c0 -46 20 -98 32 -81 7 10 11 10 15 1 2 -7 9 -13 14 -13
5 0 3 13 -5 29 -9 16 -12 32 -8 36 4 4 0 6 -8 3 -9 -3 -14 -14 -12 -29 2 -13
1 -21 -2 -18 -3 3 -8 25 -11 49 -7 53 -15 65 -15 23z"/>
<path d="M3090 2166 c0 -8 4 -17 9 -20 5 -4 7 3 4 14 -6 23 -13 26 -13 6z"/>
<path d="M2218 2163 c7 -3 16 -2 19 1 4 3 -2 6 -13 5 -11 0 -14 -3 -6 -6z"/>
<path d="M847 2141 c-15 -10 -24 -21 -20 -25 5 -5 -3 -5 -17 -2 -19 6 -21 5
-10 -3 12 -9 13 -11 1 -11 -8 0 -12 -2 -9 -5 8 -8 58 17 53 26 -3 4 7 11 22
16 15 5 22 12 17 16 -6 3 -22 -2 -37 -12z"/>
<path d="M2095 2149 c-13 -6 -4 -7 30 -3 28 4 52 8 54 10 9 8 -65 2 -84 -7z"/>
<path d="M910 2140 c-24 -15 -7 -19 20 -5 15 8 19 14 10 14 -8 1 -22 -3 -30
-9z"/>
<path d="M992 2119 c6 -16 12 -29 13 -27 6 6 -8 58 -16 58 -4 0 -3 -14 3 -31z"/>
<path d="M1010 2140 c0 -5 4 -10 9 -10 5 0 7 -10 5 -22 -4 -21 -4 -21 4 -3 5
11 7 26 5 33 -6 14 -23 16 -23 2z"/>
<path d="M1491 2133 c0 -12 -4 -30 -7 -40 -5 -17 -5 -17 6 0 6 10 9 28 7 40
-4 22 -4 22 -6 0z"/>
<path d="M2200 2146 c0 -2 11 -6 25 -8 14 -3 25 -1 25 3 0 5 -11 9 -25 9 -14
0 -25 -2 -25 -4z"/>
<path d="M1451 2133 c0 -5 4 -17 9 -28 8 -18 9 -17 9 8 1 15 -3 27 -9 27 -5 0
-10 -3 -9 -7z"/>
<path d="M3123 2114 c-15 -16 -16 -24 -4 -24 8 0 24 30 19 35 -2 2 -9 -3 -15
-11z"/>
<path d="M2827 2103 c-10 -10 -8 -43 2 -43 5 0 8 11 7 25 0 14 -1 25 -2 25 0
0 -4 -3 -7 -7z"/>
<path d="M2852 2090 c0 -14 4 -38 8 -55 7 -27 8 -27 8 -5 0 14 -4 39 -8 55 -7
27 -8 27 -8 5z"/>
<path d="M830 2090 c-8 -5 -10 -10 -5 -10 6 0 17 5 25 10 8 5 11 10 5 10 -5 0
-17 -5 -25 -10z"/>
<path d="M966 2085 c-3 -8 1 -21 9 -29 8 -8 15 -25 16 -38 1 -16 3 -13 9 12 5
19 7 37 4 39 -2 2 -4 -1 -4 -8 0 -9 -4 -9 -14 1 -10 9 -11 17 -4 26 7 8 7 12
0 12 -5 0 -12 -7 -16 -15z"/>
<path d="M2531 2084 c0 -11 3 -14 6 -6 3 7 2 16 -1 19 -3 4 -6 -2 -5 -13z"/>
<path d="M3143 2085 c-7 -8 -13 -20 -13 -27 1 -9 5 -7 14 4 7 10 16 15 20 11
4 -4 4 0 0 10 -7 20 -6 20 -21 2z"/>
<path d="M2342 2070 c0 -14 2 -19 5 -12 2 6 2 18 0 25 -3 6 -5 1 -5 -13z"/>
<path d="M70 2075 c0 -5 5 -17 10 -25 5 -8 10 -10 10 -5 0 6 -5 17 -10 25 -5
8 -10 11 -10 5z"/>
<path d="M678 2038 c-32 -30 -37 -39 -20 -34 22 7 31 -7 12 -19 -5 -3 -10 -12
-10 -18 0 -7 9 1 19 17 11 16 27 33 35 38 9 5 16 13 16 19 0 5 -10 1 -22 -11
-30 -27 -37 -16 -9 14 13 14 29 22 37 19 8 -3 14 -3 14 0 0 3 -6 7 -14 10 -9
4 -33 -11 -58 -35z"/>
<path d="M1451 2054 c0 -11 3 -14 6 -6 3 7 2 16 -1 19 -3 4 -6 -2 -5 -13z"/>
<path d="M1670 2042 c0 -5 9 -17 20 -27 11 -10 20 -13 20 -8 0 6 -7 14 -16 17
-8 3 -12 10 -9 16 3 5 1 10 -4 10 -6 0 -11 -4 -11 -8z"/>
<path d="M1710 2041 c0 -6 5 -11 11 -11 5 0 7 -4 4 -10 -11 -19 26 -68 50 -65
13 1 27 -6 34 -17 7 -12 8 -18 0 -18 -5 0 -7 -5 -3 -11 5 -8 9 -8 14 1 4 7 13
9 19 6 6 -4 11 -3 11 2 0 5 -9 12 -21 15 -12 3 -18 10 -15 16 7 11 -32 36 -42
27 -9 -10 -41 25 -36 38 3 7 -2 19 -11 26 -10 8 -15 9 -15 1z"/>
<path d="M3143 2043 c-7 -3 -9 -13 -4 -31 4 -15 6 -32 4 -38 -2 -7 7 -11 22
-11 24 0 24 0 8 16 -10 9 -19 27 -21 41 l-2 25 14 -25 14 -25 -1 26 c-2 25 -9
30 -34 22z"/>
<path d="M2341 2024 c0 -11 3 -14 6 -6 3 7 2 16 -1 19 -3 4 -6 -2 -5 -13z"/>
<path d="M57 2016 c-9 -24 -9 -28 3 -21 6 3 10 -1 10 -9 0 -9 -8 -16 -17 -16
-13 0 -12 -4 7 -13 14 -8 27 -12 30 -9 3 3 0 7 -7 9 -7 2 -10 10 -7 17 3 7 1
23 -4 36 -8 20 -9 21 -15 6z"/>
<path d="M1463 1995 c0 -22 2 -30 4 -17 2 12 2 30 0 40 -3 9 -5 -1 -4 -23z"/>
<path d="M2836 2005 c-3 -9 -6 -31 -5 -48 1 -28 2 -26 10 12 9 46 6 65 -5 36z"/>
<path d="M1490 1988 c0 -10 4 -18 9 -18 5 0 12 -8 14 -17 4 -14 5 -15 6 -2 0
8 -6 24 -14 35 -13 17 -14 17 -15 2z"/>
<path d="M625 1969 c-4 -11 -4 -23 -1 -26 3 -4 6 1 6 10 0 8 5 17 12 19 9 3 9
6 1 11 -7 4 -14 -1 -18 -14z"/>
<path d="M2336 1963 c-6 -14 -5 -15 5 -6 7 7 10 15 7 18 -3 3 -9 -2 -12 -12z"/>
<path d="M646 1947 c3 -10 9 -15 12 -12 3 3 0 11 -7 18 -10 9 -11 8 -5 -6z"/>
<path d="M1481 1944 c0 -11 3 -14 6 -6 3 7 2 16 -1 19 -3 4 -6 -2 -5 -13z"/>
<path d="M2852 1935 c0 -16 2 -22 5 -12 2 9 2 23 0 30 -3 6 -5 -1 -5 -18z"/>
<path d="M37 1931 c-4 -17 -3 -21 5 -13 5 5 8 16 6 23 -3 8 -7 3 -11 -10z"/>
<path d="M3162 1930 c0 -14 2 -19 5 -12 2 6 2 18 0 25 -3 6 -5 1 -5 -13z"/>
<path d="M3192 1925 c0 -16 2 -22 5 -12 2 9 2 23 0 30 -3 6 -5 -1 -5 -18z"/>
<path d="M61 1905 c-1 -23 -3 -27 -11 -15 -12 18 -12 3 0 -25 7 -19 8 -18 15
7 4 14 5 35 2 45 -3 11 -5 7 -6 -12z"/>
<path d="M990 1907 c0 -14 -4 -29 -10 -32 -5 -3 -10 -15 -10 -26 0 -11 4 -18
9 -15 11 7 25 85 17 93 -3 4 -6 -5 -6 -20z"/>
<path d="M2315 1897 c-9 -44 -2 -58 14 -29 7 13 8 29 2 44 -8 21 -9 20 -16
-15z"/>
<path d="M602 1900 c0 -14 2 -19 5 -12 2 6 2 18 0 25 -3 6 -5 1 -5 -13z"/>
<path d="M1881 1903 c0 -10 3 -13 5 -6 3 7 19 10 42 6 28 -3 33 -2 22 6 -25
18 -70 14 -69 -6z"/>
<path d="M1501 1894 c0 -11 3 -14 6 -6 3 7 2 16 -1 19 -3 4 -6 -2 -5 -13z"/>
<path d="M1520 1901 c0 -5 7 -12 16 -15 10 -4 14 -12 10 -22 -8 -20 11 -44 33
-43 11 0 9 3 -6 9 -13 5 -23 15 -23 21 0 8 5 7 17 -2 10 -9 7 0 -8 23 -23 36
-39 48 -39 29z"/>
<path d="M2821 1894 c0 -11 3 -14 6 -6 3 7 2 16 -1 19 -3 4 -6 -2 -5 -13z"/>
<path d="M1418 1893 c7 -3 16 -2 19 1 4 3 -2 6 -13 5 -11 0 -14 -3 -6 -6z"/>
<path d="M1456 1886 c4 -12 0 -16 -17 -17 -16 -1 -11 -4 15 -10 21 -5 52 -19
70 -30 l31 -21 -28 26 c-20 18 -23 26 -13 26 9 0 16 5 16 10 0 7 -6 7 -19 0
-27 -14 -41 -13 -41 4 0 8 -4 18 -10 21 -6 3 -7 -1 -4 -9z"/>
<path d="M1762 1893 c-13 -5 -7 -23 9 -23 6 0 8 4 5 9 -4 5 0 12 6 14 7 3 9 5
3 5 -5 0 -16 -2 -23 -5z"/>
<path d="M1983 1893 c9 -2 14 -9 11 -15 -4 -7 -2 -8 5 -4 15 10 4 26 -17 25
-15 -1 -15 -2 1 -6z"/>
<path d="M2846 1884 c-3 -9 -4 -19 -1 -22 3 -3 5 1 5 9 0 11 2 11 10 -1 5 -8
10 -10 10 -5 0 6 -4 16 -9 23 -6 11 -10 10 -15 -4z"/>
<path d="M3171 1874 c1 -20 3 -23 6 -10 4 13 7 15 13 7 5 -9 9 -8 14 5 4 10 4
15 0 11 -4 -4 -13 -2 -21 4 -10 9 -13 6 -12 -17z"/>
<path d="M1247 1857 c-14 -12 -29 -35 -32 -52 l-5 -30 15 32 c8 18 27 38 41
46 15 8 23 17 17 20 -5 3 -21 -4 -36 -16z"/>
<path d="M1310 1870 c9 -6 9 -9 -1 -14 -8 -3 -3 -3 11 0 38 9 42 19 9 20 -17
1 -25 -2 -19 -6z"/>
<path d="M1693 1860 c-11 -16 -10 -18 2 -14 8 4 15 12 15 20 0 19 -3 18 -17
-6z"/>
<path d="M2011 1863 c-8 -14 -11 -15 -25 -4 -9 8 -19 12 -22 9 -2 -3 6 -12 19
-21 23 -15 25 -14 35 9 13 27 8 33 -7 7z"/>
<path d="M31 1844 c0 -11 3 -14 6 -6 3 7 2 16 -1 19 -3 4 -6 -2 -5 -13z"/>
<path d="M612 1835 c0 -16 2 -22 5 -12 2 9 2 23 0 30 -3 6 -5 -1 -5 -18z"/>
<path d="M1263 1832 c-12 -9 -25 -30 -28 -47 l-6 -30 15 31 c8 18 22 37 33 42
10 6 16 13 13 16 -3 2 -15 -3 -27 -12z"/>
<path d="M1640 1840 c-8 -5 -10 -10 -5 -10 6 0 17 5 25 10 8 5 11 10 5 10 -5
0 -17 -5 -25 -10z"/>
<path d="M2330 1842 c0 -5 6 -17 14 -27 13 -18 14 -18 9 8 -5 24 -23 39 -23
19z"/>
<path d="M2851 1834 c0 -11 3 -14 6 -6 3 7 2 16 -1 19 -3 4 -6 -2 -5 -13z"/>
<path d="M2024 1828 c-5 -7 -2 -8 6 -3 9 6 12 4 8 -6 -3 -8 0 -25 6 -37 11
-21 12 -20 12 12 0 35 -19 55 -32 34z"/>
<path d="M3182 1805 c-3 -82 23 -118 29 -41 2 24 1 42 -3 39 -5 -2 -9 -16 -10
-31 0 -15 -4 -4 -8 23 -7 49 -7 49 -8 10z"/>
<path d="M923 1812 c-8 -14 -8 -19 1 -19 7 0 13 9 13 19 1 10 1 18 0 18 -1 0
-7 -8 -14 -18z"/>
<path d="M41 1798 c-13 -20 -12 -22 1 -11 8 7 18 10 22 6 4 -4 4 0 0 10 -8 21
-6 21 -23 -5z"/>
<path d="M950 1798 c0 -19 2 -20 10 -8 13 19 13 30 0 30 -5 0 -10 -10 -10 -22z"/>
<path d="M2067 1813 c-10 -9 -9 -23 1 -23 5 0 9 7 9 15 0 17 -1 18 -10 8z"/>
<path d="M2322 1805 c0 -11 3 -29 8 -40 11 -25 11 1 0 35 -6 20 -8 21 -8 5z"/>
<path d="M1570 1796 c7 -7 13 -7 20 0 6 6 3 10 -10 10 -13 0 -16 -4 -10 -10z"/>
<path d="M1413 1775 c0 -8 4 -12 9 -9 4 3 8 9 8 15 0 5 -4 9 -8 9 -5 0 -9 -7
-9 -15z"/>
<path d="M903 1758 c-2 -16 1 -17 13 -8 18 15 18 27 1 27 -7 0 -14 -9 -14 -19z"/>
<path d="M1316 1763 c-23 -12 -34 -13 -48 -4 -11 7 -18 7 -18 1 0 -12 -2 -12
80 -15 40 -1 52 0 30 4 -24 4 -31 9 -22 15 7 4 25 5 40 2 20 -5 23 -4 12 4
-21 14 -40 12 -74 -7z"/>
<path d="M2075 1769 c-4 -6 -4 -13 -1 -16 3 -4 6 0 6 8 0 11 2 11 10 -1 8 -13
10 -12 10 3 0 19 -15 23 -25 6z"/>
<path d="M3222 1750 c0 -19 2 -27 5 -17 2 9 2 25 0 35 -3 9 -5 1 -5 -18z"/>
<path d="M1458 1763 c6 -2 10 -9 7 -14 -4 -5 1 -6 9 -3 9 3 16 1 16 -5 0 -6 6
-11 13 -11 6 1 1 10 -12 20 -13 11 -28 20 -35 19 -7 0 -6 -2 2 -6z"/>
<path d="M1210 1750 c-1 -16 -34 -60 -45 -60 -3 0 -3 10 0 23 7 21 6 21 -7 3
-8 -10 -20 -16 -26 -12 -8 5 -10 1 -5 -10 4 -11 2 -15 -4 -11 -12 7 -23 -15
-22 -41 0 -14 2 -14 6 -2 8 21 34 50 45 50 5 0 0 -12 -11 -26 -17 -21 -18 -29
-8 -45 17 -28 29 -23 15 6 -10 23 -8 28 30 63 23 22 44 37 47 34 9 -9 5 12 -5
28 -9 13 -10 13 -10 0z"/>
<path d="M614 1727 c-9 -21 -8 -23 10 -22 12 1 31 -5 44 -13 12 -8 25 -12 29
-8 3 3 1 6 -5 6 -7 0 -21 9 -32 20 -13 13 -20 15 -21 8 -1 -7 -4 -3 -7 9 l-7
22 -11 -22z"/>
<path d="M880 1739 c0 -5 -4 -8 -9 -4 -16 9 -20 -9 -7 -28 12 -16 14 -16 31 4
17 18 17 19 2 13 -13 -5 -16 -2 -11 10 3 9 3 16 0 16 -3 0 -6 -5 -6 -11z"/>
<path d="M1441 1739 c0 -9 7 -23 16 -30 14 -12 16 -12 8 0 -6 11 -4 13 9 8 11
-4 15 -3 11 4 -4 6 -13 8 -20 5 -8 -3 -16 3 -18 12 -4 15 -5 15 -6 1z"/>
<path d="M1395 1731 c-3 -5 4 -13 16 -16 15 -5 18 -10 9 -15 -8 -5 -7 -9 6
-14 9 -3 19 -4 22 -1 3 3 0 5 -7 5 -7 0 -9 5 -6 10 3 6 -1 13 -9 16 -9 3 -13
10 -10 15 3 5 1 9 -5 9 -5 0 -12 -4 -16 -9z"/>
<path d="M2076 1723 c-6 -14 -5 -15 5 -6 7 7 10 15 7 18 -3 3 -9 -2 -12 -12z"/>
<path d="M2351 1724 c0 -11 3 -14 6 -6 3 7 2 16 -1 19 -3 4 -6 -2 -5 -13z"/>
<path d="M2820 1731 c0 -8 -7 -10 -21 -6 -15 5 -19 4 -14 -4 4 -7 1 -18 -5
-26 -6 -8 -9 -24 -5 -35 6 -20 7 -21 21 -3 7 10 13 23 13 28 0 6 -6 1 -14 -9
-12 -16 -15 -17 -15 -4 0 18 24 41 33 31 4 -3 9 2 13 11 4 9 4 20 0 23 -3 4
-6 1 -6 -6z"/>
<path d="M22 1716 c7 -8 17 -12 22 -9 4 3 2 9 -5 14 -22 13 -31 11 -17 -5z"/>
<path d="M547 1688 c-21 -23 -43 -51 -49 -62 -10 -19 -10 -20 5 -7 21 17 22 3
2 -19 -9 -10 -18 -28 -21 -41 -3 -13 -8 -34 -11 -46 -3 -14 -1 -23 6 -23 7 0
9 5 6 10 -3 6 -2 10 4 10 5 0 8 12 7 28 -4 32 2 52 16 52 6 0 8 -7 4 -15 -8
-22 2 -18 15 6 7 14 7 19 0 15 -6 -4 -9 5 -6 26 2 18 9 34 15 36 5 2 10 9 10
15 0 6 12 21 28 34 15 12 23 22 17 23 -5 0 -27 -19 -48 -42z"/>
<path d="M1340 1721 c8 -5 26 -12 40 -15 23 -6 24 -6 5 6 -11 7 -29 13 -40 15
-16 2 -17 1 -5 -6z"/>
<path d="M2102 1690 c0 -19 2 -27 5 -17 2 9 2 25 0 35 -3 9 -5 1 -5 -18z"/>
<path d="M802 1690 c-12 -11 -27 -20 -34 -20 -7 0 -2 -6 12 -13 25 -14 54 -12
45 3 -3 5 1 11 7 14 7 3 2 3 -12 0 -24 -5 -24 -4 -7 10 11 8 26 12 35 9 10 -4
13 -2 8 5 -11 18 -29 15 -54 -8z"/>
<path d="M3200 1699 c0 -5 5 -7 10 -4 6 3 10 8 10 11 0 2 -4 4 -10 4 -5 0 -10
-5 -10 -11z"/>
<path d="M2342 1670 c0 -19 2 -27 5 -17 2 9 2 25 0 35 -3 9 -5 1 -5 -18z"/>
<path d="M2370 1690 c0 -5 5 -10 11 -10 5 0 7 5 4 10 -3 6 -8 10 -11 10 -2 0
-4 -4 -4 -10z"/>
<path d="M570 1675 c-7 -9 -8 -15 -2 -15 5 0 12 7 16 15 3 8 4 15 2 15 -2 0
-9 -7 -16 -15z"/>
<path d="M3212 1660 c14 -22 24 -19 15 5 -4 8 -11 15 -17 15 -6 0 -6 -7 2 -20z"/>
<path d="M47 1664 c-4 -4 -7 -14 -7 -23 0 -11 3 -12 11 -4 6 6 10 16 7 23 -2
6 -7 8 -11 4z"/>
<path d="M720 1660 c8 -6 24 -15 35 -21 16 -8 15 -6 -4 10 -13 12 -28 21 -35
21 -6 0 -4 -5 4 -10z"/>
<path d="M2360 1656 c0 -8 5 -18 10 -21 6 -3 10 1 10 9 0 8 -4 18 -10 21 -5 3
-10 -1 -10 -9z"/>
<path d="M2078 1654 c-4 -3 4 -18 18 -32 13 -15 24 -30 24 -34 0 -5 5 -8 12
-8 6 0 2 10 -9 23 -11 12 -25 30 -30 40 -5 10 -12 15 -15 11z"/>
<path d="M1275 1634 c-22 -16 -39 -19 -30 -4 10 16 -1 11 -16 -7 -10 -11 -10
-14 -1 -9 6 4 12 3 12 -3 0 -5 -6 -12 -12 -14 -8 -4 -9 -6 -2 -6 6 -1 17 6 24
14 7 8 17 15 23 15 5 0 2 -8 -7 -19 -13 -14 -14 -20 -4 -23 7 -3 19 -3 26 -1
15 6 16 43 1 43 -5 0 -7 5 -3 12 10 16 34 -19 27 -39 -5 -13 -3 -13 16 -2 19
12 19 14 4 20 -16 5 -15 7 2 18 11 7 13 10 5 8 -8 -2 -22 -1 -30 3 -9 5 -23 2
-35 -6z m7 -46 c-7 -7 -12 -8 -12 -2 0 6 3 14 7 17 3 4 9 5 12 2 2 -3 -1 -11
-7 -17z"/>
<path d="M2110 1646 c0 -4 7 -14 15 -22 8 -9 15 -11 15 -6 0 5 -7 15 -15 22
-8 7 -15 9 -15 6z"/>
<path d="M2744 1633 c-8 -14 -7 -22 8 -37 16 -17 18 -18 18 -3 0 9 -5 17 -11
17 -6 0 -8 9 -4 20 8 25 3 26 -11 3z"/>
<path d="M3211 1614 c0 -11 3 -14 6 -6 3 7 2 16 -1 19 -3 4 -6 -2 -5 -13z"/>
<path d="M1101 1603 c0 -7 -7 -13 -15 -13 -8 0 -18 -5 -22 -11 -4 -8 0 -9 15
-4 25 8 27 -3 4 -21 -13 -9 -5 -9 27 2 51 18 68 30 28 20 -22 -5 -27 -2 -31
16 -2 13 -5 17 -6 11z"/>
<path d="M2150 1601 c0 -5 5 -13 10 -16 6 -3 10 -2 10 4 0 5 -4 13 -10 16 -5
3 -10 2 -10 -4z"/>
<path d="M751 1584 c0 -11 3 -14 6 -6 3 7 2 16 -1 19 -3 4 -6 -2 -5 -13z"/>
<path d="M1355 1589 c-4 -6 -17 -14 -29 -19 -14 -6 -16 -9 -5 -9 9 -1 24 8 34
19 10 11 15 20 12 20 -3 0 -9 -5 -12 -11z"/>
<path d="M2070 1586 c0 -8 -6 -16 -12 -18 -10 -4 -10 -10 0 -29 l12 -24 -6 24
c-3 13 -2 21 3 18 5 -3 10 5 11 19 1 13 0 24 -3 24 -3 0 -5 -6 -5 -14z"/>
<path d="M2727 1584 c3 -7 9 -14 15 -14 5 0 6 -5 2 -12 -4 -7 -3 -8 4 -4 14 8
5 33 -13 40 -9 3 -12 0 -8 -10z"/>
<path d="M2361 1573 c-1 -17 4 -22 19 -20 11 2 23 7 27 12 5 4 2 5 -4 1 -8 -5
-13 -1 -14 11 0 16 -1 16 -8 -2 l-8 -20 -5 20 c-5 18 -6 18 -7 -2z"/>
<path d="M3213 1555 c0 -22 2 -30 4 -17 2 12 2 30 0 40 -3 9 -5 -1 -4 -23z"/>
<path d="M1230 1570 c8 -5 20 -10 25 -10 6 0 3 5 -5 10 -8 5 -19 10 -25 10 -5
0 -3 -5 5 -10z"/>
<path d="M2711 1564 c0 -11 3 -14 6 -6 3 7 2 16 -1 19 -3 4 -6 -2 -5 -13z"/>
<path d="M1030 1555 c0 -9 5 -15 11 -13 6 2 11 8 11 13 0 5 -5 11 -11 13 -6 2
-11 -4 -11 -13z"/>
<path d="M1290 1561 c0 -10 19 -25 25 -20 1 2 -3 10 -11 17 -8 7 -14 8 -14 3z"/>
<path d="M2140 1559 c0 -15 15 -17 33 -4 16 11 15 13 -8 13 -14 0 -25 -4 -25
-9z"/>
<path d="M40 1544 c0 -8 5 -12 10 -9 6 4 8 11 5 16 -9 14 -15 11 -15 -7z"/>
<path d="M752 1535 c0 -16 2 -22 5 -12 2 9 2 23 0 30 -3 6 -5 -1 -5 -18z"/>
<path d="M2190 1540 c0 -5 4 -10 9 -10 6 0 13 5 16 10 3 6 -1 10 -9 10 -9 0
-16 -4 -16 -10z"/>
<path d="M21 1520 c-1 -14 -4 -36 -6 -50 l-6 -25 11 25 c6 13 9 36 7 50 l-4
25 -2 -25z"/>
<path d="M2401 1523 c7 -12 15 -20 18 -17 3 2 -3 12 -13 22 -17 16 -18 16 -5
-5z"/>
<path d="M2685 1531 c-3 -6 -1 -10 6 -9 6 2 14 -3 17 -11 3 -9 0 -11 -8 -6 -8
5 -11 3 -8 -6 3 -8 -11 -32 -31 -54 l-36 -40 38 35 c52 48 63 68 44 87 -10 11
-17 12 -22 4z"/>
<path d="M991 1514 c0 -11 3 -14 6 -6 3 7 2 16 -1 19 -3 4 -6 -2 -5 -13z"/>
<path d="M1021 1514 c0 -11 3 -14 6 -6 3 7 2 16 -1 19 -3 4 -6 -2 -5 -13z"/>
<path d="M2040 1518 c0 -10 -4 -18 -10 -18 -5 0 -6 -7 -3 -17 4 -11 3 -14 -5
-9 -8 5 -10 1 -5 -10 6 -15 8 -14 17 7 6 13 14 26 18 29 4 3 3 12 -2 20 -8 13
-10 12 -10 -2z"/>
<path d="M2207 1515 c-4 -8 -1 -17 5 -21 7 -4 8 -3 4 4 -7 12 5 16 33 13 7 -2
10 2 6 8 -9 16 -42 13 -48 -4z"/>
<path d="M3190 1503 c0 -21 3 -24 9 -14 5 8 7 20 4 28 -8 21 -13 15 -13 -14z"/>
<path d="M2233 1495 c0 -7 6 -11 14 -8 7 3 13 6 13 8 0 2 -6 5 -13 8 -8 3 -14
-1 -14 -8z"/>
<path d="M2290 1500 c13 -8 12 -10 -2 -10 -10 0 -18 -4 -18 -10 0 -13 11 -12
32 4 19 14 14 26 -11 26 -14 0 -14 -2 -1 -10z"/>
<path d="M505 1479 c7 -21 6 -22 -9 -10 -14 12 -16 12 -10 -4 5 -13 4 -16 -4
-11 -7 4 -12 1 -12 -7 0 -25 12 -27 31 -3 22 28 24 42 8 52 -8 4 -9 -1 -4 -17z"/>
<path d="M730 1479 c0 -11 5 -17 10 -14 6 3 10 13 10 21 0 8 -4 14 -10 14 -5
0 -10 -9 -10 -21z"/>
<path d="M2656 1491 c-4 -5 -2 -12 3 -15 5 -4 12 -2 15 3 4 5 2 12 -3 15 -5 4
-12 2 -15 -3z"/>
<path d="M703 1475 c0 -8 4 -15 9 -15 4 0 8 4 8 9 0 6 -4 12 -8 15 -5 3 -9 -1
-9 -9z"/>
<path d="M1140 1480 c0 -5 5 -10 10 -10 6 0 10 5 10 10 0 6 -4 10 -10 10 -5 0
-10 -4 -10 -10z"/>
<path d="M1185 1482 c-13 -9 -13 -22 3 -47 10 -18 11 -16 6 13 -4 19 -2 32 4
32 5 0 10 -11 10 -25 0 -36 9 -42 30 -20 16 18 16 18 -2 4 -18 -13 -19 -12
-13 5 4 10 2 25 -4 32 -13 16 -19 17 -34 6z"/>
<path d="M1230 1486 c0 -2 8 -10 18 -17 15 -13 16 -12 3 4 -13 16 -21 21 -21
13z"/>
<path d="M2400 1483 c5 -2 8 -9 4 -14 -3 -5 0 -9 6 -9 15 0 7 23 -8 26 -7 1
-8 0 -2 -3z"/>
<path d="M38 1435 c-8 -24 -11 -42 -6 -39 5 3 6 -7 3 -23 l-5 -28 11 25 c10
21 21 110 14 110 -2 0 -9 -20 -17 -45z"/>
<path d="M980 1470 c0 -5 5 -10 10 -10 6 0 10 5 10 10 0 6 -4 10 -10 10 -5 0
-10 -4 -10 -10z"/>
<path d="M1103 1463 c-7 -2 -13 -9 -13 -15 0 -7 5 -7 13 1 8 6 17 8 20 4 4 -3
7 -1 7 5 0 13 -7 14 -27 5z"/>
<path d="M2323 1463 c9 -2 25 -2 35 0 9 3 1 5 -18 5 -19 0 -27 -2 -17 -5z"/>
<path d="M3202 1450 c0 -14 2 -19 5 -12 2 6 2 18 0 25 -3 6 -5 1 -5 -13z"/>
<path d="M1015 1450 c3 -5 8 -10 11 -10 2 0 4 5 4 10 0 6 -5 10 -11 10 -5 0
-7 -4 -4 -10z"/>
<path d="M3178 1431 c-5 -18 -8 -45 -7 -60 l0 -26 10 25 c6 13 9 40 7 60 l-3
35 -7 -34z"/>
<path d="M451 1434 c0 -11 3 -14 6 -6 3 7 2 16 -1 19 -3 4 -6 -2 -5 -13z"/>
<path d="M666 1443 c12 -2 26 -13 31 -25 8 -19 9 -19 21 8 11 27 11 27 -3 10
-13 -17 -15 -18 -15 -3 0 12 -8 17 -27 16 -22 -1 -23 -3 -7 -6z"/>
<path d="M989 1436 c8 -9 22 -16 32 -16 9 0 24 -6 31 -13 7 -8 27 -17 43 -20
38 -9 18 4 -62 39 -40 18 -53 21 -44 10z"/>
<path d="M1115 1431 c3 -5 -2 -12 -10 -14 -12 -4 -12 -5 1 -3 19 1 32 26 14
26 -6 0 -9 -4 -5 -9z"/>
<path d="M1982 1410 c-9 -15 -9 -21 1 -26 6 -4 9 -4 5 1 -4 4 -3 14 4 22 6 7
9 15 7 18 -3 2 -10 -4 -17 -15z"/>
<path d="M2585 1419 c-5 -8 -4 -10 3 -5 7 4 12 1 12 -8 0 -8 -9 -20 -21 -27
-19 -10 -20 -9 -15 13 l6 23 -12 -23 c-6 -13 -16 -21 -23 -19 -6 3 -26 -4 -45
-14 -19 -10 -28 -18 -20 -19 12 0 12 -2 2 -9 -11 -7 -10 -9 3 -14 9 -4 13 -3
10 3 -3 6 0 10 7 10 10 0 11 2 0 8 -9 6 -6 12 12 20 19 8 26 8 30 -1 5 -9 8
-8 12 2 4 9 9 10 13 2 4 -6 17 -1 36 15 26 22 27 26 13 40 -12 12 -17 13 -23
3z"/>
<path d="M737 1374 c3 -27 7 -51 9 -53 8 -9 3 75 -5 88 -5 8 -7 -5 -4 -35z"/>
<path d="M3206 1403 c-6 -14 -5 -15 5 -6 7 7 10 15 7 18 -3 3 -9 -2 -12 -12z"/>
<path d="M990 1401 c0 -5 7 -12 16 -15 14 -5 15 -4 4 9 -14 17 -20 19 -20 6z"/>
<path d="M2006 1394 c-4 -12 -2 -15 9 -11 8 4 17 2 20 -3 4 -6 0 -10 -8 -10
-8 0 -17 -7 -21 -15 -3 -8 -1 -15 4 -15 5 0 10 -6 13 -12 2 -7 2 -2 0 12 -3
25 -3 25 13 5 16 -20 16 -20 11 3 -4 18 -2 22 9 18 21 -8 17 -2 -15 22 -25 18
-30 19 -35 6z"/>
<path d="M441 1384 c0 -11 3 -14 6 -6 3 7 2 16 -1 19 -3 4 -6 -2 -5 -13z"/>
<path d="M462 1380 c0 -14 2 -19 5 -12 2 6 2 18 0 25 -3 6 -5 1 -5 -13z"/>
<path d="M930 1386 c0 -8 -6 -16 -12 -19 -7 -3 7 -3 31 -1 43 4 71 14 39 14
-9 0 -19 6 -21 13 -4 10 -6 10 -6 0 -1 -7 -6 -13 -12 -13 -5 0 -7 5 -4 10 3 6
1 10 -4 10 -6 0 -11 -6 -11 -14z"/>
<path d="M1145 1390 c3 -6 20 -10 37 -10 38 0 34 5 -10 13 -21 4 -31 3 -27 -3z"/>
<path d="M2071 1351 c-11 -7 -11 -9 0 -14 10 -4 10 -6 2 -6 -7 -1 -13 -6 -13
-12 0 -5 5 -7 10 -4 6 4 17 1 25 -5 11 -9 15 -9 15 -1 0 6 5 11 11 11 5 0 8
-4 4 -9 -3 -5 0 -13 6 -16 7 -5 9 0 7 11 -3 13 -11 18 -27 16 -20 -2 -22 0
-11 13 11 13 10 14 -5 9 -13 -5 -16 -4 -11 4 9 14 6 15 -13 3z"/>
<path d="M910 1340 c-13 -8 -13 -10 2 -10 9 0 20 5 23 10 8 13 -5 13 -25 0z"/>
<path d="M36 1323 c-6 -14 -5 -15 5 -6 7 7 10 15 7 18 -3 3 -9 -2 -12 -12z"/>
<path d="M865 1320 c-8 -25 3 -80 16 -80 5 0 8 3 8 8 -3 19 2 23 16 12 9 -7
18 -10 22 -6 3 3 1 6 -6 6 -6 0 -16 10 -21 23 -7 17 -9 18 -9 5 -1 -10 -6 -18
-12 -18 -8 0 -10 12 -6 35 6 39 2 46 -8 15z"/>
<path d="M3155 1319 c-9 -27 3 -91 15 -84 6 3 15 16 21 28 9 18 9 20 -2 10
-23 -23 -32 -14 -26 27 6 44 2 52 -8 19z"/>
<path d="M2036 1305 c-3 -9 -2 -24 2 -32 8 -13 10 -13 16 2 3 9 2 24 -2 32 -8
13 -10 13 -16 -2z"/>
<path d="M3177 1313 c-4 -3 -7 -13 -7 -22 1 -13 3 -13 11 2 11 19 8 33 -4 20z"/>
<path d="M1936 1290 c3 -14 10 -29 15 -34 14 -16 10 6 -7 34 l-15 25 7 -25z"/>
<path d="M2193 1303 c9 -2 25 -2 35 0 9 3 1 5 -18 5 -19 0 -27 -2 -17 -5z"/>
<path d="M2333 1303 c9 -2 23 -2 30 0 6 3 -1 5 -18 5 -16 0 -22 -2 -12 -5z"/>
<path d="M2425 1300 c-3 -6 1 -7 9 -4 18 7 21 14 7 14 -6 0 -13 -4 -16 -10z"/>
<path d="M40 1295 c0 -5 5 -17 10 -25 5 -8 10 -10 10 -5 0 6 -5 17 -10 25 -5
8 -10 11 -10 5z"/>
<path d="M78 1280 c-3 -14 -9 -34 -12 -45 -4 -11 0 -7 9 8 9 16 15 36 13 45
-3 12 -6 10 -10 -8z"/>
<path d="M702 1280 c0 -14 2 -19 5 -12 2 6 2 18 0 25 -3 6 -5 1 -5 -13z"/>
<path d="M991 1284 c-20 -15 -21 -18 -7 -26 9 -5 23 -5 35 1 10 6 21 7 25 4 3
-3 6 -1 6 5 0 15 -26 16 -35 2 -8 -12 -25 -13 -25 -2 0 5 10 14 23 20 12 6 17
11 12 11 -6 1 -21 -6 -34 -15z"/>
<path d="M1882 1277 l-22 -23 30 -59 c16 -32 27 -62 24 -66 -3 -5 0 -18 6 -29
6 -12 7 -20 1 -20 -5 0 -12 5 -14 10 -3 6 -4 5 -3 -2 1 -7 11 -15 21 -17 13
-2 16 1 12 14 -4 9 0 29 8 45 13 25 13 38 4 75 -6 25 -14 44 -16 41 -2 -2 1
-22 7 -45 13 -51 2 -82 -19 -49 -11 18 -11 20 4 14 13 -5 16 -2 11 10 -3 8 -6
18 -6 21 0 3 -6 0 -14 -6 -11 -9 -15 -7 -19 11 -8 28 1 37 14 18 9 -12 10 -11
5 4 -4 10 -1 25 5 33 10 11 9 17 -2 29 -13 13 -18 12 -37 -9z m21 -4 c-5 -12
-3 -14 8 -8 8 5 5 -1 -5 -14 -13 -14 -23 -18 -30 -11 -6 6 -3 16 9 30 22 24
26 25 18 3z"/>
<path d="M2070 1295 c0 -5 5 -17 10 -25 5 -8 10 -10 10 -5 0 6 -5 17 -10 25
-5 8 -10 11 -10 5z"/>
<path d="M2158 1289 c12 -11 98 -21 87 -11 -5 6 -29 12 -52 14 -23 2 -39 1
-35 -3z"/>
<path d="M427 1279 c7 -7 15 -10 18 -7 3 3 -2 9 -12 12 -14 6 -15 5 -6 -5z"/>
<path d="M1095 1280 c-3 -5 1 -10 10 -10 9 0 13 5 10 10 -3 6 -8 10 -10 10 -2
0 -7 -4 -10 -10z"/>
<path d="M2320 1281 c0 -6 17 -7 38 -4 51 8 53 13 4 13 -23 0 -42 -4 -42 -9z"/>
<path d="M2288 1273 c7 -3 16 -2 19 1 4 3 -2 6 -13 5 -11 0 -14 -3 -6 -6z"/>
<path d="M944 1248 c-4 -7 -3 -8 4 -4 7 4 12 1 12 -8 0 -9 4 -16 8 -16 5 0 9
7 9 15 0 18 -24 28 -33 13z"/>
<path d="M1088 1253 c18 -4 22 -9 16 -26 -8 -26 -2 -21 15 11 11 21 10 22 -21
21 -24 -1 -27 -3 -10 -6z"/>
<path d="M696 1239 c2 -4 -1 -9 -8 -11 -7 -3 -3 -7 9 -10 14 -4 20 -2 17 6 -2
6 5 12 17 13 17 2 19 -1 10 -10 -6 -6 -11 -16 -11 -21 0 -6 5 -4 10 4 9 13 11
13 20 0 5 -8 10 -10 10 -5 0 23 -21 40 -49 41 -16 0 -28 -3 -25 -7z"/>
<path d="M3141 1240 c0 -8 4 -22 9 -30 12 -18 12 -2 0 25 -6 13 -9 15 -9 5z"/>
<path d="M430 1231 c0 -6 5 -13 10 -16 6 -3 10 1 10 9 0 9 -4 16 -10 16 -5 0
-10 -4 -10 -9z"/>
<path d="M908 1228 c5 -5 16 -8 23 -6 8 3 3 7 -10 11 -17 4 -21 3 -13 -5z"/>
<path d="M1075 1219 c-5 -14 -10 -17 -14 -10 -4 7 -14 -3 -25 -25 -9 -20 -15
-39 -12 -41 2 -2 7 5 11 18 6 17 9 19 16 8 5 -8 6 -23 3 -34 -8 -24 -1 -19 16
14 8 15 8 21 1 17 -15 -10 -14 0 5 35 8 17 13 33 11 36 -3 2 -8 -5 -12 -18z"/>
<path d="M464 1195 c-4 -14 -4 -29 0 -32 3 -4 6 3 6 15 0 12 5 22 10 22 6 0
10 5 10 10 0 21 -20 9 -26 -15z"/>
<path d="M1961 1204 c0 -11 3 -14 6 -6 3 7 2 16 -1 19 -3 4 -6 -2 -5 -13z"/>
<path d="M76 1193 c-6 -14 -5 -15 5 -6 7 7 10 15 7 18 -3 3 -9 -2 -12 -12z"/>
<path d="M535 1199 c-4 -6 -12 -8 -19 -6 -6 3 -17 -2 -25 -10 -12 -13 -11 -14
10 -8 30 9 68 35 52 35 -7 0 -15 -5 -18 -11z"/>
<path d="M2070 1178 c0 -19 -2 -20 -10 -8 -5 8 -10 10 -10 4 0 -18 28 -49 37
-40 4 5 3 11 -3 13 -6 2 -9 15 -6 28 2 14 2 25 -2 25 -3 0 -6 -10 -6 -22z"/>
<path d="M3123 1184 c-3 -8 0 -21 7 -27 10 -9 11 -9 5 2 -6 11 -4 13 9 8 14
-6 15 -3 6 13 -13 24 -19 25 -27 4z"/>
<path d="M1768 1166 c-27 -22 -39 -44 -18 -31 6 3 10 2 10 -3 0 -6 -7 -13 -16
-16 -12 -5 -14 -10 -5 -20 6 -7 7 -17 3 -21 -4 -5 -2 -5 5 -1 7 4 10 13 6 21
-3 9 1 15 11 15 19 0 22 30 4 30 -7 0 0 12 15 25 15 14 24 25 20 25 -4 0 -20
-11 -35 -24z"/>
<path d="M88 1156 c-3 -14 -2 -23 3 -21 4 3 10 -5 12 -17 3 -18 5 -17 5 7 2
41 -14 65 -20 31z"/>
<path d="M765 1171 c-7 -13 26 -82 37 -75 4 3 8 10 8 15 0 6 -4 7 -10 4 -14
-9 -12 19 2 33 9 9 9 15 -1 25 -10 10 -12 9 -9 -5 1 -9 -1 -16 -7 -15 -5 1 -9
8 -7 15 3 14 -4 16 -13 3z"/>
<path d="M1790 1155 c0 -5 5 -17 10 -25 5 -8 10 -10 10 -5 0 6 -5 17 -10 25
-5 8 -10 11 -10 5z"/>
<path d="M461 1134 c0 -11 3 -14 6 -6 3 7 2 16 -1 19 -3 4 -6 -2 -5 -13z"/>
<path d="M2029 1117 c-16 -32 -16 -32 9 -34 17 -1 21 2 13 10 -17 17 -13 31 4
17 10 -9 15 -9 15 -1 0 6 -4 11 -9 11 -5 0 -11 6 -13 14 -2 8 -10 1 -19 -17z"/>
<path d="M821 1120 c14 -31 19 -36 19 -24 0 6 -7 19 -16 30 -14 18 -14 18 -3
-6z"/>
<path d="M3141 1124 c0 -11 3 -14 6 -6 3 7 2 16 -1 19 -3 4 -6 -2 -5 -13z"/>
<path d="M1006 1121 c-4 -7 -5 -15 -2 -18 9 -9 19 4 14 18 -4 11 -6 11 -12 0z"/>
<path d="M3108 1118 c0 -7 -2 -18 -2 -24 -1 -6 -7 -19 -15 -28 -9 -10 -11 -25
-5 -43 4 -16 6 -35 5 -43 -1 -12 0 -12 7 -1 6 8 5 24 -2 42 -8 23 -8 32 2 38
16 9 34 71 21 71 -5 0 -10 -6 -11 -12z"/>
<path d="M491 1105 c3 -39 -2 -51 -11 -30 -6 13 -9 15 -9 5 0 -18 28 -69 30
-55 6 36 5 72 -3 85 -7 12 -8 11 -7 -5z"/>
<path d="M122 1078 c-8 -23 -9 -35 -1 -43 7 -7 10 -6 9 5 -4 28 0 41 10 35 12
-7 13 5 2 22 -5 8 -12 2 -20 -19z"/>
<path d="M1806 1097 c3 -8 -7 -22 -21 -33 -14 -10 -25 -25 -25 -33 0 -8 9 -3
21 12 11 15 23 26 27 24 8 -2 12 7 12 28 0 8 -4 15 -10 15 -5 0 -7 -6 -4 -13z"/>
<path d="M3131 1084 c0 -11 3 -14 6 -6 3 7 2 16 -1 19 -3 4 -6 -2 -5 -13z"/>
<path d="M990 1081 c0 -5 5 -13 10 -16 6 -3 10 -2 10 4 0 5 -4 13 -10 16 -5 3
-10 2 -10 -4z"/>
<path d="M824 1065 c-4 -9 0 -30 7 -47 7 -17 15 -26 17 -19 2 6 -1 18 -8 26
-6 8 -9 23 -5 35 7 23 -3 28 -11 5z"/>
<path d="M1016 1064 c-4 -9 -4 -19 -1 -22 2 -3 7 3 11 12 4 9 4 19 1 22 -2 3
-7 -3 -11 -12z"/>
<path d="M1649 1072 c-2 -5 -26 -23 -54 -40 -27 -18 -45 -32 -38 -32 6 0 15 5
18 10 9 14 23 13 28 -2 2 -7 3 -5 2 5 -4 20 11 23 19 5 3 -7 4 -5 3 4 -1 9 7
24 18 32 11 8 17 17 14 21 -4 3 -9 2 -10 -3z"/>
<path d="M851 1065 c0 -5 3 -26 8 -45 6 -26 4 -39 -6 -48 -10 -10 -13 -10 -13
-1 0 7 -3 10 -6 6 -3 -3 -3 -10 1 -16 4 -7 14 -5 30 6 12 10 20 23 16 28 -3 6
-11 26 -17 45 -7 19 -12 31 -13 25z"/>
<path d="M1941 1061 c-8 -5 -9 -11 -3 -15 5 -3 15 1 22 9 14 16 3 20 -19 6z"/>
<path d="M141 1029 c-8 -24 -7 -36 5 -57 14 -25 13 -15 -2 23 -5 11 -2 13 10
9 9 -3 16 -14 16 -24 0 -10 7 -23 15 -30 12 -10 11 -5 -2 29 -9 22 -20 38 -26
34 -6 -4 -7 4 -3 21 9 36 0 33 -13 -5z"/>
<path d="M520 1047 c0 -14 25 -47 36 -47 4 0 -18 38 -33 59 -2 2 -3 -3 -3 -12z"/>
<path d="M980 1046 c0 -8 5 -18 10 -21 6 -3 10 1 10 9 0 8 -4 18 -10 21 -5 3
-10 -1 -10 -9z"/>
<path d="M1900 1059 c0 -4 7 -22 15 -40 8 -19 14 -26 15 -17 0 9 6 19 13 21 7
3 5 6 -5 6 -9 1 -22 9 -27 19 -6 9 -11 14 -11 11z"/>
<path d="M3117 1053 c-4 -3 -7 -13 -7 -22 1 -13 3 -13 11 2 11 19 8 33 -4 20z"/>
<path d="M1650 1034 c-9 -11 -10 -15 -2 -10 6 4 12 2 12 -3 0 -6 -4 -11 -10
-11 -5 0 -9 -12 -9 -27 2 -24 2 -25 6 -5 7 35 20 26 15 -10 -3 -18 -2 -31 1
-28 9 9 14 74 8 93 -7 18 -8 18 -21 1z"/>
<path d="M1795 1036 c-23 -25 -26 -40 -4 -19 12 12 21 24 18 27 -2 2 -9 -1
-14 -8z"/>
<path d="M2010 1039 c0 -5 5 -7 10 -4 6 3 10 8 10 11 0 2 -4 4 -10 4 -5 0 -10
-5 -10 -11z"/>
<path d="M918 1033 c6 -2 18 -2 25 0 6 3 1 5 -13 5 -14 0 -19 -2 -12 -5z"/>
<path d="M952 1024 c-7 -8 -9 -14 -3 -14 5 0 26 -15 46 -32 20 -18 40 -33 43
-33 14 0 32 -17 28 -24 -3 -4 2 -8 10 -8 11 0 9 7 -8 26 -13 14 -26 31 -31 36
-4 6 -5 1 -1 -10 4 -14 -4 -10 -28 15 -19 19 -37 40 -39 47 -3 8 -8 7 -17 -3z"/>
<path d="M1878 1001 c-14 -26 -14 -30 -1 -35 12 -5 13 -9 3 -21 -7 -8 -21 -15
-31 -15 -10 0 -21 -4 -24 -10 -8 -13 8 -13 38 1 14 6 30 22 36 36 15 33 14 38
-6 22 -15 -12 -16 -12 -10 4 4 10 7 21 7 23 0 3 4 2 10 -1 6 -3 7 1 4 9 -8 20
-6 21 -26 -13z"/>
<path d="M3045 968 c-12 -26 -13 -29 -1 -15 14 18 15 17 21 -3 4 -13 2 -27 -5
-34 -10 -8 -12 -7 -7 7 4 11 3 16 -4 12 -5 -4 -7 -15 -4 -26 4 -11 2 -19 -5
-19 -6 0 -8 -5 -4 -11 4 -6 13 1 23 18 25 40 33 66 20 57 -7 -4 -9 0 -5 14 11
35 -12 35 -29 0z"/>
<path d="M520 984 c0 -5 7 -18 15 -28 8 -11 15 -16 15 -10 0 5 -7 18 -15 28
-8 11 -15 16 -15 10z"/>
<path d="M560 984 c0 -13 18 -39 24 -34 2 3 -2 14 -10 24 -8 11 -14 16 -14 10z"/>
<path d="M1591 964 c0 -11 3 -14 6 -6 3 7 2 16 -1 19 -3 4 -6 -2 -5 -13z"/>
<path d="M1780 968 c0 -10 5 -18 11 -18 7 0 9 -9 6 -22 -6 -22 -6 -22 8 -4 11
14 12 22 4 27 -6 4 -15 13 -20 20 -7 11 -9 10 -9 -3z"/>
<path d="M1750 957 c0 -9 5 -17 11 -17 6 0 8 -7 4 -17 -5 -14 -3 -15 6 -6 9 9
8 17 -5 34 -13 19 -16 20 -16 6z"/>
<path d="M1454 945 c-18 -15 -18 -15 0 -8 12 4 17 3 13 -4 -3 -5 0 -10 7 -10
8 0 11 8 8 19 -5 22 -4 22 -28 3z"/>
<path d="M1572 940 c0 -14 2 -19 5 -12 2 6 2 18 0 25 -3 6 -5 1 -5 -13z"/>
<path d="M1850 950 c0 -5 5 -10 10 -10 6 0 10 5 10 10 0 6 -4 10 -10 10 -5 0
-10 -4 -10 -10z"/>
<path d="M816 933 c-6 -14 -5 -15 5 -6 7 7 10 15 7 18 -3 3 -9 -2 -12 -12z"/>
<path d="M1602 923 c-12 -15 -22 -36 -21 -48 0 -14 2 -15 6 -5 15 46 15 46 23
25 8 -18 9 -18 9 6 1 14 6 30 13 37 7 7 8 12 2 12 -6 0 -20 -12 -32 -27z"/>
<path d="M594 907 c1 -24 5 -33 18 -33 10 0 18 4 18 9 0 4 5 5 11 2 6 -4 8
-12 6 -19 -3 -6 4 -12 14 -12 17 0 17 2 -2 22 -13 13 -28 20 -37 17 -11 -5
-14 -2 -9 10 3 8 0 20 -7 26 -10 8 -12 3 -12 -22z"/>
<path d="M566 922 c-2 -4 -1 -14 4 -22 7 -11 9 -9 7 8 -1 24 -3 26 -11 14z"/>
<path d="M1440 913 c0 -6 -12 -10 -27 -10 -29 1 -129 -41 -120 -50 3 -2 18 2
34 11 21 10 33 12 44 4 11 -8 11 -9 -3 -5 -9 3 -21 0 -27 -7 -9 -10 -5 -13 15
-10 15 1 38 15 50 31 15 18 24 23 24 13 0 -12 3 -11 11 3 6 10 8 21 5 24 -3 4
-6 2 -6 -4z m-40 -23 c0 -5 -7 -10 -16 -10 -8 0 -12 5 -9 10 3 6 10 10 16 10
5 0 9 -4 9 -10z"/>
<path d="M192 875 c6 -14 15 -25 20 -25 5 0 1 11 -8 25 -9 14 -18 25 -20 25
-2 0 2 -11 8 -25z"/>
<path d="M215 890 c3 -5 11 -10 16 -10 6 0 7 5 4 10 -3 6 -11 10 -16 10 -6 0
-7 -4 -4 -10z"/>
<path d="M772 877 c-12 -13 -22 -29 -22 -36 0 -7 -4 -9 -10 -6 -5 3 -10 1 -10
-5 0 -6 -4 -9 -8 -6 -10 6 -9 -35 1 -51 5 -7 14 -13 20 -13 7 0 4 7 -6 14 -19
15 -13 46 9 46 8 0 14 8 14 17 0 9 10 27 22 40 12 13 19 23 16 23 -2 0 -14
-10 -26 -23z"/>
<path d="M1085 890 c-4 -6 -3 -10 2 -9 19 3 27 -2 16 -9 -10 -7 -10 -12 0 -27
11 -14 16 -15 22 -5 5 9 4 11 -3 6 -7 -4 -12 -1 -12 8 0 19 11 20 30 4 8 -7 4
-1 -9 15 -26 29 -36 33 -46 17z"/>
<path d="M1731 895 c0 -5 4 -19 8 -29 7 -19 8 -19 13 2 4 12 2 20 -2 17 -5 -3
-11 1 -13 7 -3 7 -5 9 -6 3z"/>
<path d="M234 852 c-4 -12 -11 -19 -16 -16 -6 4 -5 -3 1 -15 14 -25 23 -28 14
-4 -4 11 -3 14 5 9 8 -5 10 -1 5 10 -4 12 -3 15 5 10 7 -4 12 -15 12 -25 0
-18 18 -41 34 -41 5 0 2 8 -7 18 -10 10 -17 23 -17 28 0 5 -7 18 -16 29 -14
19 -15 19 -20 -3z"/>
<path d="M1595 849 c-5 -15 -10 -18 -15 -9 -5 8 -9 7 -14 -5 -9 -24 -7 -32 4
-15 11 17 13 1 4 -25 -6 -13 -9 -14 -16 -3 -7 9 -8 7 -2 -7 4 -11 7 -28 8 -38
0 -17 1 -17 12 -2 7 9 10 26 7 38 -4 18 -3 19 7 7 9 -12 10 -11 5 7 -3 13 -1
31 5 40 10 16 11 16 7 -4 -5 -23 18 -52 31 -38 4 4 1 10 -5 12 -7 3 -13 12
-13 20 0 14 3 14 19 -1 11 -10 17 -24 14 -32 -9 -25 12 -15 24 12 10 22 9 24
-5 20 -10 -4 -28 4 -44 19 -27 25 -27 25 -33 4z"/>
<path d="M1706 854 c-3 -8 -2 -12 3 -9 23 14 18 -16 -5 -34 -19 -15 -22 -21
-11 -21 22 0 46 37 40 61 -6 23 -19 25 -27 3z"/>
<path d="M685 840 c-3 -5 -2 -10 4 -10 5 0 13 5 16 10 3 6 2 10 -4 10 -5 0
-13 -4 -16 -10z"/>
<path d="M650 831 c0 -9 30 -24 36 -18 2 1 -6 8 -16 15 -11 7 -20 8 -20 3z"/>
<path d="M1438 825 c5 -11 11 -26 13 -33 3 -7 12 0 22 18 15 25 16 29 2 24 -8
-3 -15 -11 -15 -17 0 -6 -7 -2 -16 9 -15 19 -15 19 -6 -1z"/>
<path d="M2977 829 c7 -7 15 -10 18 -7 3 3 -2 9 -12 12 -14 6 -15 5 -6 -5z"/>
<path d="M1308 823 c7 -3 16 -2 19 1 4 3 -2 6 -13 5 -11 0 -14 -3 -6 -6z"/>
<path d="M1208 813 c7 -3 16 -2 19 1 4 3 -2 6 -13 5 -11 0 -14 -3 -6 -6z"/>
<path d="M2971 799 c9 -22 8 -32 -6 -53 -10 -15 -16 -28 -14 -31 3 -2 17 19
33 48 16 29 23 47 16 40 -11 -10 -16 -9 -27 5 -12 15 -12 13 -2 -9z"/>
<path d="M1210 800 c-19 -4 -28 -8 -20 -10 23 -4 53 1 70 11 13 7 13 8 0 7 -8
0 -31 -4 -50 -8z"/>
<path d="M1415 800 c-3 -5 -1 -10 4 -10 6 0 11 5 11 10 0 6 -2 10 -4 10 -3 0
-8 -4 -11 -10z"/>
<path d="M2950 791 c0 -6 4 -13 10 -16 6 -3 7 1 4 9 -7 18 -14 21 -14 7z"/>
<path d="M268 746 c15 -24 30 -42 34 -40 3 2 9 -2 11 -8 4 -10 6 -10 6 0 1 7
6 10 11 7 6 -4 3 10 -7 29 -9 20 -18 34 -21 32 -2 -2 2 -14 8 -26 6 -12 10
-24 7 -26 -7 -8 -37 26 -37 41 0 8 -9 19 -20 25 -17 9 -16 4 8 -34z"/>
<path d="M760 775 c0 -2 10 -10 23 -16 20 -11 21 -11 8 4 -13 16 -31 23 -31
12z"/>
<path d="M1129 766 c10 -12 6 -15 -21 -21 -18 -4 -41 -9 -52 -12 -12 -3 -16
-1 -12 6 5 7 1 8 -9 4 -27 -10 5 -24 39 -17 16 3 34 7 41 8 38 5 53 46 18 46
-12 0 -13 -3 -4 -14z"/>
<path d="M1400 759 c0 -24 29 -76 30 -52 0 6 -5 15 -11 18 -6 4 -8 13 -6 19 3
7 1 19 -4 27 -6 10 -9 7 -9 -12z"/>
<path d="M1540 759 c0 -6 -10 -20 -22 -31 -20 -17 -18 -17 10 2 18 12 30 26
27 31 -8 12 -15 11 -15 -2z"/>
<path d="M2925 760 c-3 -6 1 -7 9 -4 18 7 21 14 7 14 -6 0 -13 -4 -16 -10z"/>
<path d="M850 740 c31 -17 32 -19 12 -20 -13 0 -32 5 -42 10 -13 7 -21 7 -25
0 -3 -5 -3 -10 2 -10 4 0 25 -4 45 -9 48 -11 61 12 18 34 -42 22 -51 18 -10
-5z"/>
<path d="M1430 749 c0 -5 5 -7 10 -4 6 3 10 8 10 11 0 2 -4 4 -10 4 -5 0 -10
-5 -10 -11z"/>
<path d="M755 740 c3 -5 8 -10 11 -10 2 0 4 5 4 10 0 6 -5 10 -11 10 -5 0 -7
-4 -4 -10z"/>
<path d="M2920 725 c-10 -12 -10 -15 0 -15 7 0 10 -7 6 -16 -3 -8 -2 -13 3
-10 7 5 13 56 6 56 -1 0 -8 -7 -15 -15z"/>
<path d="M950 720 c8 -5 26 -10 39 -10 32 0 24 6 -19 14 -25 4 -31 3 -20 -4z"/>
<path d="M1098 713 c7 -3 16 -2 19 1 4 3 -2 6 -13 5 -11 0 -14 -3 -6 -6z"/>
<path d="M1470 700 c23 -20 30 -24 30 -16 0 9 -32 36 -42 36 -6 0 -1 -9 12
-20z"/>
<path d="M1530 710 c0 -5 4 -10 9 -10 6 0 13 5 16 10 3 6 -1 10 -9 10 -9 0
-16 -4 -16 -10z"/>
<path d="M932 699 c7 -5 36 -8 63 -8 60 1 50 6 -23 12 -32 2 -48 1 -40 -4z"/>
<path d="M1058 703 c7 -3 16 -2 19 1 4 3 -2 6 -13 5 -11 0 -14 -3 -6 -6z"/>
<path d="M2889 703 c0 -5 -2 -18 -5 -30 -5 -27 10 -38 25 -19 9 10 8 15 -4 19
-8 4 -12 13 -9 22 3 8 3 15 0 15 -3 0 -6 -3 -7 -7z"/>
<path d="M1436 692 c-3 -5 1 -9 9 -9 8 0 12 4 9 9 -3 4 -7 8 -9 8 -2 0 -6 -4
-9 -8z"/>
<path d="M325 660 c10 -11 20 -20 23 -20 3 0 -3 9 -13 20 -10 11 -20 20 -23
20 -3 0 3 -9 13 -20z"/>
<path d="M340 676 c0 -2 7 -9 15 -16 9 -7 15 -8 15 -2 0 5 -7 12 -15 16 -8 3
-15 4 -15 2z"/>
<path d="M390 644 c0 -16 30 -54 43 -54 8 0 9 3 1 8 -5 4 -18 18 -27 32 -9 13
-17 20 -17 14z"/>
<path d="M370 620 c0 -5 5 -10 11 -10 5 0 7 5 4 10 -3 6 -8 10 -11 10 -2 0 -4
-4 -4 -10z"/>
<path d="M2825 609 c-4 -6 -5 -12 -2 -15 2 -3 7 2 10 11 7 17 1 20 -8 4z"/>
<path d="M387 585 c3 -8 9 -12 14 -9 12 7 11 11 -5 17 -10 4 -13 1 -9 -8z"/>
<path d="M2835 580 c-14 -16 -20 -17 -26 -8 -6 10 -12 8 -26 -6 -12 -14 -13
-16 -2 -8 16 12 29 7 29 -10 0 -5 -4 -6 -10 -3 -5 3 -10 1 -10 -5 0 -19 22 -6
48 28 27 36 25 43 -3 12z"/>
<path d="M438 568 c18 -18 15 -28 -5 -21 -12 5 -8 -5 12 -28 27 -30 32 -33 46
-19 13 13 13 16 1 24 -9 5 -17 4 -22 -4 -6 -9 -9 -9 -16 1 -4 7 -3 14 4 17 13
4 -7 42 -22 42 -6 0 -5 -5 2 -12z"/>
<path d="M2715 499 c-3 -4 2 -6 10 -5 21 3 28 13 10 13 -9 0 -18 -4 -20 -8z"/>
<path d="M2749 483 l-24 -28 28 24 c15 14 27 26 27 28 0 8 -8 1 -31 -24z"/>
<path d="M495 490 c-3 -6 1 -7 9 -4 18 7 21 14 7 14 -6 0 -13 -4 -16 -10z"/>
<path d="M511 471 c-8 -6 -9 -11 -3 -15 6 -3 14 -1 17 5 9 14 2 20 -14 10z"/>
<path d="M542 456 c-9 -20 -8 -27 6 -38 15 -11 15 -11 5 2 -7 9 -8 21 -4 29 6
9 10 7 14 -8 3 -12 13 -21 22 -21 19 0 45 -23 45 -39 0 -6 5 -11 11 -11 6 0
17 -7 25 -15 9 -8 20 -15 26 -15 6 0 -11 20 -38 45 -27 24 -57 45 -67 45 -10
0 -16 3 -13 8 2 4 -1 15 -8 24 -12 16 -14 16 -24 -6z"/>
<path d="M2665 440 c6 -10 4 -12 -11 -6 -10 4 -15 4 -12 0 4 -3 -1 -14 -10
-23 -10 -9 -12 -12 -5 -7 12 8 17 2 14 -16 0 -4 6 -5 15 -1 13 5 13 7 2 14
-10 6 -9 11 6 22 15 11 16 16 6 22 -9 6 -11 4 -5 -5z"/>
<path d="M614 366 c28 -25 52 -43 55 -40 3 3 -2 10 -13 16 -10 5 -25 19 -35
30 -9 11 -25 24 -36 29 -11 6 2 -10 29 -35z"/>
<path d="M2606 363 c-4 -4 -15 -8 -24 -8 -9 0 -17 -4 -17 -10 0 -15 -15 -35
-26 -35 -6 0 -6 8 1 20 7 14 7 20 0 20 -5 0 -10 -4 -10 -9 0 -5 -8 -18 -17
-27 -17 -17 -17 -18 0 -11 9 3 17 2 17 -4 0 -6 19 4 43 22 23 18 44 34 46 36
2 2 2 5 -1 8 -2 3 -8 2 -12 -2z"/>
<path d="M696 327 c-16 -12 -16 -14 6 -32 19 -17 21 -17 8 -2 -12 16 -12 20 0
27 8 5 12 11 9 14 -3 3 -13 0 -23 -7z"/>
<path d="M2477 305 c-4 -8 -14 -15 -24 -15 -15 0 -15 -2 -3 -9 10 -7 18 -4 28
10 8 11 12 22 9 25 -2 3 -7 -2 -10 -11z"/>
<path d="M775 284 c9 -9 14 -18 12 -20 -7 -7 -37 7 -37 17 0 5 -4 9 -10 9 -21
0 -8 -16 31 -38 23 -13 39 -19 35 -14 -3 6 -3 12 1 15 5 2 3 3 -3 1 -6 -1 -11
4 -11 11 0 7 7 11 16 8 9 -2 5 3 -9 11 -33 20 -46 20 -25 0z"/>
<path d="M2470 262 c-19 -19 -20 -22 -5 -14 37 21 47 29 39 34 -5 2 -20 -7
-34 -20z"/>
<path d="M2422 268 c2 -7 -5 -12 -14 -12 -10 1 -18 -2 -18 -6 0 -9 42 -21 49
-15 2 3 -1 5 -9 5 -10 0 -10 3 -1 14 8 10 9 16 1 21 -6 4 -9 1 -8 -7z"/>
<path d="M873 233 c3 -5 24 -18 46 -29 41 -19 53 -34 28 -34 -7 0 -18 5 -25
12 -6 6 -15 9 -18 5 -10 -9 86 -49 105 -44 10 3 7 5 -7 6 -13 0 -21 5 -18 10
3 4 -2 15 -12 22 -25 21 -106 64 -99 52z"/>
<path d="M846 221 c-3 -5 3 -11 15 -14 16 -4 18 -3 8 9 -13 16 -16 17 -23 5z"/>
<path d="M2357 199 c7 -7 15 -10 18 -7 3 3 -2 9 -12 12 -14 6 -15 5 -6 -5z"/>
<path d="M1010 167 c8 -7 20 -21 26 -32 6 -10 17 -21 25 -23 8 -2 5 3 -6 12
-19 16 -19 17 15 11 l35 -6 -45 25 c-48 27 -75 34 -50 13z"/>
<path d="M2203 164 c-36 -15 -45 -29 -13 -19 10 3 27 2 37 -3 12 -6 29 -3 53
10 26 14 28 17 10 13 -14 -4 -36 -9 -50 -11 -21 -3 -22 -3 -6 4 11 5 15 11 10
14 -5 3 -24 -1 -41 -8z"/>
<path d="M2120 130 c-12 -8 -11 -10 6 -10 11 0 26 -6 33 -12 11 -11 13 -10 7
5 -3 10 -6 21 -6 23 0 7 -25 4 -40 -6z"/>
<path d="M1100 110 c-12 -7 -10 -9 7 -7 12 0 19 5 17 9 -6 10 -6 10 -24 -2z"/>
<path d="M2054 109 c-3 -6 0 -15 7 -20 9 -5 10 -9 2 -9 -20 0 -43 12 -38 20 3
5 -7 5 -22 1 -29 -8 -35 -23 -11 -29 9 -2 8 0 -2 8 -12 10 -10 11 10 6 67 -17
80 -18 80 -8 0 6 -5 14 -11 18 -8 4 -7 9 2 15 10 6 10 9 2 9 -6 0 -15 -5 -19
-11z"/>
<path d="M1165 100 c3 -5 14 -10 23 -10 15 0 15 2 2 10 -20 13 -33 13 -25 0z"/>
<path d="M1218 93 c6 -2 18 -2 25 0 6 3 1 5 -13 5 -14 0 -19 -2 -12 -5z"/>
<path d="M1256 85 c-3 -8 -1 -15 3 -15 5 0 11 7 15 15 3 8 1 15 -3 15 -5 0
-11 -7 -15 -15z"/>
<path d="M2108 93 c7 -3 16 -2 19 1 4 3 -2 6 -13 5 -11 0 -14 -3 -6 -6z"/>
<path d="M1928 83 c7 -3 16 -2 19 1 4 3 -2 6 -13 5 -11 0 -14 -3 -6 -6z"/>
<path d="M1184 73 c10 -10 46 -11 40 -1 -3 4 -15 8 -26 8 -12 0 -18 -3 -14 -7z"/>
<path d="M1358 63 c12 -2 30 -2 40 0 9 3 -1 5 -23 4 -22 0 -30 -2 -17 -4z"/>
<path d="M1833 63 c9 -2 23 -2 30 0 6 3 -1 5 -18 5 -16 0 -22 -2 -12 -5z"/>
<path d="M1938 63 c7 -3 16 -2 19 1 4 3 -2 6 -13 5 -11 0 -14 -3 -6 -6z"/>
<path d="M2005 60 c-3 -6 1 -7 9 -4 18 7 21 14 7 14 -6 0 -13 -4 -16 -10z"/>
<path d="M1448 53 c6 -2 18 -2 25 0 6 3 1 5 -13 5 -14 0 -19 -2 -12 -5z"/>
<path d="M1728 53 c6 -2 18 -2 25 0 6 3 1 5 -13 5 -14 0 -19 -2 -12 -5z"/>
<path d="M1965 50 c-3 -6 1 -7 9 -4 18 7 21 14 7 14 -6 0 -13 -4 -16 -10z"/>
<path d="M1318 43 c7 -3 16 -2 19 1 4 3 -2 6 -13 5 -11 0 -14 -3 -6 -6z"/>
<path d="M1357 43 c-3 -5 9 -9 26 -10 26 -1 28 0 12 7 -26 11 -33 12 -38 3z"/>
<path d="M1490 39 c-12 -8 -9 -10 12 -6 15 2 29 -1 31 -7 2 -6 8 -8 12 -4 11
10 -4 28 -23 28 -9 0 -24 -5 -32 -11z"/>
<path d="M1582 25 c-17 -20 5 -20 24 0 12 11 12 15 2 15 -7 -1 -19 -7 -26 -15z"/>
<path d="M1838 33 c12 -2 32 -2 45 0 12 2 2 4 -23 4 -25 0 -35 -2 -22 -4z"/>
<path d="M1438 23 c7 -3 16 -2 19 1 4 3 -2 6 -13 5 -11 0 -14 -3 -6 -6z"/>
<path d="M1788 23 c7 -3 16 -2 19 1 4 3 -2 6 -13 5 -11 0 -14 -3 -6 -6z"/>
<path d="M1488 13 c6 -2 18 -2 25 0 6 3 1 5 -13 5 -14 0 -19 -2 -12 -5z"/>
</g>
</svg>
