<?xml version="1.0" standalone="no"?>
<!DOCTYPE svg PUBLIC "-//W3C//DTD SVG 20010904//EN"
 "http://www.w3.org/TR/2001/REC-SVG-20010904/DTD/svg10.dtd">
<svg version="1.0" xmlns="http://www.w3.org/2000/svg"
 width="324.000000pt" height="324.000000pt" viewBox="0 0 324.000000 324.000000"
 preserveAspectRatio="xMidYMid meet">

<g transform="translate(0.000000,324.000000) scale(0.100000,-0.100000)"
fill="#f1f1f1" stroke="none">
<path d="M1520 3233 c-514 -36 -963 -297 -1247 -723 -238 -356 -322 -800 -233
-1228 72 -346 265 -666 540 -896 387 -325 884 -449 1378 -346 331 69 655 260
880 520 428 495 519 1196 230 1774 -259 517 -741 845 -1319 896 -111 10 -136
10 -229 3z m-539 -670 c-20 -165 -9 -292 32 -366 37 -66 39 -66 344 -55 190 8
355 8 550 0 316 -12 317 -11 353 65 35 74 44 167 31 314 -6 73 -10 134 -8 135
6 6 111 -162 152 -244 114 -225 110 -395 -11 -472 -63 -40 -139 -61 -259 -71
-55 -4 -101 -8 -102 -9 -11 -1 4 -44 42 -120 25 -50 52 -116 60 -147 25 -95 6
-131 -118 -223 -112 -84 -122 -102 -121 -215 0 -64 8 -120 27 -192 43 -164 35
-213 -42 -252 -34 -18 -37 -23 -33 -53 10 -87 -57 -191 -144 -224 -141 -54
-303 53 -304 202 l0 51 -45 13 c-98 27 -116 95 -71 266 34 127 40 191 26 258
-12 60 -16 65 -160 178 -30 24 -64 61 -74 83 -19 37 -19 42 -4 100 9 34 37
104 62 156 25 51 46 99 46 106 0 12 -30 17 -152 28 -310 26 -388 214 -223 540
46 91 145 248 152 241 3 -2 0 -44 -6 -93z"/>
<path d="M1710 669 c-30 -5 -93 -6 -139 -3 l-84 7 6 -42 c15 -115 129 -180
226 -129 58 30 83 65 89 127 5 58 8 57 -98 40z"/>
</g>
</svg>
