<?xml version="1.0" standalone="no"?>
<!DOCTYPE svg PUBLIC "-//W3C//DTD SVG 20010904//EN"
 "http://www.w3.org/TR/2001/REC-SVG-20010904/DTD/svg10.dtd">
<svg version="1.0" xmlns="http://www.w3.org/2000/svg"
 width="324.000000pt" height="324.000000pt" viewBox="0 0 324.000000 324.000000"
 preserveAspectRatio="xMidYMid meet">

<g transform="translate(0.000000,324.000000) scale(0.100000,-0.100000)"
fill="#f1f1f1" stroke="none">
<path d="M1466 3230 c-546 -63 -997 -358 -1258 -825 -138 -247 -201 -492 -201
-785 0 -309 77 -590 231 -838 454 -731 1363 -987 2120 -597 710 366 1047 1190
796 1943 -190 568 -676 985 -1265 1086 -112 19 -322 27 -423 16z m449 -435
c291 -57 453 -230 559 -598 37 -126 50 -236 43 -356 -27 -444 -264 -907 -529
-1035 -65 -31 -89 -37 -227 -51 -383 -40 -682 -127 -795 -231 -35 -33 -41 -26
-21 22 46 112 236 214 515 279 63 14 162 37 220 51 178 41 281 104 340 208 41
70 38 84 -7 48 -118 -91 -286 -154 -478 -176 -160 -19 -237 -42 -384 -113 -89
-43 -127 -67 -173 -113 -54 -54 -58 -57 -58 -33 0 78 123 194 295 277 129 63
197 83 331 96 54 5 124 17 154 26 152 44 256 150 275 279 l8 50 -38 -45 c-53
-63 -136 -132 -199 -164 -40 -20 -78 -30 -147 -36 -52 -5 -130 -21 -174 -36
-163 -54 -404 -182 -482 -257 -18 -17 -35 -28 -38 -26 -12 13 50 111 103 163
126 124 314 218 514 256 119 23 162 45 234 116 50 50 114 157 114 190 0 6 -31
42 -68 80 -86 87 -150 201 -226 397 -96 251 -154 372 -212 443 l-46 56 12 47
c36 150 191 204 375 132 44 -17 123 -56 175 -85 65 -36 96 -49 98 -40 10 41
-72 94 -220 143 -110 37 -103 60 15 54 40 -2 104 -10 142 -18z m-585 -336 c7
-11 35 -91 64 -177 104 -308 189 -464 354 -643 29 -31 52 -61 52 -67 0 -20
-98 -100 -160 -130 -187 -91 -437 -102 -481 -21 -13 25 -4 82 16 99 8 7 15 21
15 31 0 15 -7 19 -33 19 -42 0 -60 16 -46 42 8 15 7 24 -5 37 -21 23 -20 37 3
60 18 18 37 88 27 99 -3 3 -22 8 -42 11 -20 3 -41 13 -47 22 -10 16 -5 28 67
140 10 16 26 78 37 137 27 161 72 294 117 345 20 23 49 22 62 -4z"/>
<path d="M2053 2623 c78 -109 116 -220 118 -345 l2 -73 19 45 c47 108 14 243
-84 346 -71 75 -99 89 -55 27z"/>
<path d="M2266 2408 c27 -86 36 -137 41 -238 8 -165 -16 -269 -91 -393 -30
-49 -32 -55 -13 -45 40 21 123 113 146 162 59 127 41 297 -50 477 -30 60 -46
78 -33 37z"/>
<path d="M1164 2075 c-10 -26 6 -35 62 -35 62 0 70 14 19 36 -44 18 -74 18
-81 -1z"/>
</g>
</svg>
